<svg xmlns="http://www.w3.org/2000/svg" viewBox="0 0 800 168"><defs><style>.cls-1{fill:#780000;}.cls-2{fill:#f31000;}.cls-3{fill:#006dc2;}.cls-4{fill:#00007f;}</style></defs>
    <g id="vehicle">
        <animateTransform attributeName="transform" type="translate" from="0 0" to="800 0" dur="4s" repeatCount="indefinite"/>
        <path d="M224.23,144.36v-9.9c-1.47,0-2.91,0-4.36,0a2.78,2.78,0,0,1-2.72-2.42,2.85,2.85,0,0,1,1.19-2.79,6.42,6.42,0,0,1,3.27-.54c.78,0,.56-.71.56-1.24q0-1.09,0-2.19c0-1.5.1-3,.12-4.49a27.32,27.32,0,0,0-1.13-8.86c-2.59-7.7-8-12.33-15.88-14.19a6.48,6.48,0,0,0-1.46-.08H178.07c-2.65,0-3.44-.73-3.71-3.4A5.85,5.85,0,0,0,169,89c-1.54-.12-3.09-.06-4.64-.09a2.9,2.9,0,0,1-3.19-3.18q0-6.65,0-13.31a2.89,2.89,0,1,1,5.76,0c0,3.09,0,6.18,0,9.28v1.45c.53,0,1,.07,1.4.08A11.57,11.57,0,0,1,179.46,91c.21.56.35,1,1.13,1,5.74,0,11.48,0,17.22,0a8,8,0,0,0,.92-.14c-.71-1.84-1.33-3.58-2.07-5.28a55.9,55.9,0,0,0-14.19-20.22,38.3,38.3,0,0,0-26.06-9.7q-51.68-.06-103.35,0a14.17,14.17,0,0,1-1.46,0,2.83,2.83,0,0,1-.24-5.61,8.88,8.88,0,0,1,1.46-.09q51.31,0,102.61,0c8.79,0,17,1.87,24.57,6.5a52.76,52.76,0,0,1,17.38,18,67.24,67.24,0,0,1,7,15.4c.27.91.9,1.06,1.61,1.21a27.79,27.79,0,0,1,12.54,6A26.45,26.45,0,0,1,228,118.07c.09,3.21,0,6.43,0,9.65a1.42,1.42,0,0,0,.74,1.49,2.63,2.63,0,0,1,1.33,2.45c0,5.17,0,10.34,0,15.51a2.75,2.75,0,0,1-3,2.94q-6.9,0-13.8,0a2.81,2.81,0,0,1-3-2.87,2.84,2.84,0,0,1,3-2.87c3.13,0,6.27,0,9.4,0Z"/><path class="cls-1" d="M143.35,86c0,4.52,0,9,0,13.55a2.89,2.89,0,0,1-3.2,3.17H126.41v3c0,3.63,0,7.26,0,10.88a2.86,2.86,0,0,1-3.11,3.11q-6.84,0-13.69,0a2.82,2.82,0,0,1-3.16-3.15c0-4.12,0-8.22,0-12.34,0-.44,0-.86-.06-1.43H92.84c-2.33,0-3.43-1.13-3.43-3.46V86.14c0-2.35,1.08-3.45,3.41-3.45,4,0,8,0,12,0h1.54c0-.58.08-1,.08-1.43q0-6.08,0-12.1c0-2.5.76-3.4,3.2-3.44,4.7-.07,9.37-.06,14.05,0,1.62,0,2.71,1.32,2.71,3.15q0,6.11,0,12.22v1.64h1.66c4,0,8,0,12,0C142.28,82.69,143.33,83.72,143.35,86Zm-7,11c1.11,0,1.39-.34,1.36-1.39-.08-2-.08-4,0-6,0-1-.33-1.17-1.21-1.17-4.12,0-8.22,0-12.34,0-2.47,0-3.48-1-3.48-3.51,0-4,0-8,0-12,0-.48,0-.94-.05-1.44h-8.4V84.39c0,3.09-.9,4-4,4h-13c0,2.44,0,4.89,0,7.35,0,.91.29,1.16,1.18,1.16,4.1,0,8.23,0,12.33,0,2.42,0,3.51,1.09,3.51,3.5v12.09c0,.42.06.86.08,1.32h8.39V100.43c0-2.5,1-3.53,3.57-3.53C128.24,96.9,132.28,96.87,136.31,96.92Z"/><path class="cls-2" d="M137.67,95.53c0,1-.25,1.41-1.36,1.39-4,0-8.07,0-12.1,0-2.54,0-3.57,1-3.57,3.53v13.38h-8.39c0-.46-.08-.9-.08-1.32V100.4c0-2.41-1.09-3.5-3.51-3.5-4.1,0-8.23,0-12.33,0-.89,0-1.2-.25-1.18-1.16.06-2.46,0-4.91,0-7.35h13c3.07,0,4-.93,4-4V71.5h8.4c0,.5.05,1,.05,1.44,0,4,0,8,0,12,0,2.46,1,3.49,3.48,3.51,4.12,0,8.22,0,12.34,0,.88,0,1.24.21,1.21,1.17C137.59,91.54,137.59,93.54,137.67,95.53Z"/><path d="M185.43,161.4a19.82,19.82,0,1,1,0-39.64c11.28.14,20.18,8.73,19.82,20.34A19.72,19.72,0,0,1,185.43,161.4Zm-.13-33.85c-6.27-.39-13.72,5.16-14,13.42a14.06,14.06,0,0,0,13.87,14.71c7.51.23,14-6.07,14.29-13.75C199.74,134.59,193.41,127.33,185.3,127.55Z"/><path d="M93,141.73a19.83,19.83,0,1,1-19.76-20A19.73,19.73,0,0,1,93,141.73Zm-33.92-.07a14.1,14.1,0,1,0,14-14.17A14.13,14.13,0,0,0,59.12,141.66Z"/><path d="M128.77,150.11q-13.74,0-27.47,0a3,3,0,0,1-3-1.79,2.81,2.81,0,0,1,1.84-3.79,7.83,7.83,0,0,1,1.94-.17h53.84c.28,0,.57,0,.85,0a3,3,0,0,1,2.84,2.95,2.87,2.87,0,0,1-3,2.78c-3.42,0-6.84,0-10.25,0H128.77Z"/><path d="M39.3,144.37c1.7,0,3.36,0,5,0a2.86,2.86,0,0,1,3,3,2.74,2.74,0,0,1-2.7,2.76c-2.8.06-5.61,0-8.42,0a2.72,2.72,0,0,1-2.77-2.83c-.06-5.21-.05-10.42,0-15.62a2.85,2.85,0,0,1,3-2.93c.8,0,1.61,0,2.6,0V127.3c0-2.49,0-5,0-7.45,0-2,1.14-3.21,2.9-3.2s2.84,1.28,2.85,3.25c0,3.75,0,7.49,0,11.24,0,2.21-1.1,3.3-3.29,3.32H39.3Z"/><path d="M103.23,39.61a13.19,13.19,0,1,1,26.31-2c.09,1.34.07,2.69,0,4a2.88,2.88,0,1,1-5.75,0c0-1,0-2,0-2.93A7.42,7.42,0,1,0,109,38.6c0,1.06,0,2.12,0,3.18A2.77,2.77,0,0,1,106,44.56a2.81,2.81,0,0,1-2.77-3C103.21,40.92,103.23,40.23,103.23,39.61Z"/><path d="M48.43,76.82c4.76,0,9.52,0,14.27,0a2.92,2.92,0,0,1,2.91,1.59,2.8,2.8,0,0,1-1.63,4,5,5,0,0,1-1.44.2q-14,0-27.94,0c-.32,0-.65,0-1,0A2.88,2.88,0,0,1,31,79.59a2.8,2.8,0,0,1,2.84-2.76c3.58,0,7.16,0,10.74,0Z"/><path d="M112.59,134.47H101.36c-2,0-3.26-1.1-3.3-2.81s1.27-2.95,3.3-2.94c6.3,0,12.6.05,18.9.07,1.22,0,2.44-.1,3.65-.08a2.89,2.89,0,1,1,0,5.75C120.15,134.48,116.37,134.47,112.59,134.47Z"/><path d="M26,56.56c-3.58,0-7.16,0-10.73,0a2.69,2.69,0,0,1-2.69-2.06,2.73,2.73,0,0,1,1.23-3.16,3.89,3.89,0,0,1,1.73-.47q10.54,0,21.1,0a2.87,2.87,0,1,1,0,5.71c-3.54,0-7.07,0-10.61,0Z"/><path d="M25.5,102.77h6.11c1.94,0,3.21,1.18,3.19,2.92a2.88,2.88,0,0,1-3.16,2.83q-6.23,0-12.46,0c-2,0-3.22-1.2-3.19-2.93s1.29-2.82,3.29-2.83,4.15,0,6.22,0Z"/><path d="M51.47,102.76c1.43,0,2.85,0,4.28,0a2.87,2.87,0,1,1,.09,5.74c-3,.06-6,0-8.92,0a2.87,2.87,0,1,1,.16-5.74c1.46,0,2.93,0,4.39,0Z"/><path d="M14.32,76.82c1.47,0,2.93,0,4.4,0a2.85,2.85,0,0,1,3,2.75,2.81,2.81,0,0,1-2.92,2.94c-3,.07-5.94.07-8.9,0a2.88,2.88,0,0,1-3-2.9,2.83,2.83,0,0,1,3-2.82C11.4,76.8,12.86,76.82,14.32,76.82Z"/><path d="M113.53,11.84c0-1.22,0-2.43,0-3.65a2.87,2.87,0,1,1,5.74,0c0,2.47,0,4.95,0,7.42a2.88,2.88,0,1,1-5.74-.09C113.51,14.28,113.53,13.06,113.53,11.84Z"/><path d="M99.78,25.26a6.92,6.92,0,0,1-1.69-1c-1.77-1.66-3.48-3.39-5.17-5.14a2.89,2.89,0,0,1,0-4.16,2.82,2.82,0,0,1,4.05.06c1.85,1.76,3.65,3.58,5.42,5.42a2.68,2.68,0,0,1,.51,3.16C102.35,24.7,101.45,25.24,99.78,25.26Z"/><path d="M143.07,41.39c-1.26,0-2.52,0-3.78,0a2.86,2.86,0,1,1-.12-5.72c2.56-.07,5.13-.07,7.69,0a2.86,2.86,0,1,1-.12,5.72c-1.22,0-2.44,0-3.67,0Z"/><path d="M89.73,41.39c-1.26,0-2.52,0-3.78,0a2.83,2.83,0,0,1-2.83-2.65,2.68,2.68,0,0,1,2.44-3c2.79-.14,5.61-.15,8.41,0a2.67,2.67,0,0,1,2.45,3,2.77,2.77,0,0,1-2.78,2.68c-1.3,0-2.61,0-3.91,0Z"/><path d="M132.84,25.27A2.92,2.92,0,0,1,130,23.7a2.48,2.48,0,0,1,.26-3c1.93-2.07,3.93-4.1,6-6a2.68,2.68,0,0,1,3.74.36,2.66,2.66,0,0,1,.15,3.66c-1.9,2.05-3.91,4-5.93,5.94A3.73,3.73,0,0,1,132.84,25.27Z"/></g>

    <g id="text">
        <path class="cls-3" d="M379.53,149.23a.5.5,0,0,1-.5-.5V60.18a19,19,0,0,0-1.45-7.35,18.06,18.06,0,0,0-4-6,21.29,21.29,0,0,0-6-4,17.53,17.53,0,0,0-7.26-1.53A18,18,0,0,0,353,42.82a20.64,20.64,0,0,0-6.07,4,17.83,17.83,0,0,0-4,6,18.87,18.87,0,0,0-1.46,7.35v88.55a.5.5,0,0,1-.5.5H326.3a.51.51,0,0,1-.5-.5V60.18a19,19,0,0,0-1.45-7.35,18,18,0,0,0-4-6,20.91,20.91,0,0,0-6.08-4,18.32,18.32,0,0,0-14.68,0,20.64,20.64,0,0,0-6.07,4,17.69,17.69,0,0,0-4,6A18.87,18.87,0,0,0,288,60.18v88.55a.5.5,0,0,1-.5.5H273.08a.5.5,0,0,1-.5-.5V60.18a33.28,33.28,0,0,1,2.69-13.3A35.51,35.51,0,0,1,282.59,36a34.42,34.42,0,0,1,39.54-6.57,35.92,35.92,0,0,1,11.46,9.1,34.13,34.13,0,0,1,26.7-12.63,33.32,33.32,0,0,1,13.3,2.69,35,35,0,0,1,18.34,18.33,33.49,33.49,0,0,1,2.69,13.3v88.55a.5.5,0,0,1-.5.5Z"/><path class="cls-4" d="M360.29,26.36A32.6,32.6,0,0,1,373.39,29a34.47,34.47,0,0,1,18.08,18.07,32.81,32.81,0,0,1,2.65,13.1v88.55H379.53V60.18A19.43,19.43,0,0,0,378,52.64a18.36,18.36,0,0,0-4.15-6.14,21.5,21.5,0,0,0-6.13-4.14,17.94,17.94,0,0,0-7.47-1.58,18.47,18.47,0,0,0-7.54,1.58,21.13,21.13,0,0,0-6.22,4.14,18.19,18.19,0,0,0-4.14,6.14,19.26,19.26,0,0,0-1.5,7.54v88.55H326.3V60.18a19.43,19.43,0,0,0-1.49-7.54,18.21,18.21,0,0,0-4.15-6.14,21.08,21.08,0,0,0-6.21-4.14,18.8,18.8,0,0,0-15.09,0,21.13,21.13,0,0,0-6.22,4.14A18.36,18.36,0,0,0,289,52.64a19.43,19.43,0,0,0-1.49,7.54v88.55H273.08V60.18a32.63,32.63,0,0,1,2.65-13.1,35,35,0,0,1,7.21-10.77,33.93,33.93,0,0,1,39-6.47,35.4,35.4,0,0,1,11.69,9.45,33.61,33.61,0,0,1,26.69-12.93m0-1A34.25,34.25,0,0,0,344.76,29a34.63,34.63,0,0,0-11.17,8.76A36.68,36.68,0,0,0,322.36,29a33.94,33.94,0,0,0-15.46-3.59,34.48,34.48,0,0,0-13.57,2.73,34.11,34.11,0,0,0-11.1,7.52,36.1,36.1,0,0,0-7.42,11.08,33.81,33.81,0,0,0-2.73,13.49v88.55a1,1,0,0,0,1,1H287.5a1,1,0,0,0,1-1V60.18A18.39,18.39,0,0,1,289.92,53a17.23,17.23,0,0,1,3.92-5.81,20.18,20.18,0,0,1,5.92-3.95,17.85,17.85,0,0,1,14.28,0A20.36,20.36,0,0,1,320,47.22,17.53,17.53,0,0,1,323.89,53a18.38,18.38,0,0,1,1.41,7.15v88.55a1,1,0,0,0,1,1h14.59a1,1,0,0,0,1-1V60.18A18.39,18.39,0,0,1,343.31,53a17.28,17.28,0,0,1,3.92-5.81,20.31,20.31,0,0,1,5.92-3.95,17.54,17.54,0,0,1,7.14-1.49,16.88,16.88,0,0,1,7,1.49,20.69,20.69,0,0,1,5.86,3.95A17.35,17.35,0,0,1,377.11,53a18.39,18.39,0,0,1,1.42,7.15v88.55a1,1,0,0,0,1,1h14.59a1,1,0,0,0,1-1V60.18a33.88,33.88,0,0,0-2.73-13.49,35.43,35.43,0,0,0-18.6-18.6,34,34,0,0,0-13.5-2.73Z"/><path class="cls-3" d="M456.13,151.22a42.83,42.83,0,0,1-17-3.44,44.25,44.25,0,0,1-23.3-23.23,42,42,0,0,1-3.44-16.94,43.67,43.67,0,0,1,12.83-31,45.31,45.31,0,0,1,13.91-9.3,43.87,43.87,0,0,1,34.06,0A43.22,43.22,0,0,1,496.31,90.5a43.32,43.32,0,0,1,3.43,17.11v2.48c0,.91-.1,2.39-.33,4.53a.5.5,0,0,1-.5.45H428.75a26.72,26.72,0,0,0,3.59,8,31.22,31.22,0,0,0,6.2,6.86,27.48,27.48,0,0,0,8.06,4.55,27.86,27.86,0,0,0,9.53,1.63,16.59,16.59,0,0,0,7.73-2,33.67,33.67,0,0,0,7.52-5.47.45.45,0,0,1,.34-.14.5.5,0,0,1,.35.14l9.95,10a.49.49,0,0,1,.15.36.51.51,0,0,1-.15.35,47.87,47.87,0,0,1-12.15,8.63A30.85,30.85,0,0,1,456.13,151.22ZM483.49,100A33.43,33.43,0,0,0,479.84,92a27.46,27.46,0,0,0-6.11-6.84,28.74,28.74,0,0,0-8.07-4.48,28.67,28.67,0,0,0-19.06,0A28.33,28.33,0,0,0,432.34,92a28.35,28.35,0,0,0-3.58,7.94Z"/><path class="cls-4" d="M456.13,64.33A41.94,41.94,0,0,1,473,67.73a42.75,42.75,0,0,1,22.89,23,42.75,42.75,0,0,1,3.39,16.92v2.48c0,.89-.11,2.38-.33,4.48h-70.8a27.26,27.26,0,0,0,3.81,8.79,31.48,31.48,0,0,0,6.31,7,27.73,27.73,0,0,0,8.2,4.64,28.08,28.08,0,0,0,9.7,1.66,17,17,0,0,0,8-2.07,33.28,33.28,0,0,0,7.63-5.55l9.95,9.94a47.21,47.21,0,0,1-12,8.54,30.15,30.15,0,0,1-13.52,3.24,42.12,42.12,0,0,1-16.83-3.4,43.76,43.76,0,0,1-23-23,41.31,41.31,0,0,1-3.4-16.74,43.13,43.13,0,0,1,12.68-30.68,44.52,44.52,0,0,1,13.76-9.2,41.94,41.94,0,0,1,16.83-3.4m-28,36.15h56.05a33.61,33.61,0,0,0-3.9-8.71,27.88,27.88,0,0,0-6.22-7,28.72,28.72,0,0,0-8.21-4.56,29.17,29.17,0,0,0-19.4,0,28.66,28.66,0,0,0-8.2,4.56,29,29,0,0,0-6.31,7,28.53,28.53,0,0,0-3.81,8.71m28-37.15a43.19,43.19,0,0,0-17.22,3.48,45.63,45.63,0,0,0-14.07,9.41,44.12,44.12,0,0,0-13,31.39,42.56,42.56,0,0,0,3.48,17.14,44.72,44.72,0,0,0,23.57,23.49,43.19,43.19,0,0,0,17.22,3.48,31.36,31.36,0,0,0,14-3.34,48.3,48.3,0,0,0,12.27-8.72,1,1,0,0,0,.31-.71,1,1,0,0,0-.29-.71l-9.95-10a1,1,0,0,0-.71-.29,1,1,0,0,0-.69.27,32.56,32.56,0,0,1-7.4,5.39,16.15,16.15,0,0,1-7.5,2,27.11,27.11,0,0,1-17.27-6.07,30.44,30.44,0,0,1-6.1-6.75,26.2,26.2,0,0,1-3.35-7.23h69.5a1,1,0,0,0,1-.9c.22-2.15.33-3.65.33-4.58v-2.48a44,44,0,0,0-3.47-17.31,43.72,43.72,0,0,0-23.41-23.49,43.27,43.27,0,0,0-17.23-3.48ZM429.42,99.48a27.78,27.78,0,0,1,3.34-7.16,27.72,27.72,0,0,1,14-11.13,28.15,28.15,0,0,1,18.71,0,28.13,28.13,0,0,1,7.93,4.4,27.37,27.37,0,0,1,6,6.71,32.72,32.72,0,0,1,3.38,7.18Z"/><path class="cls-3" d="M556.45,150.72a42.24,42.24,0,0,1-17-3.44A45.39,45.39,0,0,1,525.67,138a43.26,43.26,0,0,1-9.39-13.83,43.87,43.87,0,0,1,0-34.06A44.25,44.25,0,0,1,539.5,66.77a43.73,43.73,0,0,1,33-.42,46.18,46.18,0,0,1,12.5,7.5V27.19a.5.5,0,0,1,.5-.5h14.09a.5.5,0,0,1,.5.5v79.92a42.63,42.63,0,0,1-3.44,17,43.48,43.48,0,0,1-23.14,23.14A42.83,42.83,0,0,1,556.45,150.72Zm0-72.13a28.34,28.34,0,0,0-11.08,2.2,27.61,27.61,0,0,0-9,6.11A30.3,30.3,0,0,0,530.21,96a28,28,0,0,0,0,22.15,28.8,28.8,0,0,0,15.17,15.17,28,28,0,0,0,22.15,0,30.49,30.49,0,0,0,9.13-6.12,27.46,27.46,0,0,0,6.11-9,29,29,0,0,0,0-22.16,28.26,28.26,0,0,0-15.24-15.24A28.34,28.34,0,0,0,556.45,78.59Z"/><path class="cls-4" d="M599.56,27.19v79.92a41.94,41.94,0,0,1-3.4,16.83,42.9,42.9,0,0,1-22.88,22.88,42.12,42.12,0,0,1-16.83,3.4,41.56,41.56,0,0,1-16.75-3.4,44.69,44.69,0,0,1-13.68-9.2,42.8,42.8,0,0,1-9.28-13.68,43.35,43.35,0,0,1,0-33.66,43.76,43.76,0,0,1,23-23,43.2,43.2,0,0,1,32.59-.41,45.64,45.64,0,0,1,13.18,8.12V27.19h14.09M556.45,136.13a27.82,27.82,0,0,0,11.28-2.33,30.77,30.77,0,0,0,9.28-6.21,27.8,27.8,0,0,0,6.22-9.21,29.09,29.09,0,0,0-38.05-38A27.8,27.8,0,0,0,536,86.55a30.79,30.79,0,0,0-6.22,9.28,28.56,28.56,0,0,0,0,22.55,29.15,29.15,0,0,0,15.43,15.42,27.74,27.74,0,0,0,11.27,2.33M599.56,26.19H585.47a1,1,0,0,0-1,1v45.6a46.85,46.85,0,0,0-11.81-6.9,44.2,44.2,0,0,0-33.35.42,44.81,44.81,0,0,0-23.49,23.57,44.39,44.39,0,0,0,0,34.46,44.1,44.1,0,0,0,9.5,14,45.86,45.86,0,0,0,14,9.41,42.63,42.63,0,0,0,17.14,3.48,43.27,43.27,0,0,0,17.23-3.48,43.89,43.89,0,0,0,23.4-23.4,43.27,43.27,0,0,0,3.48-17.23V27.19a1,1,0,0,0-1-1ZM556.45,135.13a27,27,0,0,1-10.87-2.24A28.22,28.22,0,0,1,530.67,118a27.49,27.49,0,0,1,0-21.74,29.55,29.55,0,0,1,6-9,27,27,0,0,1,8.87-6,28.53,28.53,0,0,1,21.78,0,27.73,27.73,0,0,1,15,15,28.51,28.51,0,0,1,0,21.77,26.9,26.9,0,0,1-6,8.88,30,30,0,0,1-9,6,27.09,27.09,0,0,1-10.88,2.24Z"/><path class="cls-3" d="M615.31,149.23a.51.51,0,0,1-.5-.5v-121a.51.51,0,0,1,.5-.5h75.12a.5.5,0,0,1,.5.5v14.6a.5.5,0,0,1-.5.5H630.24V80.41H682.8a.5.5,0,0,1,.5.5V95.5a.5.5,0,0,1-.5.5H630.24v37.8h60.19a.5.5,0,0,1,.5.5v14.43a.5.5,0,0,1-.5.5Z"/><path class="cls-4" d="M690.43,27.68v14.6H629.74V80.91H682.8V95.5H629.74v38.8h60.69v14.43H615.31v-121h75.12m0-1H615.31a1,1,0,0,0-1,1v121a1,1,0,0,0,1,1h75.12a1,1,0,0,0,1-1V134.3a1,1,0,0,0-1-1H630.74V96.5H682.8a1,1,0,0,0,1-1V80.91a1,1,0,0,0-1-1H630.74V43.28h59.69a1,1,0,0,0,1-1V27.68a1,1,0,0,0-1-1Z"/><path class="cls-3" d="M775.82,149.23a.52.52,0,0,1-.44-.25L749.45,103.8l-13,22.38c-4.45,7.65-8.86,15.31-13.1,22.79a.51.51,0,0,1-.44.26H706.34a.52.52,0,0,1-.43-.25.5.5,0,0,1,0-.5l34.51-60.11q-1.26-2.19-2.5-4.3t-2.66-4.57c-3.53-6.39-7.21-12.8-10.94-19.06s-7.45-12.74-11-19.08l-7.79-13.42a.52.52,0,0,1,0-.51.5.5,0,0,1,.43-.25h16.58a.52.52,0,0,1,.44.25l26.42,45.68q4.77-8.25,9.68-16.9,5.14-9,10.12-17.67c.9-1.57,1.93-3.43,3.06-5.54s2.15-3.95,3.07-5.56a.51.51,0,0,1,.44-.26H792.9a.5.5,0,0,1,.43.25.5.5,0,0,1,0,.5L763.48,79.5c-1,1.76-1.84,3.31-2.56,4.63s-1.5,2.74-2.44,4.4q3.93,6.85,8.32,14.43c2.87,4.94,5.88,10.18,9,15.59q4.47,7.88,8.87,15.5T793,148.47a.52.52,0,0,1,0,.51.52.52,0,0,1-.44.25Z"/><path class="cls-4" d="M792.9,27.68,763.05,79.25c-1,1.77-1.85,3.32-2.57,4.64s-1.57,2.88-2.57,4.65q4,7,8.46,14.67t9,15.59q4.48,7.88,8.87,15.5t8.37,14.43H775.82L749.45,102.8,736,125.93q-6.79,11.69-13.1,22.8H706.34L741,88.37c-.89-1.54-1.77-3.07-2.65-4.56s-1.77-3-2.66-4.56q-5.31-9.61-10.94-19.07t-11-19.07L706,27.68h16.58l26.86,46.43q5-8.61,10.12-17.66t10.11-17.66c.89-1.54,1.91-3.4,3.07-5.55s2.18-4,3.07-5.56H792.9m0-1H775.82a1,1,0,0,0-.87.51c-.91,1.59-2,3.47-3.08,5.57s-2.16,4-3,5.54C765.35,44.3,762,50.24,758.7,56c-3.16,5.56-6.27,11-9.25,16.15l-26-44.93a1,1,0,0,0-.87-.5H706a1,1,0,0,0-.86,1.51l7.79,13.43c3.5,6.34,7.18,12.76,10.95,19.08s7.4,12.64,10.93,19c.89,1.56,1.79,3.1,2.67,4.58l2.36,4.05-34.37,59.86a1,1,0,0,0,.86,1.5h16.58a1,1,0,0,0,.87-.51c4.25-7.49,8.66-15.16,13.1-22.79q6.35-10.92,12.56-21.63L775,149.23a1,1,0,0,0,.87.5h16.74a1,1,0,0,0,.87-1.51c-2.61-4.45-5.43-9.3-8.37-14.42-2.83-4.9-5.73-10-8.87-15.5-3-5.35-6.06-10.6-9-15.59s-5.56-9.62-8.17-14.18c.78-1.39,1.55-2.79,2.3-4.16s1.58-2.89,2.56-4.63l29.84-51.55a1,1,0,0,0-.86-1.51Z"/></g>

</svg>
