<svg xmlns="http://www.w3.org/2000/svg" viewBox="0 0 256 200"><defs><style>.cls-1{fill:#780000;}.cls-2{fill:#f31000;}.cls-3{fill:#006dc2;}.cls-4{fill:#00007f;}</style></defs><g id="Vehicle"><path d="M207.42,108.35V101.1c-1.07,0-2.13,0-3.18,0a2,2,0,0,1-2-1.77,2.08,2.08,0,0,1,.88-2,4.77,4.77,0,0,1,2.39-.4c.57,0,.41-.51.41-.9,0-.54,0-1.07,0-1.61,0-1.09.08-2.19.08-3.28a19.76,19.76,0,0,0-.82-6.49c-1.9-5.63-5.88-9-11.62-10.38a4.81,4.81,0,0,0-1.07-.06H173.64c-1.94,0-2.51-.53-2.71-2.49A4.27,4.27,0,0,0,167,67.8c-1.12-.09-2.26,0-3.39-.08a2.12,2.12,0,0,1-2.34-2.32q0-4.86,0-9.74a2.11,2.11,0,1,1,4.21,0c0,2.26,0,4.53,0,6.79v1.06c.39,0,.7.06,1,.06a8.47,8.47,0,0,1,8.14,5.72c.15.4.26.73.83.73,4.2,0,8.4,0,12.6,0a6.14,6.14,0,0,0,.68-.1c-.53-1.34-1-2.62-1.52-3.86a41.07,41.07,0,0,0-10.38-14.8,28.1,28.1,0,0,0-19.08-7.1q-37.81,0-75.63,0a9.73,9.73,0,0,1-1.08,0,2.07,2.07,0,0,1-.17-4.1A6.34,6.34,0,0,1,82,39.9q37.55,0,75.1,0a33.41,33.41,0,0,1,18,4.75,38.57,38.57,0,0,1,12.71,13.19,49.25,49.25,0,0,1,5.12,11.28c.2.66.66.77,1.18.88a20.3,20.3,0,0,1,9.17,4.37,19.39,19.39,0,0,1,6.93,14.74c.06,2.35,0,4.71,0,7.06a1,1,0,0,0,.54,1.1,1.92,1.92,0,0,1,1,1.79c0,3.79,0,7.57,0,11.35a2,2,0,0,1-2.21,2.15c-3.37,0-6.73,0-10.1,0a2.1,2.1,0,1,1,0-4.19c2.3,0,4.59,0,6.89,0Z"/><path class="cls-1" d="M148.23,65.6c0,3.31,0,6.61,0,9.92a2.1,2.1,0,0,1-2.34,2.3H135.83V80c0,2.65,0,5.31,0,8a2.1,2.1,0,0,1-2.28,2.28c-3.34,0-6.67,0-10,0a2.06,2.06,0,0,1-2.32-2.3c0-3,0-6,0-9,0-.32,0-.64,0-1h-9.88a2.2,2.2,0,0,1-2.52-2.51V65.74c0-1.73.8-2.53,2.5-2.53h9.89c0-.41.06-.73.06-1.05,0-2.95,0-5.89,0-8.84,0-1.83.56-2.49,2.35-2.51,3.43-.06,6.85,0,10.28,0a2.07,2.07,0,0,1,2,2.3c0,3,0,6,0,8.94V63.2h10A2.11,2.11,0,0,1,148.23,65.6Zm-5.15,8c.81,0,1-.25,1-1,0-1.45,0-2.92,0-4.37,0-.7-.23-.85-.88-.85-3,0-6,0-9,0-1.8,0-2.54-.77-2.54-2.57,0-2.92,0-5.84,0-8.75,0-.35,0-.69,0-1h-6.15v9.42c0,2.27-.65,3-2.9,3H113c0,1.79,0,3.58,0,5.36,0,.69.21.87.86.87,3,0,6,0,9,0,1.78,0,2.57.79,2.57,2.55V85c0,.3,0,.62.06,1h6.15V76.2c0-1.83.75-2.58,2.61-2.58C137.17,73.62,140.13,73.57,143.08,73.63Z"/><path class="cls-2" d="M144.07,72.61c0,.77-.18,1-1,1-3-.06-5.91,0-8.85,0-1.86,0-2.61.75-2.61,2.58V86h-6.15c0-.34-.06-.66-.06-1V76.17c0-1.76-.79-2.55-2.57-2.55-3,0-6,0-9,0-.65,0-.88-.18-.86-.87,0-1.78,0-3.57,0-5.36h9.54c2.25,0,2.9-.68,2.9-3V55h6.15c0,.36,0,.7,0,1,0,2.91,0,5.83,0,8.75,0,1.8.74,2.56,2.54,2.57,3,0,6,0,9,0,.65,0,.91.15.88.85C144,69.69,144,71.16,144.07,72.61Z"/><path d="M179,120.82a14.51,14.51,0,1,1,0-29c8.25.1,14.77,6.4,14.51,14.89A14.44,14.44,0,0,1,179,120.82ZM178.94,96c-4.59-.28-10,3.78-10.23,9.83a10.3,10.3,0,0,0,10.15,10.76A10.3,10.3,0,1,0,178.94,96Z"/><path d="M111.41,106.42A14.51,14.51,0,1,1,97,91.8,14.43,14.43,0,0,1,111.41,106.42Zm-24.82,0A10.32,10.32,0,1,0,96.82,96,10.34,10.34,0,0,0,86.59,106.37Z"/><path d="M137.56,112.55h-20.1a2.17,2.17,0,0,1-2.23-1.31,2.06,2.06,0,0,1,1.35-2.77,5.57,5.57,0,0,1,1.42-.13h40a2.18,2.18,0,0,1,2.07,2.16,2.1,2.1,0,0,1-2.17,2c-2.5,0-5,0-7.5,0H137.56Z"/><path d="M72.09,108.35c1.24,0,2.45,0,3.66,0A2.1,2.1,0,0,1,78,110.52a2,2,0,0,1-2,2c-2,0-4.11,0-6.16,0a2,2,0,0,1-2-2.06q-.06-5.73,0-11.44A2.08,2.08,0,0,1,70,96.9c.59,0,1.18,0,1.9,0v-1c0-1.82,0-3.64,0-5.45A2.09,2.09,0,0,1,74,88.07a2.11,2.11,0,0,1,2.09,2.38q0,4.11,0,8.22a2.15,2.15,0,0,1-2.41,2.43c-.51,0-1,0-1.59,0Z"/><path d="M118.87,31.69a9.77,9.77,0,0,1,6.07-9.77,9.68,9.68,0,0,1,13.19,8.29c.06,1,.05,2,0,2.95a2.1,2.1,0,1,1-4.2,0c0-.71,0-1.43,0-2.14A5.43,5.43,0,1,0,123.08,31c0,.77,0,1.55,0,2.32a2,2,0,0,1-2.14,2,2.06,2.06,0,0,1-2-2.16C118.86,32.64,118.87,32.14,118.87,31.69Z"/><path d="M78.77,58.91c3.48,0,7,0,10.44,0a2.13,2.13,0,0,1,2.13,1.17A2.05,2.05,0,0,1,90.14,63a3.38,3.38,0,0,1-1,.15H68.65c-.24,0-.48,0-.72,0a2.12,2.12,0,0,1-2-2.16,2.05,2.05,0,0,1,2.08-2c2.62,0,5.24,0,7.86,0Z"/><path d="M125.72,101.11H117.5a2.12,2.12,0,1,1,0-4.2l13.84,0c.89,0,1.78-.07,2.67-.06a2.12,2.12,0,1,1,0,4.21Z"/><path d="M62.36,44.09c-2.61,0-5.23,0-7.85,0a2,2,0,0,1-2-1.51,2,2,0,0,1,.9-2.32,2.83,2.83,0,0,1,1.27-.34q7.73,0,15.44,0a2.1,2.1,0,1,1,0,4.18Z"/><path d="M62,77.91h4.47a2.11,2.11,0,1,1,0,4.21q-4.56,0-9.12,0A2.09,2.09,0,0,1,55,80a2.12,2.12,0,0,1,2.4-2.07c1.52,0,3,0,4.56,0Z"/><path d="M81,77.9c1.05,0,2.09,0,3.13,0a2.1,2.1,0,1,1,.07,4.2c-2.18,0-4.35,0-6.53,0a2.1,2.1,0,1,1,.12-4.2c1.07,0,2.14,0,3.21,0Z"/><path d="M53.81,58.92c1.07,0,2.14,0,3.21,0a2.09,2.09,0,0,1,2.18,2,2,2,0,0,1-2.13,2.15c-2.17,0-4.35,0-6.52,0A2.1,2.1,0,0,1,48.37,61a2.08,2.08,0,0,1,2.22-2.07C51.66,58.9,52.73,58.92,53.81,58.92Z"/><path d="M126.41,11.36c0-.89,0-1.78,0-2.67a2.1,2.1,0,1,1,4.2,0q0,2.72,0,5.43a2.15,2.15,0,0,1-2.09,2.22A2.17,2.17,0,0,1,126.41,14C126.4,13.14,126.41,12.25,126.41,11.36Z"/><path d="M116.35,21.18a5.31,5.31,0,0,1-1.24-.72c-1.3-1.22-2.55-2.48-3.79-3.77a2.1,2.1,0,0,1,0-3,2.05,2.05,0,0,1,3,0c1.35,1.29,2.67,2.62,4,4A2,2,0,0,1,118.6,20,2.17,2.17,0,0,1,116.35,21.18Z"/><path d="M148,33c-.92,0-1.85,0-2.77,0a2.1,2.1,0,1,1-.09-4.19c1.88-.05,3.76-.05,5.63,0a2,2,0,0,1,2.06,2.14A2.07,2.07,0,0,1,150.71,33c-.89,0-1.78,0-2.68,0Z"/><path d="M109,33c-.92,0-1.85,0-2.77,0A2,2,0,0,1,104.16,31a2,2,0,0,1,1.78-2.18c2-.11,4.1-.11,6.15,0a2,2,0,0,1,1.8,2.17,2,2,0,0,1-2,2c-.95,0-1.91,0-2.86,0Z"/><path d="M140.54,21.19A2.14,2.14,0,0,1,138.45,20a1.83,1.83,0,0,1,.19-2.17c1.42-1.52,2.88-3,4.41-4.4a2.07,2.07,0,0,1,2.85,2.94c-1.39,1.5-2.86,2.93-4.34,4.35A2.77,2.77,0,0,1,140.54,21.19Z"/></g><g id="Text"><path class="cls-3" d="M57.15,193a.5.5,0,0,1-.5-.5V151.66a8.51,8.51,0,0,0-.65-3.29,8,8,0,0,0-1.8-2.67,9.66,9.66,0,0,0-2.69-1.82,7.84,7.84,0,0,0-3.24-.68,8.1,8.1,0,0,0-3.28.68,9.65,9.65,0,0,0-2.73,1.82,8,8,0,0,0-1.8,2.67,8.51,8.51,0,0,0-.65,3.29v40.88a.5.5,0,0,1-.5.5H32.57a.5.5,0,0,1-.5-.5V151.66a8.33,8.33,0,0,0-.65-3.29,7.87,7.87,0,0,0-1.8-2.67,9.6,9.6,0,0,0-2.72-1.82,8.25,8.25,0,0,0-6.56,0,9.65,9.65,0,0,0-2.73,1.82,8,8,0,0,0-1.8,2.67,8.51,8.51,0,0,0-.65,3.29v40.88a.5.5,0,0,1-.5.5H8a.5.5,0,0,1-.5-.5V151.66a15.62,15.62,0,0,1,1.27-6.25,16.78,16.78,0,0,1,3.43-5.13,15.9,15.9,0,0,1,5.13-3.48,16.17,16.17,0,0,1,6.29-1.26,15.7,15.7,0,0,1,7.15,1.66,17,17,0,0,1,5.17,4,16,16,0,0,1,12.33-5.69,15.61,15.61,0,0,1,6.24,1.27,16.31,16.31,0,0,1,5.14,3.47,16.6,16.6,0,0,1,3.47,5.13,15.69,15.69,0,0,1,1.27,6.25v40.88a.5.5,0,0,1-.5.5Z"/><path class="cls-4" d="M48.27,136a15.21,15.21,0,0,1,6,1.22,16.18,16.18,0,0,1,5,3.37,15.94,15.94,0,0,1,3.37,5,15,15,0,0,1,1.23,6v40.88H57.15V151.66a8.86,8.86,0,0,0-.69-3.48,8.51,8.51,0,0,0-1.91-2.84,9.92,9.92,0,0,0-2.84-1.91,8.17,8.17,0,0,0-3.44-.73,8.47,8.47,0,0,0-3.49.73,9.79,9.79,0,0,0-2.87,1.91A8.51,8.51,0,0,0,40,148.18a8.86,8.86,0,0,0-.69,3.48v40.88H32.57V151.66a9,9,0,0,0-.68-3.48A8.39,8.39,0,0,0,30,145.34a9.66,9.66,0,0,0-2.87-1.91,8.68,8.68,0,0,0-7,0,9.79,9.79,0,0,0-2.87,1.91,8.51,8.51,0,0,0-1.91,2.84,8.86,8.86,0,0,0-.69,3.48v40.88H8V151.66a15.18,15.18,0,0,1,1.22-6,16.35,16.35,0,0,1,3.33-5,15.65,15.65,0,0,1,5-3.37A15.44,15.44,0,0,1,23.62,136a15.16,15.16,0,0,1,6.93,1.61A16.29,16.29,0,0,1,35.94,142a15.56,15.56,0,0,1,12.33-6m0-1a16.54,16.54,0,0,0-7.42,1.71,16.78,16.78,0,0,0-4.92,3.72A17.29,17.29,0,0,0,31,136.76,16.19,16.19,0,0,0,23.62,135a16.48,16.48,0,0,0-11.78,4.89,17.34,17.34,0,0,0-3.53,5.28A16.14,16.14,0,0,0,7,151.66v40.88a1,1,0,0,0,1,1h6.66a1,1,0,0,0,1-1V151.66a8.08,8.08,0,0,1,.61-3.1,7.51,7.51,0,0,1,1.69-2.5,9,9,0,0,1,2.58-1.72,7.73,7.73,0,0,1,6.16,0,9.09,9.09,0,0,1,2.58,1.72,7.59,7.59,0,0,1,1.68,2.5,7.9,7.9,0,0,1,.61,3.1v40.88a1,1,0,0,0,1,1h6.74a1,1,0,0,0,1-1V151.66a8.08,8.08,0,0,1,.61-3.1,7.51,7.51,0,0,1,1.69-2.5,9,9,0,0,1,2.58-1.72,7.65,7.65,0,0,1,3.08-.64,7.32,7.32,0,0,1,3,.64,8.81,8.81,0,0,1,2.55,1.72,7.62,7.62,0,0,1,1.69,2.5,8.08,8.08,0,0,1,.61,3.1v40.88a1,1,0,0,0,1,1h6.74a1,1,0,0,0,1-1V151.66a16.14,16.14,0,0,0-1.31-6.45A17.12,17.12,0,0,0,60,139.93a16.88,16.88,0,0,0-5.29-3.58A16.12,16.12,0,0,0,48.27,135Z"/><path class="cls-3" d="M92.52,194a20,20,0,0,1-8-1.61A20.9,20.9,0,0,1,78,188a20.64,20.64,0,0,1-4.39-6.47A19.62,19.62,0,0,1,72,173.55,20.46,20.46,0,0,1,78,159a21.29,21.29,0,0,1,6.51-4.35,20.53,20.53,0,0,1,15.94,0A20.72,20.72,0,0,1,107,159a20.42,20.42,0,0,1,4.35,6.51,20.2,20.2,0,0,1,1.61,8v1.15c0,.43,0,1.12-.15,2.12a.52.52,0,0,1-.5.45h-32a12,12,0,0,0,1.53,3.28,13.83,13.83,0,0,0,2.81,3.1,12,12,0,0,0,3.64,2.06,12.51,12.51,0,0,0,4.31.74,7.36,7.36,0,0,0,3.44-.9,15.15,15.15,0,0,0,3.41-2.48.45.45,0,0,1,.34-.14.51.51,0,0,1,.36.15l4.59,4.59a.51.51,0,0,1,.15.36.48.48,0,0,1-.16.35,22.33,22.33,0,0,1-5.67,4A14.45,14.45,0,0,1,92.52,194Zm12.26-24.2a15.15,15.15,0,0,0-1.55-3.25,12,12,0,0,0-2.76-3.09,12.74,12.74,0,0,0-3.65-2,13.06,13.06,0,0,0-8.61,0,12.82,12.82,0,0,0-6.45,5.12,12.33,12.33,0,0,0-1.52,3.25Z"/><path class="cls-4" d="M92.52,153.57a19.55,19.55,0,0,1,7.77,1.57,20,20,0,0,1,6.31,4.25,20.06,20.06,0,0,1,5.82,14.16v1.15q0,.62-.15,2.07H79.58a12.61,12.61,0,0,0,1.76,4.06A14.85,14.85,0,0,0,84.25,184,12.52,12.52,0,0,0,88,186.18a13,13,0,0,0,4.48.77,7.86,7.86,0,0,0,3.67-1,15.08,15.08,0,0,0,3.52-2.56l4.6,4.59A21.72,21.72,0,0,1,98.76,192a13.91,13.91,0,0,1-6.24,1.5,19.48,19.48,0,0,1-7.77-1.57,20.15,20.15,0,0,1-10.64-10.61,19,19,0,0,1-1.57-7.73,19.92,19.92,0,0,1,5.85-14.16,20.5,20.5,0,0,1,6.36-4.25,19.48,19.48,0,0,1,7.77-1.57M79.58,170.26h25.87a15.11,15.11,0,0,0-1.79-4,13,13,0,0,0-2.87-3.21A13.37,13.37,0,0,0,97,160.92,13.28,13.28,0,0,0,84.25,163a13.57,13.57,0,0,0-2.91,3.21,13.1,13.1,0,0,0-1.76,4m12.94-17.69a20.6,20.6,0,0,0-8.17,1.65,21.69,21.69,0,0,0-6.66,4.46,20.91,20.91,0,0,0-6.15,14.87,20.1,20.1,0,0,0,1.65,8.13,21.23,21.23,0,0,0,11.16,11.13,20.6,20.6,0,0,0,8.17,1.65,15,15,0,0,0,6.68-1.6,22.91,22.91,0,0,0,5.8-4.12,1,1,0,0,0,.31-.71,1,1,0,0,0-.3-.72l-4.59-4.59a1,1,0,0,0-.71-.29,1,1,0,0,0-.69.28,14.67,14.67,0,0,1-3.29,2.4,6.9,6.9,0,0,1-3.21.84,12,12,0,0,1-7.64-2.68,13.62,13.62,0,0,1-2.71-3,11.69,11.69,0,0,1-1.25-2.5h31.35a1,1,0,0,0,1-.9c.11-1,.16-1.72.16-2.17v-1.15a20.71,20.71,0,0,0-1.65-8.2,21.1,21.1,0,0,0-4.46-6.67,21.49,21.49,0,0,0-6.63-4.46,20.59,20.59,0,0,0-8.16-1.65ZM80.93,169.26a12.39,12.39,0,0,1,7.45-7.4,12.56,12.56,0,0,1,8.27,0,12.38,12.38,0,0,1,3.51,1.95,12,12,0,0,1,2.65,3,13.4,13.4,0,0,1,1.25,2.48Z"/><path class="cls-3" d="M138.83,193.73a19.69,19.69,0,0,1-7.93-1.61,21.47,21.47,0,0,1-6.47-4.35,20.35,20.35,0,0,1-4.39-6.48,20.53,20.53,0,0,1,0-15.94,20.7,20.7,0,0,1,4.39-6.51,21.1,21.1,0,0,1,6.47-4.39,20.42,20.42,0,0,1,15.43-.19,21.5,21.5,0,0,1,5.4,3.14v-21a.5.5,0,0,1,.5-.5h6.51a.51.51,0,0,1,.5.5v36.9a20,20,0,0,1-1.61,8,20.4,20.4,0,0,1-10.83,10.83A20,20,0,0,1,138.83,193.73Zm0-33.3a12.8,12.8,0,0,0-5,1,12.42,12.42,0,0,0-4.08,2.76,13.76,13.76,0,0,0-2.78,4.14,12.79,12.79,0,0,0,0,10,13,13,0,0,0,6.87,6.86,12.68,12.68,0,0,0,10,0,13.91,13.91,0,0,0,4.14-2.77,12.46,12.46,0,0,0,2.76-4.09,13.17,13.17,0,0,0,0-10,12.8,12.8,0,0,0-6.9-6.89A12.8,12.8,0,0,0,138.83,160.43Z"/><path class="cls-4" d="M158.74,136.42v36.9a19.48,19.48,0,0,1-1.57,7.77,19.81,19.81,0,0,1-10.57,10.57,19.48,19.48,0,0,1-7.77,1.57,19.25,19.25,0,0,1-7.73-1.57,20.79,20.79,0,0,1-6.32-4.25,19.67,19.67,0,0,1-4.28-6.32,20,20,0,0,1,0-15.54,20.14,20.14,0,0,1,4.28-6.35,20.55,20.55,0,0,1,6.32-4.29,19.93,19.93,0,0,1,15-.19,21,21,0,0,1,6.09,3.75V136.42h6.51m-19.91,50.3a12.92,12.92,0,0,0,5.21-1.07,14.41,14.41,0,0,0,4.29-2.87,13,13,0,0,0,2.87-4.25,13.67,13.67,0,0,0,0-10.41A13.27,13.27,0,0,0,144,161a13.67,13.67,0,0,0-10.41,0,12.92,12.92,0,0,0-4.25,2.87,14.1,14.1,0,0,0-2.87,4.29,13.19,13.19,0,0,0,0,10.41,13.48,13.48,0,0,0,7.12,7.12,12.91,12.91,0,0,0,5.2,1.07m19.91-51.3h-6.51a1,1,0,0,0-1,1v20a22.66,22.66,0,0,0-4.71-2.6,21,21,0,0,0-15.82.2,21.62,21.62,0,0,0-6.62,4.5,21.27,21.27,0,0,0-4.5,6.67,21,21,0,0,0,0,16.33,20.92,20.92,0,0,0,4.5,6.63,21.66,21.66,0,0,0,6.62,4.45,20.17,20.17,0,0,0,8.13,1.66,20.6,20.6,0,0,0,8.17-1.65,21.49,21.49,0,0,0,6.63-4.46,21.14,21.14,0,0,0,4.46-6.63,20.6,20.6,0,0,0,1.65-8.17v-36.9a1,1,0,0,0-1-1Zm-19.91,50.3a11.82,11.82,0,0,1-4.8-1,12.55,12.55,0,0,1-6.61-6.6,12.27,12.27,0,0,1,0-9.61,13.3,13.3,0,0,1,2.67-4,12.06,12.06,0,0,1,3.93-2.65,12.44,12.44,0,0,1,16.26,16.26,12.12,12.12,0,0,1-2.65,3.92,13.23,13.23,0,0,1-4,2.67,11.87,11.87,0,0,1-4.81,1Z"/><path class="cls-3" d="M166,193a.5.5,0,0,1-.5-.5V136.65a.5.5,0,0,1,.5-.5h34.68a.5.5,0,0,1,.5.5v6.74a.5.5,0,0,1-.5.5H173.17v16.84h24a.5.5,0,0,1,.5.5V168a.5.5,0,0,1-.5.5h-24v16.92h27.52a.5.5,0,0,1,.5.5v6.66a.5.5,0,0,1-.5.5Z"/><path class="cls-4" d="M200.69,136.65v6.74h-28v17.84h24.5V168h-24.5v17.92h28v6.66H166V136.65h34.68m0-1H166a1,1,0,0,0-1,1v55.89a1,1,0,0,0,1,1h34.68a1,1,0,0,0,1-1v-6.66a1,1,0,0,0-1-1h-27V169h23.5a1,1,0,0,0,1-1v-6.73a1,1,0,0,0-1-1h-23.5V144.39h27a1,1,0,0,0,1-1v-6.74a1,1,0,0,0-1-1Z"/><path class="cls-3" d="M240.12,193a.52.52,0,0,1-.44-.25l-11.74-20.46q-2.85,4.92-5.77,9.93c-2,3.53-4.08,7.07-6,10.53a.52.52,0,0,1-.44.25H208a.5.5,0,0,1-.43-.25.5.5,0,0,1,0-.5l15.85-27.62-1.08-1.85c-.41-.69-.82-1.39-1.23-2.11-1.63-3-3.33-5.92-5-8.8s-3.44-5.88-5.07-8.82l-3.59-6.19a.5.5,0,0,1,0-.5.52.52,0,0,1,.44-.25h7.65a.5.5,0,0,1,.43.25l12,20.69c1.39-2.42,2.81-4.88,4.24-7.4q2.37-4.17,4.67-8.16.6-1.07,1.41-2.55c.54-1,1-1.86,1.42-2.57a.51.51,0,0,1,.44-.26H248a.5.5,0,0,1,.43.25.5.5,0,0,1,0,.5l-13.78,23.81c-.45.81-.85,1.52-1.18,2.13l-1.05,1.91,3.76,6.52q2.07,3.57,4.14,7.2c1.38,2.43,2.74,4.81,4.1,7.16s2.63,4.56,3.86,6.66a.5.5,0,0,1,0,.5.5.5,0,0,1-.43.25Z"/><path class="cls-4" d="M248,136.65l-13.78,23.81c-.46.82-.85,1.53-1.19,2.15s-.72,1.32-1.18,2.14q1.83,3.21,3.9,6.77t4.14,7.2c1.37,2.43,2.74,4.81,4.09,7.16s2.64,4.57,3.87,6.66h-7.73l-12.18-21.21L221.74,182q-3.13,5.4-6.05,10.53H208l16-27.87-1.23-2.1c-.41-.69-.81-1.39-1.22-2.11q-2.46-4.44-5.05-8.8t-5.06-8.81l-3.59-6.2h7.65l12.4,21.44q2.3-4,4.67-8.15c1.58-2.79,3.14-5.5,4.67-8.16.41-.71.88-1.57,1.42-2.56s1-1.85,1.42-2.57H248m0-1h-7.88a1,1,0,0,0-.87.51c-.43.74-.91,1.61-1.43,2.58s-1,1.83-1.41,2.55q-2.29,4-4.67,8.15-1.92,3.39-3.8,6.65l-11.53-19.94a1,1,0,0,0-.87-.5h-7.65a1,1,0,0,0-.87,1.51l3.6,6.2c1.61,2.92,3.32,5.89,5.06,8.81s3.41,5.83,5,8.78l1.24,2.13.94,1.59L207.17,192a1,1,0,0,0,0,1,1,1,0,0,0,.87.5h7.65a1,1,0,0,0,.87-.51c2-3.45,4-7,6.05-10.51l5.33-9.19L239.25,193a1,1,0,0,0,.87.5h7.73a1,1,0,0,0,.86-.5,1,1,0,0,0,0-1q-1.83-3.14-3.86-6.65c-1.35-2.35-2.72-4.73-4.09-7.15s-2.8-4.9-4.14-7.21-2.48-4.28-3.62-6.28c.34-.61.65-1.17.91-1.66s.72-1.32,1.18-2.13l13.78-23.8a1,1,0,0,0,0-1,1,1,0,0,0-.87-.5Z"/></g></svg>