<svg xmlns="http://www.w3.org/2000/svg" viewBox="0 0 256 256"><defs><style>.cls-1{fill:#f31000;}.cls-2{fill:#006dc2;}.cls-3{fill:#00007f;}</style></defs><g id="Vehicle"><path d="M205.42,129.23V122.3c-1,0-2,0-3,0a2,2,0,0,1-1.9-1.7,2,2,0,0,1,.83-1.95,4.59,4.59,0,0,1,2.29-.38c.54,0,.39-.49.39-.86s0-1,0-1.54c0-1,.07-2.09.08-3.13a18.84,18.84,0,0,0-.79-6.2c-1.81-5.38-5.61-8.62-11.1-9.92a4.34,4.34,0,0,0-1-.05h-18c-1.86,0-2.41-.51-2.6-2.37a4.08,4.08,0,0,0-3.74-3.7c-1.07-.09-2.16,0-3.24-.07a2,2,0,0,1-2.23-2.22c0-3.1,0-6.21,0-9.31a2,2,0,1,1,4,0c0,2.16,0,4.33,0,6.49v1c.37,0,.67,0,1,0a8.11,8.11,0,0,1,7.78,5.46c.14.39.24.7.79.7,4,0,8,0,12,0a5.46,5.46,0,0,0,.64-.1c-.5-1.28-.93-2.5-1.45-3.69a39.13,39.13,0,0,0-9.91-14.14A26.83,26.83,0,0,0,158,67.85q-36.12,0-72.25,0a8.81,8.81,0,0,1-1,0,2,2,0,0,1-.16-3.92,6.9,6.9,0,0,1,1-.06h71.74a31.92,31.92,0,0,1,17.18,4.54A36.69,36.69,0,0,1,186.64,81a46.49,46.49,0,0,1,4.89,10.77c.2.63.63.73,1.13.84a19.39,19.39,0,0,1,8.76,4.18A18.51,18.51,0,0,1,208,110.84c.06,2.25,0,4.5,0,6.75a1,1,0,0,0,.52,1,1.83,1.83,0,0,1,.93,1.72c0,3.61,0,7.23,0,10.84a1.92,1.92,0,0,1-2.12,2.05q-4.81,0-9.65,0a2,2,0,0,1-2.08-2,2,2,0,0,1,2.1-2c2.19,0,4.38,0,6.57,0Z"/><path d="M148.87,88.39c0,3.16,0,6.31,0,9.47a2,2,0,0,1-2.24,2.2H137v2.07c0,2.54,0,5.07,0,7.61a2,2,0,0,1-2.17,2.17h-9.57a2,2,0,0,1-2.21-2.2c0-2.88,0-5.75,0-8.63,0-.31,0-.62,0-1h-9.44a2.1,2.1,0,0,1-2.41-2.4V88.52c0-1.65.76-2.41,2.39-2.41,2.79,0,5.58,0,8.37,0H123c0-.38.05-.69.05-1,0-2.81,0-5.63,0-8.44,0-1.75.53-2.38,2.24-2.41,3.28,0,6.55,0,9.82,0a2,2,0,0,1,1.89,2.2c0,2.84,0,5.68,0,8.54v1.13h1.17c2.78,0,5.57,0,8.36,0C148.13,86.11,148.86,86.83,148.87,88.39ZM144,96.06c.77,0,1-.24,1-1-.06-1.39-.06-2.79,0-4.18,0-.67-.23-.81-.84-.81-2.89,0-5.75,0-8.64,0-1.72,0-2.42-.74-2.42-2.46,0-2.78,0-5.57,0-8.36,0-.34,0-.66,0-1h-5.87v9c0,2.16-.63,2.82-2.77,2.82h-9.12c0,1.71,0,3.41,0,5.12,0,.66.2.83.83.83,2.87,0,5.75,0,8.62,0,1.69,0,2.45.76,2.45,2.44V107c0,.29,0,.6.05.92H133V98.51c0-1.74.72-2.46,2.49-2.46C138.31,96.05,141.13,96,144,96.06Z"/><path class="cls-1" d="M144.9,95.09c0,.73-.18,1-1,1-2.82,0-5.64,0-8.46,0-1.77,0-2.49.72-2.49,2.46v9.36h-5.88c0-.32-.05-.63-.05-.92V98.49c0-1.68-.76-2.44-2.45-2.44-2.87,0-5.75,0-8.62,0-.63,0-.84-.17-.83-.83,0-1.71,0-3.41,0-5.12h9.12c2.14,0,2.77-.66,2.77-2.82v-9h5.87c0,.34,0,.66,0,1,0,2.79,0,5.58,0,8.36,0,1.72.7,2.45,2.42,2.46,2.89,0,5.75,0,8.64,0,.61,0,.86.14.84.81C144.84,92.3,144.84,93.7,144.9,95.09Z"/><path d="M178.29,141.14a13.86,13.86,0,1,1,0-27.72c7.89.1,14.11,6.11,13.86,14.23A13.79,13.79,0,0,1,178.29,141.14Zm-.09-23.67a9.84,9.84,0,0,0-.07,19.67,9.84,9.84,0,1,0,.07-19.67Z"/><path d="M113.69,127.39a13.86,13.86,0,1,1-13.81-14A13.79,13.79,0,0,1,113.69,127.39Zm-23.71,0a9.86,9.86,0,1,0,9.77-9.91A9.88,9.88,0,0,0,90,127.34Z"/><path d="M138.67,133.25h-19.2a2.08,2.08,0,0,1-2.13-1.25,2,2,0,0,1,1.29-2.65,5.6,5.6,0,0,1,1.36-.12h38.24a2.08,2.08,0,0,1,2,2.06,2,2,0,0,1-2.07,2c-2.39,0-4.78,0-7.17,0Z"/><path d="M76.12,129.23c1.19,0,2.35,0,3.51,0a2,2,0,0,1,2.12,2.06,1.91,1.91,0,0,1-1.88,1.93q-3,.06-5.89,0a1.89,1.89,0,0,1-1.94-2q-.06-5.46,0-10.93a2,2,0,0,1,2.07-2c.56,0,1.13,0,1.82,0v-1c0-1.73,0-3.47,0-5.2a2,2,0,0,1,2-2.24,2,2,0,0,1,2,2.27Q80,116,80,120a2.05,2.05,0,0,1-2.31,2.32H76.12Z"/><path d="M120.82,56a9.34,9.34,0,0,1,5.8-9.33,9.24,9.24,0,0,1,12.6,7.92c.06.94.05,1.88,0,2.82a2,2,0,1,1-4,0c0-.68,0-1.37,0-2a5.19,5.19,0,1,0-10.38-.07c0,.74,0,1.48,0,2.22a1.93,1.93,0,0,1-2,2,2,2,0,0,1-1.94-2.06C120.81,56.9,120.82,56.42,120.82,56Z"/><path d="M82.51,82c3.32,0,6.65,0,10,0a2,2,0,0,1,2,1.11,2,2,0,0,1-1.14,2.77,3.42,3.42,0,0,1-1,.14H72.84c-.23,0-.46,0-.68,0a2,2,0,0,1-1.87-2.06,2,2,0,0,1,2-1.93c2.5,0,5,0,7.51,0Z"/><path d="M127.36,122.31h-7.85a2,2,0,1,1,0-4l13.22,0c.85,0,1.7-.07,2.55-.06a2,2,0,1,1,0,4C132.65,122.32,130,122.31,127.36,122.31Z"/><path d="M66.84,67.83c-2.5,0-5,0-7.51,0a1.91,1.91,0,0,1-1.88-1.45,1.93,1.93,0,0,1,.86-2.21,2.6,2.6,0,0,1,1.21-.32q7.38,0,14.76,0a2,2,0,1,1,0,4H66.84Z"/><path d="M66.48,100.15c1.42,0,2.84,0,4.27,0a2,2,0,1,1,0,4q-4.36,0-8.71,0a2,2,0,0,1-2.23-2,2,2,0,0,1,2.29-2c1.45,0,2.91,0,4.36,0Z"/><path d="M84.63,100.14c1,0,2,0,3,0a2,2,0,0,1,2.09,1.93,2,2,0,0,1-2,2.09q-3.12.06-6.24,0a2,2,0,1,1,.11-4c1,0,2,0,3.07,0Z"/><path d="M58.66,82c1,0,2.05,0,3.07,0a2,2,0,1,1,.05,4c-2.08,0-4.15.05-6.23,0a2,2,0,0,1-2.08-2,2,2,0,0,1,2.12-2C56.61,82,57.64,82,58.66,82Z"/><path d="M128,36.57c0-.85,0-1.7,0-2.55a2,2,0,1,1,4,0c0,1.73,0,3.46,0,5.19a2,2,0,1,1-4-.07C128,38.27,128,37.42,128,36.57Z"/><path d="M118.41,46a4.67,4.67,0,0,1-1.18-.69c-1.24-1.16-2.44-2.37-3.62-3.59a2,2,0,0,1,0-2.91,2,2,0,0,1,2.84,0c1.29,1.23,2.55,2.5,3.79,3.79a1.88,1.88,0,0,1,.35,2.21A2.07,2.07,0,0,1,118.41,46Z"/><path d="M148.68,57.23c-.88,0-1.77,0-2.65,0A2,2,0,0,1,144,55.27a2,2,0,0,1,2-2c1.79,0,3.59,0,5.38,0a2,2,0,1,1-.09,4c-.85,0-1.71,0-2.56,0Z"/><path d="M111.38,57.23c-.88,0-1.76,0-2.64,0a2,2,0,0,1-2-1.85,1.87,1.87,0,0,1,1.7-2.08c2-.1,3.93-.11,5.88,0a1.87,1.87,0,0,1,1.72,2.08,1.94,1.94,0,0,1-2,1.87c-.91,0-1.82,0-2.73,0Z"/><path d="M141.52,46a2,2,0,0,1-2-1.1,1.72,1.72,0,0,1,.18-2.07c1.35-1.45,2.75-2.87,4.21-4.21a2,2,0,0,1,2.72,2.82c-1.33,1.43-2.73,2.8-4.15,4.15A2.78,2.78,0,0,1,141.52,46Z"/></g><g id="Text"><path class="cls-2" d="M61.85,210.16a.51.51,0,0,1-.5-.5V170.6a7.88,7.88,0,0,0-.62-3.13A7.35,7.35,0,0,0,59,164.93a9.17,9.17,0,0,0-2.57-1.74,7.42,7.42,0,0,0-3.08-.64,7.77,7.77,0,0,0-3.13.65,8.77,8.77,0,0,0-2.59,1.73,7.51,7.51,0,0,0-1.72,2.54,8.06,8.06,0,0,0-.62,3.13v39.06a.5.5,0,0,1-.5.5H38.38a.5.5,0,0,1-.5-.5V170.6a8.09,8.09,0,0,0-.62-3.13,7.51,7.51,0,0,0-1.72-2.54A8.77,8.77,0,0,0,33,163.2a7.86,7.86,0,0,0-6.26,0,8.64,8.64,0,0,0-2.59,1.73,7.51,7.51,0,0,0-1.72,2.54,8.06,8.06,0,0,0-.62,3.13v39.06a.5.5,0,0,1-.5.5H14.9a.5.5,0,0,1-.5-.5V170.6a15,15,0,0,1,1.21-6,15.92,15.92,0,0,1,3.29-4.91,15.08,15.08,0,0,1,4.91-3.33,15.33,15.33,0,0,1,6-1.21,15,15,0,0,1,6.84,1.59,16.22,16.22,0,0,1,4.93,3.83,15.34,15.34,0,0,1,11.78-5.42,15.11,15.11,0,0,1,6,1.21,15.69,15.69,0,0,1,8.23,8.24,15,15,0,0,1,1.21,6v39.06a.5.5,0,0,1-.5.5Z"/><path class="cls-3" d="M53.37,155.68a14.43,14.43,0,0,1,5.78,1.17,15.22,15.22,0,0,1,8,8,14.43,14.43,0,0,1,1.17,5.78v39.06H61.85V170.6a8.71,8.71,0,0,0-.65-3.33,8.17,8.17,0,0,0-1.83-2.7,9.25,9.25,0,0,0-2.71-1.83,7.92,7.92,0,0,0-3.29-.69,8.21,8.21,0,0,0-3.33.69,9.13,9.13,0,0,0-2.74,1.83,8.17,8.17,0,0,0-1.83,2.7,8.53,8.53,0,0,0-.66,3.33v39.06H38.38V170.6a8.53,8.53,0,0,0-.66-3.33,8.17,8.17,0,0,0-1.83-2.7,9.13,9.13,0,0,0-2.74-1.83,8.38,8.38,0,0,0-6.66,0,9.13,9.13,0,0,0-2.74,1.83,8.17,8.17,0,0,0-1.83,2.7,8.53,8.53,0,0,0-.66,3.33v39.06H14.9V170.6a14.43,14.43,0,0,1,1.17-5.78,15.59,15.59,0,0,1,3.18-4.75,14.83,14.83,0,0,1,10.57-4.39,14.37,14.37,0,0,1,6.62,1.54,15.58,15.58,0,0,1,5.16,4.17,14.82,14.82,0,0,1,11.77-5.71m0-1a15.7,15.7,0,0,0-7.1,1.64,16,16,0,0,0-4.69,3.53,16.6,16.6,0,0,0-4.69-3.52,15.49,15.49,0,0,0-7.07-1.65,15.78,15.78,0,0,0-11.28,4.69,16.71,16.71,0,0,0-3.39,5.06,15.43,15.43,0,0,0-1.25,6.17v39.06a1,1,0,0,0,1,1h6.36a1,1,0,0,0,1-1V170.6a7.67,7.67,0,0,1,.58-2.94,7.16,7.16,0,0,1,1.61-2.37,8.42,8.42,0,0,1,2.45-1.64,7.41,7.41,0,0,1,5.84,0,8.6,8.6,0,0,1,2.46,1.64,7.4,7.4,0,0,1,1.6,2.37,7.67,7.67,0,0,1,.58,2.94v39.06a1,1,0,0,0,1,1h6.43a1,1,0,0,0,1-1V170.6a7.67,7.67,0,0,1,.58-2.94A7.06,7.06,0,0,1,48,165.29a8.42,8.42,0,0,1,2.45-1.64,7.2,7.2,0,0,1,2.92-.6,7,7,0,0,1,2.88.6,8.47,8.47,0,0,1,2.42,1.64,7.09,7.09,0,0,1,1.6,2.37,7.49,7.49,0,0,1,.58,2.94v39.06a1,1,0,0,0,1,1h6.44a1,1,0,0,0,1-1V170.6A15.47,15.47,0,0,0,68,164.43a16.18,16.18,0,0,0-8.49-8.5,15.55,15.55,0,0,0-6.18-1.25Z"/><path class="cls-2" d="M95.64,211A19,19,0,0,1,88,209.49a19.62,19.62,0,0,1-6.22-4.2,20,20,0,0,1-4.2-6.18,18.77,18.77,0,0,1-1.55-7.59,19.49,19.49,0,0,1,5.75-13.89A20.2,20.2,0,0,1,88,173.47a19.62,19.62,0,0,1,15.24,0,19.33,19.33,0,0,1,10.36,10.39,19.45,19.45,0,0,1,1.54,7.66v1.1c0,.4,0,1.07-.15,2a.5.5,0,0,1-.5.45H83.93a11.88,11.88,0,0,0,1.45,3.1,13.51,13.51,0,0,0,2.68,3,11.85,11.85,0,0,0,7.58,2.67,7,7,0,0,0,3.28-.86,14.09,14.09,0,0,0,3.25-2.37.52.52,0,0,1,.35-.14.49.49,0,0,1,.35.15l4.39,4.39a.51.51,0,0,1,.15.36.48.48,0,0,1-.16.35,21.44,21.44,0,0,1-5.43,3.86A13.83,13.83,0,0,1,95.64,211Zm11.68-23.16a13.94,13.94,0,0,0-1.46-3.07,11.77,11.77,0,0,0-2.63-2.94,12.46,12.46,0,0,0-3.48-1.94,12.24,12.24,0,0,0-14.37,4.89,12.39,12.39,0,0,0-1.44,3.06Z"/><path class="cls-3" d="M95.64,172.43a18.55,18.55,0,0,1,7.43,1.5,18.86,18.86,0,0,1,10.09,10.13,18.8,18.8,0,0,1,1.5,7.46v1.1c0,.39,0,1-.15,2H83.28A11.75,11.75,0,0,0,85,198.47a13.75,13.75,0,0,0,2.77,3.07,12.43,12.43,0,0,0,3.62,2.05,12.62,12.62,0,0,0,4.28.73,7.54,7.54,0,0,0,3.51-.92,14.8,14.8,0,0,0,3.37-2.45l4.39,4.39a20.83,20.83,0,0,1-5.31,3.77,13.29,13.29,0,0,1-6,1.42A18.66,18.66,0,0,1,88.22,209a19.37,19.37,0,0,1-10.17-10.13,18.29,18.29,0,0,1-1.5-7.39A19,19,0,0,1,82.15,178a19.53,19.53,0,0,1,6.07-4.06,18.5,18.5,0,0,1,7.42-1.5M83.28,188.37H108a14.72,14.72,0,0,0-1.72-3.84,12.4,12.4,0,0,0-2.74-3.07,12.9,12.9,0,0,0-3.62-2,12.91,12.91,0,0,0-8.56,0A12.6,12.6,0,0,0,85,184.53a12.41,12.41,0,0,0-1.69,3.84m12.36-16.94A19.66,19.66,0,0,0,87.82,173a20.72,20.72,0,0,0-6.37,4.27,20,20,0,0,0-5.9,14.24,19.38,19.38,0,0,0,1.59,7.79A20.23,20.23,0,0,0,87.82,210a19.62,19.62,0,0,0,7.82,1.58,14.32,14.32,0,0,0,6.41-1.53,21.86,21.86,0,0,0,5.55-3.94,1.05,1.05,0,0,0,.31-.71,1,1,0,0,0-.3-.72l-4.39-4.38a1,1,0,0,0-.7-.3,1,1,0,0,0-.69.28,14,14,0,0,1-3.14,2.29,6.59,6.59,0,0,1-3,.8,11.59,11.59,0,0,1-3.93-.67,11.28,11.28,0,0,1-3.33-1.89,13,13,0,0,1-2.58-2.85,10.74,10.74,0,0,1-1.17-2.32h29.88a1,1,0,0,0,1-.9c.1-1,.15-1.65.15-2.07v-1.1a19.8,19.8,0,0,0-1.58-7.85A19.8,19.8,0,0,0,103.46,173a19.59,19.59,0,0,0-7.82-1.58Zm-11,15.94a12.32,12.32,0,0,1,1.16-2.29,11.81,11.81,0,0,1,2.57-2.83,11.78,11.78,0,0,1,11.21-1.86,11.85,11.85,0,0,1,3.34,1.86,11.35,11.35,0,0,1,2.52,2.82,14.21,14.21,0,0,1,1.17,2.3Z"/><path class="cls-2" d="M139.89,210.81a18.76,18.76,0,0,1-7.59-1.54,20,20,0,0,1-6.18-4.16,19.27,19.27,0,0,1-4.2-6.19,19.51,19.51,0,0,1,0-15.24,19.8,19.8,0,0,1,10.38-10.43,18.93,18.93,0,0,1,7.59-1.54,19.13,19.13,0,0,1,7.17,1.35,20.92,20.92,0,0,1,5.13,3v-20a.5.5,0,0,1,.5-.5h6.22a.5.5,0,0,1,.5.5V191.3a19.15,19.15,0,0,1-1.54,7.62,19.8,19.8,0,0,1-4.17,6.19,19.38,19.38,0,0,1-6.19,4.16A19,19,0,0,1,139.89,210.81Zm0-31.81a12.21,12.21,0,0,0-4.78.95,11.78,11.78,0,0,0-3.89,2.63,13.17,13.17,0,0,0-2.65,3.95,12.1,12.1,0,0,0,0,9.54,12.54,12.54,0,0,0,2.64,3.91,12.89,12.89,0,0,0,3.91,2.64,12.1,12.1,0,0,0,9.54,0,13.17,13.17,0,0,0,4-2.65,11.78,11.78,0,0,0,2.63-3.89,12.39,12.39,0,0,0-2.63-13.5,12.48,12.48,0,0,0-3.94-2.63A12.21,12.21,0,0,0,139.89,179Z"/><path class="cls-3" d="M158.91,156.05V191.3a18.5,18.5,0,0,1-1.5,7.42,18.92,18.92,0,0,1-10.1,10.1,19,19,0,0,1-14.81,0,19.88,19.88,0,0,1-6-4.06,18.94,18.94,0,0,1-4.1-6,19.22,19.22,0,0,1,0-14.84,19.37,19.37,0,0,1,10.13-10.17,19.06,19.06,0,0,1,14.38-.18,20.24,20.24,0,0,1,5.81,3.58V156.05h6.22m-19,48a12.12,12.12,0,0,0,5-1,13.46,13.46,0,0,0,4.1-2.74,12.28,12.28,0,0,0,2.74-4.06,13,13,0,0,0,0-9.94,12.64,12.64,0,0,0-6.84-6.84,13,13,0,0,0-9.94,0,12.28,12.28,0,0,0-4.06,2.74,13.46,13.46,0,0,0-2.74,4.1,12.51,12.51,0,0,0,0,9.94,12.85,12.85,0,0,0,6.8,6.8,12.16,12.16,0,0,0,5,1m19-49h-6.22a1,1,0,0,0-1,1v19a21,21,0,0,0-4.44-2.44,19.55,19.55,0,0,0-7.36-1.39,19.29,19.29,0,0,0-7.78,1.58,20.63,20.63,0,0,0-6.35,4.31,20.33,20.33,0,0,0-4.3,6.38,20.14,20.14,0,0,0,0,15.64,19.83,19.83,0,0,0,4.31,6.35,20.79,20.79,0,0,0,6.34,4.26,19.33,19.33,0,0,0,7.78,1.59,19.59,19.59,0,0,0,7.82-1.59,20.22,20.22,0,0,0,6.35-4.27,20.52,20.52,0,0,0,4.27-6.34,19.76,19.76,0,0,0,1.58-7.82V156.05a1,1,0,0,0-1-1Zm-19,48a11.36,11.36,0,0,1-4.57-.94,12,12,0,0,1-6.29-6.29,11.58,11.58,0,0,1,0-9.14,12.78,12.78,0,0,1,2.54-3.8,11.37,11.37,0,0,1,3.74-2.52,12,12,0,0,1,9.17,0,11.9,11.9,0,0,1,3.77,2.53,11.52,11.52,0,0,1,2.53,3.78,12,12,0,0,1,0,9.16,11.37,11.37,0,0,1-2.52,3.74,12.65,12.65,0,0,1-3.8,2.54,11.36,11.36,0,0,1-4.57.94Z"/><path class="cls-2" d="M165.85,210.16a.51.51,0,0,1-.5-.5V156.27a.5.5,0,0,1,.5-.5H199a.5.5,0,0,1,.5.5v6.43a.5.5,0,0,1-.5.5H172.72v16h22.9a.5.5,0,0,1,.5.5v6.44a.5.5,0,0,1-.5.5h-22.9v16.11H199a.51.51,0,0,1,.5.5v6.37a.51.51,0,0,1-.5.5Z"/><path class="cls-3" d="M199,156.27v6.43H172.22v17h23.4v6.44h-23.4v17.11H199v6.37H165.85V156.27H199m0-1H165.85a1,1,0,0,0-1,1v53.39a1,1,0,0,0,1,1H199a1,1,0,0,0,1-1v-6.37a1,1,0,0,0-1-1H173.22V187.18h22.4a1,1,0,0,0,1-1v-6.44a1,1,0,0,0-1-1h-22.4v-15H199a1,1,0,0,0,1-1v-6.43a1,1,0,0,0-1-1Z"/><path class="cls-2" d="M236.65,210.16a.49.49,0,0,1-.43-.25L225,190.4l-5.49,9.45q-3,5.16-5.78,10.05a.49.49,0,0,1-.43.26H206a.52.52,0,0,1-.44-.25.5.5,0,0,1,0-.5L220.71,183c-.34-.6-.68-1.18-1-1.76s-.78-1.33-1.17-2c-1.57-2.83-3.19-5.65-4.83-8.4s-3.28-5.62-4.83-8.43l-3.43-5.91a.5.5,0,0,1,0-.5.48.48,0,0,1,.43-.25h7.31a.5.5,0,0,1,.44.25L225,175.75c1.32-2.3,2.67-4.64,4-7q2.26-4,4.46-7.79c.39-.68.84-1.49,1.35-2.44s1-1.77,1.35-2.46a.5.5,0,0,1,.44-.25h7.53a.5.5,0,0,1,.44.25.55.55,0,0,1,0,.5l-13.17,22.74c-.43.77-.81,1.46-1.12,2l-1,1.81c1.12,2,2.32,4,3.58,6.22s2.64,4.56,4,6.88,2.61,4.59,3.91,6.83,2.52,4.37,3.69,6.36a.51.51,0,0,1-.43.76Z"/><path class="cls-3" d="M244.18,156.27,231,179c-.44.78-.82,1.46-1.14,2.05s-.69,1.27-1.13,2.05c1.17,2,2.41,4.2,3.73,6.47s2.63,4.56,4,6.88,2.62,4.59,3.91,6.83,2.53,4.37,3.7,6.37h-7.39L225,189.4q-2.93,5-5.92,10.2t-5.78,10.06H206L221.29,183c-.39-.69-.78-1.36-1.17-2s-.78-1.32-1.17-2q-2.34-4.23-4.83-8.41t-4.82-8.41l-3.44-5.92h7.31L225,176.75q2.19-3.81,4.46-7.79t4.46-7.79c.39-.69.84-1.5,1.36-2.45s1-1.77,1.35-2.45h7.53m0-1h-7.53a1,1,0,0,0-.87.5c-.4.71-.86,1.54-1.36,2.47s-.95,1.75-1.34,2.43q-2.21,3.81-4.47,7.79c-1.21,2.14-2.41,4.23-3.59,6.29l-11-19a1,1,0,0,0-.87-.5h-7.31a1,1,0,0,0-.87.5,1,1,0,0,0,0,1l3.44,5.92c1.54,2.79,3.17,5.63,4.83,8.42s3.26,5.57,4.82,8.39c.39.7.79,1.37,1.18,2l.88,1.5-15,26.12a1,1,0,0,0,0,1,1,1,0,0,0,.87.5h7.31a1,1,0,0,0,.87-.51c1.87-3.3,3.81-6.68,5.77-10.05l5.06-8.7,10.76,18.75a1,1,0,0,0,.87.51H244a1,1,0,0,0,.86-.51,1,1,0,0,0,0-1q-1.76-3-3.69-6.35c-1.29-2.25-2.59-4.52-3.91-6.84s-2.67-4.68-4-6.88-2.36-4.08-3.45-6l.86-1.56c.32-.59.69-1.26,1.13-2l13.16-22.73a1,1,0,0,0,0-1,1,1,0,0,0-.87-.5Z"/></g></svg>