<svg xmlns="http://www.w3.org/2000/svg" viewBox="0 0 800 200.15"><defs><style>.cls-1{fill:#e6e6e6;}.cls-2{fill:#f31000;}.cls-3{fill:#006dc2;}.cls-4{fill:#00007f;}</style></defs><g id="vehicle"><path class="cls-1" d="M231.26,158.41V148.9c-1.41,0-2.8,0-4.18,0a2.67,2.67,0,0,1-2.62-2.33,2.74,2.74,0,0,1,1.15-2.68,6.09,6.09,0,0,1,3.13-.52c.75,0,.54-.67.54-1.19q0-1,0-2.1c0-1.44.1-2.88.11-4.31a26.09,26.09,0,0,0-1.08-8.52c-2.49-7.39-7.72-11.84-15.26-13.63a6.51,6.51,0,0,0-1.4-.07H186.92c-2.55,0-3.3-.69-3.57-3.25a5.59,5.59,0,0,0-5.13-5.09c-1.48-.12-3-.07-4.46-.1a2.78,2.78,0,0,1-3.06-3q0-6.39,0-12.78a2.77,2.77,0,1,1,5.53-.05c0,3,0,6,0,8.92v1.4c.51,0,.92.06,1.34.07a11.13,11.13,0,0,1,10.69,7.51c.2.53.33,1,1.08,1,5.52,0,11,0,16.55,0a6.86,6.86,0,0,0,.88-.13c-.69-1.77-1.29-3.44-2-5.07a53.67,53.67,0,0,0-13.63-19.42,36.82,36.82,0,0,0-25-9.32q-49.64-.06-99.27,0c-.47,0-.94,0-1.4,0a2.72,2.72,0,0,1-.23-5.39,9.32,9.32,0,0,1,1.4-.09q49.29,0,98.57,0a43.9,43.9,0,0,1,23.6,6.24,50.73,50.73,0,0,1,16.69,17.31,64.45,64.45,0,0,1,6.71,14.79c.27.88.87,1,1.55,1.17a26.48,26.48,0,0,1,12,5.74,25.43,25.43,0,0,1,9.09,19.34c.08,3.09,0,6.18,0,9.27a1.33,1.33,0,0,0,.7,1.43,2.53,2.53,0,0,1,1.28,2.36c0,5,0,9.93,0,14.9a2.65,2.65,0,0,1-2.91,2.82q-6.63,0-13.26,0a2.69,2.69,0,0,1-2.86-2.75,2.72,2.72,0,0,1,2.88-2.76c3,0,6,0,9,0Z"/><path class="cls-1" d="M153.57,102.3c0,4.34,0,8.69,0,13a2.79,2.79,0,0,1-3.08,3H137.3v2.84c0,3.48,0,7,0,10.45a2.74,2.74,0,0,1-3,3H121.15a2.72,2.72,0,0,1-3.05-3c0-4,0-7.9,0-11.86,0-.42,0-.82-.06-1.37h-13c-2.23,0-3.3-1.08-3.3-3.32V102.48c0-2.25,1-3.31,3.28-3.31,3.84,0,7.67,0,11.5,0H118c0-.55.08-1,.08-1.38,0-3.89,0-7.75,0-11.62,0-2.4.74-3.26,3.08-3.3,4.51-.07,9-.06,13.49,0a2.74,2.74,0,0,1,2.61,3c0,3.9,0,7.82,0,11.73v1.58h1.59c3.83,0,7.66,0,11.49,0C152.55,99.17,153.55,100.16,153.57,102.3Zm-6.76,10.54c1.06,0,1.34-.33,1.3-1.34-.07-1.9-.07-3.83,0-5.74,0-.91-.31-1.11-1.15-1.11-4,0-7.9,0-11.86,0-2.37,0-3.34-1-3.34-3.37,0-3.83,0-7.66,0-11.49,0-.46,0-.9-.05-1.38h-8.07V100.8c0,3-.86,3.86-3.81,3.86H107.29c0,2.35,0,4.7,0,7.06,0,.88.28,1.12,1.14,1.12,3.94,0,7.9,0,11.84,0,2.33,0,3.37,1.05,3.37,3.36V127.8c0,.4.06.82.07,1.26h8.07V116.21c0-2.4,1-3.39,3.43-3.39C139.06,112.82,142.94,112.78,146.81,112.84Z"/><path class="cls-2" d="M148.11,111.5c0,1-.24,1.36-1.3,1.34-3.87-.06-7.75,0-11.62,0-2.44,0-3.43,1-3.43,3.39v12.85h-8.07c0-.44-.07-.86-.07-1.26V116.18c0-2.31-1-3.36-3.37-3.36-3.94,0-7.9,0-11.84,0-.86,0-1.16-.24-1.14-1.12.06-2.36,0-4.71,0-7.06h12.52c3,0,3.81-.89,3.81-3.86V88.42h8.07c0,.48.05.92.05,1.38,0,3.83,0,7.66,0,11.49,0,2.37,1,3.36,3.34,3.37,4,0,7.9,0,11.86,0,.84,0,1.17.2,1.15,1.11C148,107.67,148,109.6,148.11,111.5Z"/><path class="cls-1" d="M194,174.78a19,19,0,1,1,0-38.09c10.84.14,19.38,8.4,19,19.55A19,19,0,0,1,194,174.78Zm-.12-32.52c-6-.37-13.18,5-13.43,12.89a13.52,13.52,0,0,0,13.33,14.13,13.66,13.66,0,0,0,13.72-13.21C207.73,149,201.65,142.05,193.87,142.26Z"/><path class="cls-1" d="M105.24,155.88a19,19,0,1,1-19-19.19A18.95,18.95,0,0,1,105.24,155.88Zm-32.58-.07A13.54,13.54,0,1,0,86.09,142.2,13.58,13.58,0,0,0,72.66,155.81Z"/><path class="cls-1" d="M139.56,163.93q-13.18,0-26.39,0a2.85,2.85,0,0,1-2.92-1.72,2.7,2.7,0,0,1,1.78-3.64,7.59,7.59,0,0,1,1.85-.16H165.6c.28,0,.55,0,.82,0a2.86,2.86,0,0,1,2.73,2.83,2.75,2.75,0,0,1-2.85,2.67c-3.28,0-6.57,0-9.85,0H139.56Z"/><path class="cls-1" d="M53.63,158.42c1.63,0,3.22,0,4.81,0a2.76,2.76,0,0,1,2.92,2.84,2.64,2.64,0,0,1-2.59,2.65q-4.05.08-8.1,0A2.62,2.62,0,0,1,48,161.2q-.07-7.5,0-15a2.73,2.73,0,0,1,2.84-2.81c.77,0,1.55,0,2.49,0V142c0-2.39,0-4.77,0-7.16,0-1.89,1.1-3.08,2.79-3.07s2.73,1.23,2.74,3.13c0,3.59,0,7.19,0,10.78,0,2.13-1.06,3.18-3.17,3.2H53.63Z"/><path class="cls-1" d="M115,57.79a12.67,12.67,0,1,1,25.27-1.93c.08,1.28.07,2.58,0,3.87a2.76,2.76,0,1,1-5.52,0c0-.94,0-1.88,0-2.82a7.13,7.13,0,1,0-14.25-.09c0,1,0,2,0,3a2.67,2.67,0,0,1-2.81,2.68A2.72,2.72,0,0,1,115,59.71C115,59.05,115,58.38,115,57.79Z"/><path class="cls-1" d="M62.39,93.53c4.57,0,9.14,0,13.71,0a2.81,2.81,0,0,1,2.8,1.53,2.7,2.7,0,0,1-1.57,3.8,4.62,4.62,0,0,1-1.39.19H49.11c-.31,0-.63,0-.94,0a2.78,2.78,0,0,1-2.57-2.83,2.7,2.7,0,0,1,2.73-2.65c3.44,0,6.88,0,10.31,0Z"/><path class="cls-1" d="M124,148.9H113.24c-1.91,0-3.14-1.05-3.17-2.69s1.22-2.83,3.16-2.83c6.06,0,12.11.05,18.17.07,1.16,0,2.33-.09,3.5-.08a2.78,2.78,0,1,1,0,5.53Z"/><path class="cls-1" d="M40.87,74.06c-3.44,0-6.88,0-10.31,0a2.6,2.6,0,0,1-2.59-2,2.64,2.64,0,0,1,1.18-3,3.65,3.65,0,0,1,1.67-.44q10.13,0,20.27,0a2.76,2.76,0,1,1,0,5.49c-3.4,0-6.8,0-10.19,0Z"/><path class="cls-1" d="M40.37,118.46h5.87a2.77,2.77,0,1,1,0,5.52q-6,0-12,0c-1.89,0-3.1-1.15-3.06-2.81s1.23-2.71,3.15-2.72,4,0,6,0Z"/><path class="cls-1" d="M65.32,118.45c1.37,0,2.74,0,4.1,0a2.76,2.76,0,1,1,.09,5.51c-2.85,0-5.71,0-8.56,0a2.7,2.7,0,0,1-2.74-2.77,2.73,2.73,0,0,1,2.88-2.74c1.41,0,2.82,0,4.23,0Z"/><path class="cls-1" d="M29.63,93.53c1.41,0,2.82,0,4.22,0a2.73,2.73,0,0,1,2.86,2.65A2.68,2.68,0,0,1,33.92,99c-2.86.06-5.71.06-8.56,0a2.77,2.77,0,0,1-2.86-2.79,2.73,2.73,0,0,1,2.91-2.71C26.82,93.51,28.23,93.53,29.63,93.53Z"/><path class="cls-1" d="M124.93,31.11c0-1.17,0-2.34,0-3.5a2.76,2.76,0,1,1,5.51,0q.06,3.56,0,7.13a2.76,2.76,0,1,1-5.51-.09C124.91,33.45,124.93,32.28,124.93,31.11Z"/><path class="cls-1" d="M111.72,44a6.54,6.54,0,0,1-1.62-.94c-1.71-1.6-3.35-3.26-5-5a2.76,2.76,0,0,1,0-4,2.71,2.71,0,0,1,3.89.05c1.78,1.7,3.5,3.44,5.21,5.21a2.58,2.58,0,0,1,.49,3C114.19,43.47,113.32,44,111.72,44Z"/><path class="cls-1" d="M153.31,59.5c-1.22,0-2.43,0-3.64,0a2.76,2.76,0,0,1-2.84-2.69,2.73,2.73,0,0,1,2.72-2.8c2.47-.07,4.93-.07,7.4,0a2.75,2.75,0,0,1-.12,5.5c-1.18,0-2.35,0-3.52,0Z"/><path class="cls-1" d="M102.07,59.5c-1.22,0-2.43,0-3.64,0a2.7,2.7,0,0,1-2.71-2.55,2.57,2.57,0,0,1,2.34-2.86c2.68-.14,5.39-.14,8.08,0a2.55,2.55,0,0,1,2.35,2.85,2.66,2.66,0,0,1-2.67,2.57c-1.25.05-2.5,0-3.75,0Z"/><path class="cls-1" d="M143.48,44a2.83,2.83,0,0,1-2.75-1.51,2.39,2.39,0,0,1,.25-2.85c1.86-2,3.78-3.93,5.79-5.77a2.71,2.71,0,0,1,3.74,3.86c-1.83,2-3.76,3.85-5.7,5.7A3.5,3.5,0,0,1,143.48,44Z"/></g><g id="text"><path class="cls-3" d="M380.43,163.1a.5.5,0,0,1-.5-.5v-85a18.06,18.06,0,0,0-1.39-7,16.92,16.92,0,0,0-3.87-5.73,20.25,20.25,0,0,0-5.75-3.89,16.8,16.8,0,0,0-7-1.46,17.42,17.42,0,0,0-7,1.46,20.11,20.11,0,0,0-5.82,3.89,17.06,17.06,0,0,0-3.87,5.73,18.07,18.07,0,0,0-1.4,7V162.6a.5.5,0,0,1-.5.5h-14a.5.5,0,0,1-.5-.5v-85a18.07,18.07,0,0,0-1.4-7,16.92,16.92,0,0,0-3.87-5.73,19.84,19.84,0,0,0-5.82-3.89,17.73,17.73,0,0,0-14.09,0,20,20,0,0,0-5.83,3.89,17.21,17.21,0,0,0-3.87,5.73,18.24,18.24,0,0,0-1.39,7V162.6a.5.5,0,0,1-.5.5H278.18a.5.5,0,0,1-.5-.5v-85a31.94,31.94,0,0,1,2.59-12.78,34.36,34.36,0,0,1,7-10.51,32.8,32.8,0,0,1,23.37-9.7A32,32,0,0,1,325.31,48a34.39,34.39,0,0,1,11,8.73A32.82,32.82,0,0,1,362,44.56a32,32,0,0,1,12.78,2.59,33.49,33.49,0,0,1,17.62,17.62A32,32,0,0,1,395,77.55V162.6a.5.5,0,0,1-.5.5Z"/><path class="cls-4" d="M362,45.06a31.5,31.5,0,0,1,12.58,2.54A33.05,33.05,0,0,1,391.9,65a31.33,31.33,0,0,1,2.55,12.58V162.6h-14v-85A18.53,18.53,0,0,0,379,70.3a17.47,17.47,0,0,0-4-5.89,20.52,20.52,0,0,0-5.89-4A17.17,17.17,0,0,0,362,58.92a17.71,17.71,0,0,0-7.25,1.51,20.25,20.25,0,0,0-6,4,17.47,17.47,0,0,0-4,5.89,18.54,18.54,0,0,0-1.44,7.25V162.6h-14v-85a18.54,18.54,0,0,0-1.44-7.25,17.47,17.47,0,0,0-4-5.89,20.25,20.25,0,0,0-6-4,18.14,18.14,0,0,0-14.49,0,20.16,20.16,0,0,0-6,4,17.62,17.62,0,0,0-4,5.89A18.71,18.71,0,0,0,292,77.55V162.6H278.18v-85A31.33,31.33,0,0,1,280.73,65a33.87,33.87,0,0,1,6.93-10.36,32.19,32.19,0,0,1,23-9.55,31.5,31.5,0,0,1,14.42,3.34,34,34,0,0,1,11.23,9.08A32.29,32.29,0,0,1,362,45.06m0-1A33.34,33.34,0,0,0,336.3,55.91a35,35,0,0,0-10.76-8.4,32.63,32.63,0,0,0-14.87-3.45,33.23,33.23,0,0,0-23.73,9.85,35,35,0,0,0-7.13,10.66,32.56,32.56,0,0,0-2.63,13V162.6a1,1,0,0,0,1,1H292a1,1,0,0,0,1-1v-85a17.67,17.67,0,0,1,1.35-6.86,16.56,16.56,0,0,1,3.76-5.56,19.21,19.21,0,0,1,5.68-3.79,17.21,17.21,0,0,1,13.69,0,19.47,19.47,0,0,1,5.68,3.79A16.64,16.64,0,0,1,327,70.69a17.68,17.68,0,0,1,1.36,6.86V162.6a1,1,0,0,0,1,1h14a1,1,0,0,0,1-1v-85a17.68,17.68,0,0,1,1.36-6.86,16.47,16.47,0,0,1,3.76-5.56,19.21,19.21,0,0,1,5.68-3.79A16.9,16.9,0,0,1,362,59.92a16.11,16.11,0,0,1,6.75,1.42,19.86,19.86,0,0,1,5.62,3.79,16.79,16.79,0,0,1,3.75,5.56,17.67,17.67,0,0,1,1.35,6.86V162.6a1,1,0,0,0,1,1h14a1,1,0,0,0,1-1v-85a32.46,32.46,0,0,0-2.63-13,34.07,34.07,0,0,0-17.88-17.88,32.49,32.49,0,0,0-13-2.63Z"/><path class="cls-3" d="M454,165a41.14,41.14,0,0,1-16.37-3.3,42.56,42.56,0,0,1-22.39-22.32A40.38,40.38,0,0,1,412,123.1a41.87,41.87,0,0,1,12.33-29.82,43.37,43.37,0,0,1,13.37-8.94,42.11,42.11,0,0,1,32.73,0,41.5,41.5,0,0,1,22.25,22.32,41.69,41.69,0,0,1,3.3,16.44v2.39c0,.88-.1,2.3-.32,4.35a.5.5,0,0,1-.5.45H427.74a25.68,25.68,0,0,0,3.44,7.67,30.14,30.14,0,0,0,6,6.58,26.17,26.17,0,0,0,7.73,4.37,26.61,26.61,0,0,0,9.15,1.57,15.89,15.89,0,0,0,7.41-1.94,31.85,31.85,0,0,0,7.22-5.25.49.49,0,0,1,.34-.14.47.47,0,0,1,.35.15l9.56,9.55a.49.49,0,0,1,.15.36.51.51,0,0,1-.15.35,46,46,0,0,1-11.68,8.3A29.65,29.65,0,0,1,454,165Zm26.25-49.26a31.89,31.89,0,0,0-3.5-7.59,26.56,26.56,0,0,0-5.86-6.57,27.83,27.83,0,0,0-7.74-4.3,27.61,27.61,0,0,0-18.3,0,27.15,27.15,0,0,0-13.69,10.87,27.28,27.28,0,0,0-3.43,7.59Z"/><path class="cls-4" d="M454,81.53a40.36,40.36,0,0,1,16.17,3.27,40.95,40.95,0,0,1,22,22.06,41,41,0,0,1,3.26,16.24v2.39c0,.85-.11,2.29-.32,4.3h-68a26,26,0,0,0,3.67,8.44,29.93,29.93,0,0,0,6.05,6.69,26.72,26.72,0,0,0,7.88,4.46A27.12,27.12,0,0,0,454,151a16.42,16.42,0,0,0,7.65-2,32.16,32.16,0,0,0,7.32-5.33l9.56,9.55A45.56,45.56,0,0,1,467,161.41a29,29,0,0,1-13,3.1,40.52,40.52,0,0,1-16.17-3.26,42,42,0,0,1-22.14-22.06,39.9,39.9,0,0,1-3.26-16.09,41.42,41.42,0,0,1,12.18-29.47,42.79,42.79,0,0,1,13.22-8.83A40.36,40.36,0,0,1,454,81.53M427.1,116.25h53.84a32.06,32.06,0,0,0-3.75-8.36,26.59,26.59,0,0,0-6-6.69,28,28,0,0,0-7.88-4.38,28.11,28.11,0,0,0-18.64,0,27.59,27.59,0,0,0-13.93,11.07,27.33,27.33,0,0,0-3.67,8.36M454,80.53a41.57,41.57,0,0,0-16.56,3.35,44.08,44.08,0,0,0-13.53,9,42.37,42.37,0,0,0-12.48,30.18,41,41,0,0,0,3.35,16.49,43,43,0,0,0,22.66,22.58A41.53,41.53,0,0,0,454,165.51a30.1,30.1,0,0,0,13.42-3.21,46.36,46.36,0,0,0,11.8-8.38,1,1,0,0,0,.31-.71,1,1,0,0,0-.3-.71l-9.55-9.56a1,1,0,0,0-.71-.29,1,1,0,0,0-.69.28,31.67,31.67,0,0,1-7.1,5.17A15.52,15.52,0,0,1,454,150a26.15,26.15,0,0,1-9-1.54,25.82,25.82,0,0,1-7.59-4.29,29.35,29.35,0,0,1-5.85-6.47,25.2,25.2,0,0,1-3.2-6.89h66.71a1,1,0,0,0,1-.9c.21-2.07.32-3.51.32-4.4V123.1a42.13,42.13,0,0,0-3.34-16.64,42.09,42.09,0,0,0-22.51-22.58A41.57,41.57,0,0,0,454,80.53Zm-25.6,34.72a26.39,26.39,0,0,1,3.18-6.81,27.39,27.39,0,0,1,5.84-6.46,27.08,27.08,0,0,1,7.6-4.22,27.12,27.12,0,0,1,18,0,27.22,27.22,0,0,1,7.6,4.22,25.79,25.79,0,0,1,5.75,6.45,31.1,31.1,0,0,1,3.23,6.82Z"/><path class="cls-3" d="M550.38,164.54a40.54,40.54,0,0,1-16.28-3.31,43.52,43.52,0,0,1-13.3-8.94,41.74,41.74,0,0,1-9-13.3,42.11,42.11,0,0,1,0-32.73,42.45,42.45,0,0,1,22.32-22.4,41.94,41.94,0,0,1,31.68-.4,44.38,44.38,0,0,1,12,7.17V45.85a.51.51,0,0,1,.5-.5h13.54a.5.5,0,0,1,.5.5v76.77A41.14,41.14,0,0,1,589,139a41.71,41.71,0,0,1-22.25,22.24A41.1,41.1,0,0,1,550.38,164.54Zm0-69.29a27.23,27.23,0,0,0-10.64,2.11,26.46,26.46,0,0,0-8.67,5.86,29.29,29.29,0,0,0-5.88,8.77,27,27,0,0,0,0,21.26,27.58,27.58,0,0,0,14.56,14.56,26.89,26.89,0,0,0,21.26,0,29.2,29.2,0,0,0,8.77-5.87,26.45,26.45,0,0,0,5.86-8.68,27.51,27.51,0,0,0-5.86-30A27.52,27.52,0,0,0,561,97.36,27.23,27.23,0,0,0,550.38,95.25Z"/><path class="cls-4" d="M591.79,45.85v76.78a40.44,40.44,0,0,1-3.26,16.16,41.24,41.24,0,0,1-22,22A40.5,40.5,0,0,1,550.38,164a39.89,39.89,0,0,1-16.08-3.27,43,43,0,0,1-13.15-8.84,41.15,41.15,0,0,1-8.92-13.14,41.71,41.71,0,0,1,0-32.33A42,42,0,0,1,534.3,84.32a39.72,39.72,0,0,1,16.08-3.27,40.16,40.16,0,0,1,15.21,2.87,43.42,43.42,0,0,1,12.66,7.8V45.85h13.54M550.38,150.5a26.85,26.85,0,0,0,10.83-2.23,29.54,29.54,0,0,0,8.92-6,26.65,26.65,0,0,0,6-8.84,28.35,28.35,0,0,0,0-21.66A28,28,0,0,0,539.55,96.9a26.8,26.8,0,0,0-8.84,6,29.45,29.45,0,0,0-6,8.92,27.41,27.41,0,0,0,0,21.66,28.1,28.1,0,0,0,14.81,14.82,26.85,26.85,0,0,0,10.83,2.23M591.79,44.85H578.25a1,1,0,0,0-1,1V89.58A45.16,45.16,0,0,0,566,83a42.5,42.5,0,0,0-32.07.41,43,43,0,0,0-22.58,22.66,42.63,42.63,0,0,0,0,33.13,42.15,42.15,0,0,0,9.13,13.45,44,44,0,0,0,13.45,9.05A41,41,0,0,0,550.38,165a41.57,41.57,0,0,0,16.56-3.35,42.3,42.3,0,0,0,22.51-22.5,41.6,41.6,0,0,0,3.34-16.56V45.85a1,1,0,0,0-1-1ZM550.38,149.5A25.8,25.8,0,0,1,540,147.35a27.08,27.08,0,0,1-14.3-14.3,26.46,26.46,0,0,1,0-20.85,28.57,28.57,0,0,1,5.77-8.63,26,26,0,0,1,8.52-5.75,27,27,0,0,1,35.24,35.24,25.89,25.89,0,0,1-5.75,8.52,28.65,28.65,0,0,1-8.62,5.77,25.73,25.73,0,0,1-10.43,2.15Z"/><path class="cls-3" d="M606.92,163.1a.5.5,0,0,1-.5-.5V46.33a.51.51,0,0,1,.5-.5h72.16a.51.51,0,0,1,.5.5v14a.51.51,0,0,1-.5.5h-57.8V97h50.47a.5.5,0,0,1,.5.5v14a.5.5,0,0,1-.5.5H621.28v36.27h57.8a.5.5,0,0,1,.5.5V162.6a.5.5,0,0,1-.5.5Z"/><path class="cls-4" d="M679.08,46.33v14h-58.3V97.46h51v14h-51v37.27h58.3V162.6H606.92V46.33h72.16m0-1H606.92a1,1,0,0,0-1,1V162.6a1,1,0,0,0,1,1h72.16a1,1,0,0,0,1-1V148.75a1,1,0,0,0-1-1h-57.3V112.48h50a1,1,0,0,0,1-1v-14a1,1,0,0,0-1-1h-50V61.35h57.3a1,1,0,0,0,1-1v-14a1,1,0,0,0-1-1Z"/><path class="cls-3" d="M761.1,163.1a.5.5,0,0,1-.44-.25l-24.89-43.37Q729.61,130.1,723.3,141c-4.25,7.32-8.49,14.69-12.57,21.9a.52.52,0,0,1-.44.25H694.36a.48.48,0,0,1-.43-.25.5.5,0,0,1,0-.5l33.15-57.72q-1.22-2.1-2.41-4.13c-.85-1.44-1.7-2.89-2.55-4.39-3.4-6.15-6.93-12.3-10.51-18.3s-7.15-12.24-10.52-18.34l-7.48-12.89a.5.5,0,0,1,0-.5.52.52,0,0,1,.43-.25H710a.5.5,0,0,1,.43.25l25.37,43.85q4.58-7.92,9.28-16.21,5-8.68,9.72-17c.86-1.5,1.85-3.29,2.94-5.32s2.09-3.83,2.95-5.35a.52.52,0,0,1,.44-.25h16.4a.52.52,0,0,1,.44.25.5.5,0,0,1,0,.5L749.27,96.12q-1.44,2.53-2.46,4.44t-2.34,4.22q3.76,6.59,8,13.85c2.78,4.78,5.67,9.82,8.61,15s5.7,10,8.52,14.89,5.49,9.5,8,13.85a.5.5,0,0,1-.44.75Z"/><path class="cls-4" d="M777.5,46.33,748.83,95.87q-1.43,2.53-2.46,4.46c-.7,1.27-1.52,2.76-2.47,4.45q3.83,6.7,8.12,14.1t8.6,15q4.3,7.58,8.52,14.9t8,13.85H761.1l-25.33-44.12-12.9,22.22q-6.52,11.24-12.58,21.9H694.36l33.29-58q-1.27-2.23-2.55-4.38t-2.54-4.38Q717.45,86.63,712,77.55T701.53,59.23L694,46.33H710l25.8,44.6q4.79-8.28,9.72-17t9.72-17c.84-1.48,1.83-3.26,2.94-5.33s2.1-3.85,3-5.34h16.4m0-1H761.1a1,1,0,0,0-.87.51c-.87,1.53-1.87,3.33-3,5.35s-2.08,3.82-2.93,5.32c-3.33,5.76-6.6,11.47-9.72,17-3,5.32-6,10.51-8.85,15.46l-24.93-43.1a1,1,0,0,0-.87-.5H694a1,1,0,0,0-.86,1.5l7.48,12.9C704,65.82,707.57,72,711.18,78.06s7.11,12.15,10.5,18.29c.86,1.5,1.72,3,2.56,4.41.75,1.26,1.5,2.56,2.26,3.87l-33,57.47a1,1,0,0,0,.86,1.5h15.93a1,1,0,0,0,.87-.5c4.08-7.2,8.31-14.56,12.58-21.9l12-20.72,24.46,42.62a1,1,0,0,0,.87.5h16.08a1,1,0,0,0,.87-.5,1,1,0,0,0,0-1c-2.51-4.28-5.21-8.94-8-13.85-2.72-4.72-5.5-9.59-8.52-14.89s-5.82-10.19-8.61-15-5.33-9.23-7.83-13.6c.75-1.34,1.47-2.64,2.19-4s1.53-2.77,2.47-4.44l28.66-49.53a1,1,0,0,0,0-1,1,1,0,0,0-.87-.5Z"/></g></svg>