<svg xmlns="http://www.w3.org/2000/svg" viewBox="0 0 800 200.15"><defs><style>.cls-1{fill:#f31000;}.cls-2{fill:#006dc2;}.cls-3{fill:#00007f;}</style></defs><g id="vehicle"><path d="M231.46,158.41V148.9c-1.4,0-2.79,0-4.18,0a2.68,2.68,0,0,1-2.62-2.33,2.74,2.74,0,0,1,1.15-2.68,6.13,6.13,0,0,1,3.14-.52c.75,0,.54-.67.54-1.19,0-.7,0-1.4,0-2.1,0-1.44.09-2.88.1-4.31a25.82,25.82,0,0,0-1.08-8.52c-2.49-7.39-7.71-11.84-15.25-13.63a6.54,6.54,0,0,0-1.4-.07H187.13c-2.56,0-3.31-.69-3.57-3.25a5.6,5.6,0,0,0-5.14-5.09c-1.48-.12-3-.07-4.45-.1a2.79,2.79,0,0,1-3.07-3q0-6.39,0-12.78a2.77,2.77,0,1,1,5.53-.05c0,3,0,6,0,8.92v1.4c.5,0,.92.06,1.33.07a11.13,11.13,0,0,1,10.69,7.51c.2.53.34,1,1.08,1,5.52,0,11,0,16.55,0a6.86,6.86,0,0,0,.88-.13c-.69-1.77-1.28-3.44-2-5.07a53.77,53.77,0,0,0-13.62-19.42,36.85,36.85,0,0,0-25-9.32q-49.64-.06-99.27,0c-.47,0-.94,0-1.41,0a2.72,2.72,0,0,1-.23-5.39,9.4,9.4,0,0,1,1.4-.09q49.29,0,98.57,0c8.44,0,16.37,1.79,23.6,6.24a50.64,50.64,0,0,1,16.69,17.31,64,64,0,0,1,6.71,14.79c.27.88.87,1,1.55,1.17a26.51,26.51,0,0,1,12,5.74,25.42,25.42,0,0,1,9.08,19.34c.08,3.09,0,6.18,0,9.27a1.34,1.34,0,0,0,.71,1.43,2.55,2.55,0,0,1,1.28,2.36c0,5,0,9.93,0,14.9a2.64,2.64,0,0,1-2.9,2.82q-6.63,0-13.26,0a2.76,2.76,0,1,1,0-5.51c3,0,6,0,9,0Z"/><path d="M153.78,102.3c0,4.34,0,8.69,0,13a2.78,2.78,0,0,1-3.08,3H137.5v2.84c0,3.48,0,7,0,10.45a2.74,2.74,0,0,1-3,3H121.35a2.71,2.71,0,0,1-3-3c0-4,0-7.9,0-11.86,0-.42,0-.82-.06-1.37h-13c-2.24,0-3.3-1.08-3.3-3.32V102.48c0-2.25,1-3.31,3.28-3.31,3.83,0,7.66,0,11.49,0h1.48c0-.55.08-1,.08-1.38,0-3.89,0-7.75,0-11.62,0-2.4.73-3.26,3.08-3.3,4.51-.07,9-.06,13.49,0a2.73,2.73,0,0,1,2.6,3c0,3.9,0,7.82,0,11.73v1.58h1.59c3.83,0,7.66,0,11.5,0C152.75,99.17,153.76,100.16,153.78,102.3ZM147,112.84c1.06,0,1.34-.33,1.3-1.34-.07-1.9-.07-3.83,0-5.74,0-.91-.31-1.11-1.15-1.11-4,0-7.9,0-11.86,0-2.37,0-3.34-1-3.34-3.37,0-3.83,0-7.66,0-11.49,0-.46,0-.9-.05-1.38h-8.07V100.8c0,3-.86,3.86-3.81,3.86H107.49c0,2.35,0,4.7,0,7.06,0,.88.28,1.12,1.14,1.12,3.94,0,7.9,0,11.84,0,2.33,0,3.37,1.05,3.37,3.36V127.8c0,.4.06.82.08,1.26H132V116.21c0-2.4,1-3.39,3.43-3.39C139.26,112.82,143.14,112.78,147,112.84Z"/><path class="cls-1" d="M148.31,111.5c0,1-.24,1.36-1.3,1.34-3.87-.06-7.75,0-11.62,0-2.44,0-3.43,1-3.43,3.39v12.85H123.9c0-.44-.08-.86-.08-1.26V116.18c0-2.31-1-3.36-3.37-3.36-3.94,0-7.9,0-11.84,0-.86,0-1.16-.24-1.14-1.12.06-2.36,0-4.71,0-7.06H120c2.95,0,3.81-.89,3.81-3.86V88.42h8.07c0,.48.05.92.05,1.38,0,3.83,0,7.66,0,11.49,0,2.37,1,3.36,3.34,3.37,4,0,7.9,0,11.86,0,.84,0,1.19.2,1.15,1.11C148.24,107.67,148.24,109.6,148.31,111.5Z"/><path d="M194.2,174.78a19,19,0,1,1,0-38.09c10.84.14,19.38,8.4,19.05,19.55A19,19,0,0,1,194.2,174.78Zm-.13-32.52c-6-.37-13.18,5-13.42,12.89A13.51,13.51,0,0,0,194,169.28a13.67,13.67,0,0,0,13.72-13.21C207.94,149,201.86,142.05,194.07,142.26Z"/><path d="M105.45,155.88a19.05,19.05,0,1,1-19-19.19A19,19,0,0,1,105.45,155.88Zm-32.59-.07A13.54,13.54,0,1,0,86.29,142.2,13.58,13.58,0,0,0,72.86,155.81Z"/><path d="M139.76,163.93q-13.18,0-26.38,0a2.85,2.85,0,0,1-2.92-1.72,2.7,2.7,0,0,1,1.77-3.64,7.67,7.67,0,0,1,1.86-.16h51.72c.27,0,.54,0,.82,0a2.86,2.86,0,0,1,2.72,2.83,2.74,2.74,0,0,1-2.85,2.67c-3.28,0-6.56,0-9.85,0H139.76Z"/><path d="M53.83,158.42c1.63,0,3.22,0,4.81,0a2.76,2.76,0,0,1,2.92,2.84A2.63,2.63,0,0,1,59,163.91q-4,.08-8.09,0a2.63,2.63,0,0,1-2.67-2.72c-.05-5,0-10,0-15a2.73,2.73,0,0,1,2.84-2.81c.77,0,1.55,0,2.49,0V142c0-2.39,0-4.77,0-7.16,0-1.89,1.1-3.08,2.78-3.07s2.74,1.23,2.74,3.13c0,3.59,0,7.19,0,10.78,0,2.13-1.06,3.18-3.16,3.2H53.83Z"/><path d="M115.24,57.79a12.67,12.67,0,1,1,25.27-1.93c.08,1.28.07,2.58,0,3.87a2.76,2.76,0,1,1-5.52,0c0-.94,0-1.88,0-2.82a7.13,7.13,0,1,0-14.25-.09c0,1,0,2,0,3a2.66,2.66,0,0,1-2.81,2.68,2.72,2.72,0,0,1-2.67-2.84C115.22,59.05,115.24,58.38,115.24,57.79Z"/><path d="M62.6,93.53c4.57,0,9.14,0,13.71,0a2.8,2.8,0,0,1,2.79,1.53,2.69,2.69,0,0,1-1.57,3.8,4.6,4.6,0,0,1-1.38.19H49.31c-.31,0-.62,0-.93,0a2.77,2.77,0,0,1-2.57-2.83,2.69,2.69,0,0,1,2.73-2.65c3.43,0,6.87,0,10.31,0Z"/><path d="M124.22,148.9H113.44c-1.91,0-3.13-1.05-3.17-2.69s1.22-2.83,3.17-2.83c6,0,12.11.05,18.16.07,1.17,0,2.34-.09,3.5-.08a2.78,2.78,0,1,1,0,5.53Z"/><path d="M41.07,74.06c-3.44,0-6.87,0-10.31,0a2.59,2.59,0,0,1-2.58-2,2.64,2.64,0,0,1,1.18-3A3.58,3.58,0,0,1,31,68.59q10.14,0,20.27,0a2.76,2.76,0,1,1,0,5.49c-3.4,0-6.79,0-10.19,0Z"/><path d="M40.58,118.46h5.86a2.77,2.77,0,1,1,0,5.52q-6,0-12,0c-1.89,0-3.09-1.15-3.06-2.81s1.24-2.71,3.15-2.72,4,0,6,0Z"/><path d="M65.52,118.45c1.37,0,2.74,0,4.11,0a2.76,2.76,0,1,1,.08,5.51c-2.85,0-5.71,0-8.56,0a2.76,2.76,0,1,1,.15-5.51c1.4,0,2.81,0,4.22,0Z"/><path d="M29.84,93.53c1.4,0,2.81,0,4.22,0a2.74,2.74,0,0,1,2.86,2.65A2.69,2.69,0,0,1,34.12,99c-2.85.06-5.71.06-8.56,0a2.78,2.78,0,0,1-2.86-2.79,2.74,2.74,0,0,1,2.92-2.71C27,93.51,28.43,93.53,29.84,93.53Z"/><path d="M125.13,31.11c0-1.17,0-2.34,0-3.5a2.76,2.76,0,1,1,5.51,0q.08,3.56,0,7.13a2.77,2.77,0,1,1-5.52-.09C125.11,33.45,125.13,32.28,125.13,31.11Z"/><path d="M111.92,44a6.92,6.92,0,0,1-1.62-.94c-1.7-1.6-3.35-3.26-5-5a2.77,2.77,0,0,1,0-4,2.72,2.72,0,0,1,3.9.05q2.66,2.55,5.2,5.21a2.58,2.58,0,0,1,.49,3C114.39,43.47,113.53,44,111.92,44Z"/><path d="M153.51,59.5c-1.21,0-2.43,0-3.64,0a2.75,2.75,0,1,1-.11-5.49c2.46-.07,4.93-.07,7.39,0a2.75,2.75,0,1,1-.12,5.5c-1.17,0-2.35,0-3.52,0Z"/><path d="M102.27,59.5c-1.21,0-2.43,0-3.64,0a2.71,2.71,0,0,1-2.71-2.55,2.57,2.57,0,0,1,2.34-2.86c2.69-.14,5.39-.14,8.08,0a2.57,2.57,0,0,1,2.36,2.85A2.66,2.66,0,0,1,106,59.48c-1.25.05-2.5,0-3.75,0Z"/><path d="M143.68,44a2.8,2.8,0,0,1-2.74-1.51,2.38,2.38,0,0,1,.25-2.85c1.86-2,3.77-3.93,5.78-5.77a2.71,2.71,0,0,1,3.74,3.86c-1.82,2-3.75,3.85-5.7,5.7A3.44,3.44,0,0,1,143.68,44Z"/></g><g id="text"><path class="cls-2" d="M380.64,163.1a.5.5,0,0,1-.5-.5v-85a18.07,18.07,0,0,0-1.4-7,17,17,0,0,0-3.86-5.73,20.3,20.3,0,0,0-5.76-3.89,16.8,16.8,0,0,0-7-1.46,17.34,17.34,0,0,0-7,1.46,20,20,0,0,0-5.83,3.89,17.21,17.21,0,0,0-3.87,5.73,18.24,18.24,0,0,0-1.39,7V162.6a.5.5,0,0,1-.5.5h-14a.5.5,0,0,1-.5-.5v-85a18.24,18.24,0,0,0-1.39-7,17.21,17.21,0,0,0-3.87-5.73,20,20,0,0,0-5.83-3.89,17.73,17.73,0,0,0-14.09,0A20,20,0,0,0,298,64.77a17,17,0,0,0-3.86,5.73,18.07,18.07,0,0,0-1.4,7V162.6a.5.5,0,0,1-.5.5H278.39a.5.5,0,0,1-.5-.5v-85a32.11,32.11,0,0,1,2.58-12.78,34.54,34.54,0,0,1,7-10.51,32.84,32.84,0,0,1,23.38-9.7A32.08,32.08,0,0,1,325.52,48a34.35,34.35,0,0,1,11,8.73,32.82,32.82,0,0,1,25.65-12.13,32,32,0,0,1,12.78,2.59,33.55,33.55,0,0,1,17.63,17.62,32.18,32.18,0,0,1,2.58,12.78V162.6a.5.5,0,0,1-.5.5Z"/><path class="cls-3" d="M362.16,45.06a31.54,31.54,0,0,1,12.59,2.54A33.05,33.05,0,0,1,392.11,65a31.5,31.5,0,0,1,2.55,12.58V162.6h-14v-85a18.71,18.71,0,0,0-1.43-7.25,17.64,17.64,0,0,0-4-5.89,20.52,20.52,0,0,0-5.89-4,17.17,17.17,0,0,0-7.17-1.51,17.66,17.66,0,0,0-7.24,1.51,20.16,20.16,0,0,0-6,4,17.62,17.62,0,0,0-4,5.89,18.71,18.71,0,0,0-1.43,7.25V162.6h-14v-85a18.71,18.71,0,0,0-1.43-7.25,17.77,17.77,0,0,0-4-5.89,20.16,20.16,0,0,0-6-4,18.14,18.14,0,0,0-14.49,0,20,20,0,0,0-6,4,17.64,17.64,0,0,0-4,5.89,18.71,18.71,0,0,0-1.43,7.25V162.6H278.39v-85A31.32,31.32,0,0,1,280.93,65a33.87,33.87,0,0,1,6.93-10.36,32.19,32.19,0,0,1,23-9.55,31.46,31.46,0,0,1,14.41,3.34,33.93,33.93,0,0,1,11.23,9.08,32.29,32.29,0,0,1,25.64-12.42m0-1a33.3,33.3,0,0,0-25.65,11.85,35.09,35.09,0,0,0-10.77-8.4,32.58,32.58,0,0,0-14.86-3.45,33.18,33.18,0,0,0-23.73,9.85A34.67,34.67,0,0,0,280,64.57a32.39,32.39,0,0,0-2.63,13V162.6a1,1,0,0,0,1,1h13.85a1,1,0,0,0,1-1v-85a17.68,17.68,0,0,1,1.36-6.86,16.54,16.54,0,0,1,3.75-5.56A19.47,19.47,0,0,1,304,61.34a17.21,17.21,0,0,1,13.69,0,19.47,19.47,0,0,1,5.68,3.79,16.66,16.66,0,0,1,3.76,5.56,17.67,17.67,0,0,1,1.35,6.86V162.6a1,1,0,0,0,1,1h14a1,1,0,0,0,1-1v-85a17.67,17.67,0,0,1,1.35-6.86,16.61,16.61,0,0,1,3.76-5.56,19.34,19.34,0,0,1,5.68-3.79,16.9,16.9,0,0,1,6.84-1.42,16.19,16.19,0,0,1,6.76,1.42,19.81,19.81,0,0,1,5.61,3.79,16.64,16.64,0,0,1,3.75,5.56,17.68,17.68,0,0,1,1.36,6.86V162.6a1,1,0,0,0,1,1h14a1,1,0,0,0,1-1v-85a32.46,32.46,0,0,0-2.64-13,34,34,0,0,0-17.88-17.88,32.46,32.46,0,0,0-13-2.63Z"/><path class="cls-2" d="M454.22,165a41.09,41.09,0,0,1-16.36-3.3,42.54,42.54,0,0,1-22.4-22.32,40.38,40.38,0,0,1-3.31-16.29,41.93,41.93,0,0,1,12.34-29.82,43.37,43.37,0,0,1,13.37-8.94,42.11,42.11,0,0,1,32.73,0,41.53,41.53,0,0,1,22.24,22.32,41.69,41.69,0,0,1,3.3,16.44v2.39c0,.87-.1,2.3-.32,4.35a.49.49,0,0,1-.49.45H428a25.66,25.66,0,0,0,3.43,7.67,30.16,30.16,0,0,0,6,6.58,26.54,26.54,0,0,0,16.88,5.94,15.93,15.93,0,0,0,7.42-1.94,31.8,31.8,0,0,0,7.21-5.25.51.51,0,0,1,.34-.14.51.51,0,0,1,.36.15l9.55,9.55a.49.49,0,0,1,.15.36.47.47,0,0,1-.15.35,46,46,0,0,1-11.68,8.3A29.65,29.65,0,0,1,454.22,165Zm26.25-49.26a32,32,0,0,0-3.49-7.59,26.6,26.6,0,0,0-5.87-6.57,27.69,27.69,0,0,0-7.74-4.3,27.58,27.58,0,0,0-18.29,0,27,27,0,0,0-13.69,10.87,27,27,0,0,0-3.44,7.59Z"/><path class="cls-3" d="M454.22,81.53a40.32,40.32,0,0,1,16.17,3.27,40.95,40.95,0,0,1,22,22.06,41,41,0,0,1,3.26,16.24v2.39c0,.85-.1,2.29-.31,4.3h-68a26,26,0,0,0,3.66,8.44,30.17,30.17,0,0,0,6,6.69,27,27,0,0,0,17.2,6.06,16.42,16.42,0,0,0,7.65-2,31.73,31.73,0,0,0,7.32-5.33l9.56,9.55a45.21,45.21,0,0,1-11.55,8.21,29,29,0,0,1-13,3.1,40.44,40.44,0,0,1-16.16-3.26,42,42,0,0,1-22.14-22.06,39.74,39.74,0,0,1-3.27-16.09,41.49,41.49,0,0,1,12.19-29.47,42.55,42.55,0,0,1,13.22-8.83,40.28,40.28,0,0,1,16.16-3.27m-26.91,34.72h53.83a32.37,32.37,0,0,0-3.74-8.36,27,27,0,0,0-6-6.69,28.1,28.1,0,0,0-7.89-4.38,28.08,28.08,0,0,0-18.63,0A27.56,27.56,0,0,0,431,107.89a27.31,27.31,0,0,0-3.66,8.36m26.91-35.72a41.57,41.57,0,0,0-16.56,3.35,44.08,44.08,0,0,0-13.53,9,42.48,42.48,0,0,0-12.48,30.18A41,41,0,0,0,415,139.59a43,43,0,0,0,22.66,22.58,41.56,41.56,0,0,0,16.56,3.34,30.14,30.14,0,0,0,13.43-3.21,46.71,46.71,0,0,0,11.8-8.38,1,1,0,0,0,0-1.42l-9.56-9.56a1,1,0,0,0-1.4,0,31.62,31.62,0,0,1-7.09,5.17,15.59,15.59,0,0,1-7.19,1.88,26,26,0,0,1-9-1.54,25.57,25.57,0,0,1-7.59-4.29,29.39,29.39,0,0,1-5.86-6.47,24.88,24.88,0,0,1-3.19-6.89h66.71a1,1,0,0,0,1-.9c.22-2.07.32-3.51.32-4.4V123.1a42.13,42.13,0,0,0-3.34-16.64,42,42,0,0,0-22.5-22.58,41.66,41.66,0,0,0-16.57-3.35Zm-25.6,34.72a26.1,26.1,0,0,1,3.19-6.81,26.47,26.47,0,0,1,13.44-10.68,27.09,27.09,0,0,1,17.95,0,27.08,27.08,0,0,1,7.6,4.22,25.79,25.79,0,0,1,5.75,6.45,30.65,30.65,0,0,1,3.23,6.82Z"/><path class="cls-2" d="M550.58,164.54a40.54,40.54,0,0,1-16.28-3.31,43.64,43.64,0,0,1-13.3-8.94,41.9,41.9,0,0,1-9-13.3,42.11,42.11,0,0,1,0-32.73,42.45,42.45,0,0,1,22.32-22.4,41.94,41.94,0,0,1,31.68-.4,44.44,44.44,0,0,1,12,7.17V45.85a.5.5,0,0,1,.5-.5H592a.51.51,0,0,1,.5.5v76.77A41.14,41.14,0,0,1,589.19,139,41.74,41.74,0,0,1,567,161.23,41.18,41.18,0,0,1,550.58,164.54Zm0-69.29A27.21,27.21,0,0,0,540,97.36a26.5,26.5,0,0,0-8.68,5.86A29.27,29.27,0,0,0,525.4,112a26.89,26.89,0,0,0,0,21.26A27.6,27.6,0,0,0,540,147.81a26.89,26.89,0,0,0,21.26,0,29.25,29.25,0,0,0,8.78-5.87,26.45,26.45,0,0,0,5.86-8.68,27.33,27.33,0,0,0-25.27-38Z"/><path class="cls-3" d="M592,45.85v76.78a40.28,40.28,0,0,1-3.27,16.16,41.24,41.24,0,0,1-22,22A40.46,40.46,0,0,1,550.58,164a39.89,39.89,0,0,1-16.08-3.27,42.93,42.93,0,0,1-13.14-8.84,41,41,0,0,1-8.92-13.14,41.59,41.59,0,0,1,0-32.33A42,42,0,0,1,534.5,84.32a39.72,39.72,0,0,1,16.08-3.27,40.25,40.25,0,0,1,15.22,2.87,43.69,43.69,0,0,1,12.66,7.8V45.85H592M550.58,150.5a26.86,26.86,0,0,0,10.84-2.23,29.66,29.66,0,0,0,8.92-6,27,27,0,0,0,6-8.84,28.35,28.35,0,0,0,0-21.66A27.61,27.61,0,0,0,561.42,96.9a28.38,28.38,0,0,0-21.67,0,26.91,26.91,0,0,0-8.84,6,29.63,29.63,0,0,0-6,8.92,27.41,27.41,0,0,0,0,21.66,28.1,28.1,0,0,0,14.81,14.82,26.85,26.85,0,0,0,10.83,2.23M592,44.85H578.46a1,1,0,0,0-1,1V89.58A45.22,45.22,0,0,0,566.17,83a42.5,42.5,0,0,0-32.07.41,43,43,0,0,0-22.58,22.66,42.63,42.63,0,0,0,0,33.13,42.31,42.31,0,0,0,9.13,13.45,44.16,44.16,0,0,0,13.45,9.05A41,41,0,0,0,550.58,165a41.66,41.66,0,0,0,16.57-3.35,42.23,42.23,0,0,0,22.5-22.5A41.61,41.61,0,0,0,593,122.63V45.85a1,1,0,0,0-1-1ZM550.58,149.5a25.8,25.8,0,0,1-10.43-2.15,27,27,0,0,1-14.29-14.3,26.35,26.35,0,0,1,0-20.85,28.57,28.57,0,0,1,5.77-8.63,26,26,0,0,1,8.51-5.75,27,27,0,0,1,29.49,5.76,26.79,26.79,0,0,1,7.83,19,26.7,26.7,0,0,1-2.07,10.43,26,26,0,0,1-5.75,8.52,28.57,28.57,0,0,1-8.63,5.77,25.73,25.73,0,0,1-10.43,2.15Z"/><path class="cls-2" d="M607.13,163.1a.5.5,0,0,1-.5-.5V46.33a.5.5,0,0,1,.5-.5h72.15a.5.5,0,0,1,.5.5v14a.5.5,0,0,1-.5.5H621.49V97H672a.5.5,0,0,1,.5.5v14a.5.5,0,0,1-.5.5H621.49v36.27h57.79a.5.5,0,0,1,.5.5V162.6a.5.5,0,0,1-.5.5Z"/><path class="cls-3" d="M679.28,46.33v14H621V97.46h51v14H621v37.27h58.3V162.6H607.13V46.33h72.15m0-1H607.13a1,1,0,0,0-1,1V162.6a1,1,0,0,0,1,1h72.15a1,1,0,0,0,1-1V148.75a1,1,0,0,0-1-1H622V112.48h50a1,1,0,0,0,1-1v-14a1,1,0,0,0-1-1H622V61.35h57.3a1,1,0,0,0,1-1v-14a1,1,0,0,0-1-1Z"/><path class="cls-2" d="M761.3,163.1a.48.48,0,0,1-.43-.25L736,119.48Q729.82,130.1,723.51,141c-4.31,7.4-8.54,14.77-12.58,21.9a.52.52,0,0,1-.44.25H694.57a.5.5,0,0,1-.44-.75l33.15-57.72c-.81-1.4-1.6-2.78-2.4-4.13s-1.71-2.9-2.56-4.39c-3.39-6.15-6.93-12.3-10.51-18.3s-7.15-12.23-10.52-18.34l-7.47-12.89a.49.49,0,0,1,.43-.75h15.92a.52.52,0,0,1,.44.25L736,89.93q4.56-7.92,9.28-16.21,4.93-8.68,9.72-17c.85-1.49,1.84-3.28,2.93-5.32s2.09-3.82,3-5.35a.5.5,0,0,1,.43-.25h16.41a.52.52,0,0,1,.43.25.5.5,0,0,1,0,.5L749.47,96.12Q748,98.66,747,100.56t-2.34,4.22q3.76,6.59,8,13.85c2.77,4.78,5.67,9.82,8.6,15s5.7,10,8.52,14.89,5.49,9.5,8,13.85a.5.5,0,0,1,0,.5.48.48,0,0,1-.43.25Z"/><path class="cls-3" d="M777.71,46.33,749,95.87q-1.44,2.53-2.47,4.46c-.69,1.27-1.51,2.76-2.47,4.45q3.82,6.7,8.12,14.1t8.6,15q4.3,7.58,8.53,14.9t8,13.85H761.3L736,118.48q-6.37,11-12.91,22.22t-12.58,21.9H694.57l33.28-58q-1.27-2.23-2.54-4.38c-.86-1.44-1.7-2.9-2.55-4.38q-5.1-9.24-10.52-18.32T701.73,59.23l-7.48-12.9h15.93L736,90.93q4.77-8.28,9.71-17t9.72-17q1.27-2.22,2.94-5.33t2.95-5.34h16.41m0-1H761.3a1,1,0,0,0-.87.51c-.87,1.53-1.87,3.33-3,5.35s-2.08,3.82-2.93,5.32c-3.33,5.77-6.6,11.48-9.72,17-3,5.32-6,10.52-8.84,15.46L711,45.83a1,1,0,0,0-.86-.5H694.25a1,1,0,0,0-.87.5,1,1,0,0,0,0,1l7.49,12.9c3.36,6.09,6.9,12.27,10.51,18.33s7.11,12.15,10.5,18.29c.86,1.51,1.72,3,2.57,4.41.75,1.26,1.5,2.56,2.25,3.87l-33,57.47a1,1,0,0,0,0,1,1,1,0,0,0,.87.5h15.92a1,1,0,0,0,.87-.5c4.08-7.2,8.31-14.56,12.58-21.9q6.09-10.45,12-20.72l24.46,42.62a1,1,0,0,0,.87.5h16.09a1,1,0,0,0,.86-.5,1,1,0,0,0,0-1c-2.5-4.28-5.21-8.94-8-13.85-2.72-4.72-5.5-9.59-8.52-14.89s-5.82-10.19-8.6-15-5.34-9.23-7.84-13.6c.75-1.34,1.47-2.64,2.2-4S749,98,749.91,96.36l28.66-49.53a1,1,0,0,0-.86-1.5Z"/></g></svg>