<svg xmlns="http://www.w3.org/2000/svg" viewBox="0 0 256 200"><defs><style>.cls-1{fill:#e6e6e6;}.cls-2{fill:#780000;}.cls-3{fill:#f31000;}.cls-4{fill:#006dc2;}.cls-5{fill:#00007f;}</style></defs><g id="Vehicle"><path class="cls-1" d="M207.92,108.57v-7.25c-1.07,0-2.13,0-3.19,0a2,2,0,0,1-2-1.77,2.08,2.08,0,0,1,.87-2,4.77,4.77,0,0,1,2.39-.4c.57,0,.41-.51.41-.9,0-.54,0-1.07,0-1.61,0-1.09.08-2.19.09-3.28a19.77,19.77,0,0,0-.83-6.49c-1.89-5.63-5.88-9-11.62-10.38a4.74,4.74,0,0,0-1.07-.06H174.14c-1.95,0-2.52-.53-2.72-2.49A4.27,4.27,0,0,0,167.51,68c-1.13-.09-2.27,0-3.4-.08a2.11,2.11,0,0,1-2.33-2.32q0-4.86,0-9.74a2.11,2.11,0,1,1,4.21,0c0,2.26,0,4.53,0,6.79V63.7c.39,0,.71.06,1,.06a8.47,8.47,0,0,1,8.15,5.72c.15.4.25.73.82.73,4.2,0,8.4,0,12.61,0a6.41,6.41,0,0,0,.67-.1c-.53-1.34-1-2.62-1.52-3.86a40.94,40.94,0,0,0-10.38-14.8,28.1,28.1,0,0,0-19.08-7.1q-37.82,0-75.63,0a9.51,9.51,0,0,1-1.07,0,2.07,2.07,0,0,1-.17-4.1,6.29,6.29,0,0,1,1.06-.07q37.56,0,75.1,0a33.39,33.39,0,0,1,18,4.75,38.69,38.69,0,0,1,12.72,13.19,49.22,49.22,0,0,1,5.11,11.28c.2.66.66.77,1.18.88a20.28,20.28,0,0,1,9.18,4.37,19.38,19.38,0,0,1,6.92,14.74c.06,2.35,0,4.71,0,7.06a1,1,0,0,0,.53,1.1,1.92,1.92,0,0,1,1,1.79c0,3.79,0,7.57,0,11.35a2,2,0,0,1-2.22,2.15q-5,0-10.1,0a2.05,2.05,0,0,1-2.18-2.1,2.09,2.09,0,0,1,2.2-2.1c2.29,0,4.59,0,6.88,0Z"/><path class="cls-2" d="M148.72,65.82c0,3.31,0,6.61,0,9.92a2.1,2.1,0,0,1-2.34,2.3H136.32v2.17c0,2.65,0,5.31,0,8A2.11,2.11,0,0,1,134,90.46c-3.34,0-6.68,0-10,0a2.07,2.07,0,0,1-2.32-2.3c0-3,0-6,0-9,0-.32,0-.64-.06-1h-9.87a2.2,2.2,0,0,1-2.52-2.51q0-4.8,0-9.57c0-1.73.81-2.53,2.5-2.53h9.9c0-.41.06-.73.06-1.05,0-2.95,0-5.89,0-8.84,0-1.83.56-2.49,2.36-2.51,3.42-.06,6.84-.05,10.28,0a2.08,2.08,0,0,1,2,2.3c0,3,0,6,0,8.94v1.19h10C147.94,63.43,148.72,64.19,148.72,65.82Zm-5.15,8c.82,0,1-.25,1-1,0-1.45,0-2.92,0-4.37,0-.7-.24-.85-.88-.85-3,0-6,0-9,0-1.8,0-2.56-.77-2.56-2.57V56.29c0-.34,0-.68,0-1h-6.13v9.42c0,2.27-.67,3-2.91,3h-9.55c0,1.79,0,3.58,0,5.36,0,.69.21.87.87.87,3,0,6,0,9,0,1.76,0,2.55.79,2.55,2.55,0,3,0,5.91,0,8.86,0,.3,0,.62,0,1h6.14V76.42c0-1.83.77-2.58,2.63-2.58C137.67,73.84,140.62,73.79,143.57,73.85Z"/><path class="cls-3" d="M144.56,72.83c0,.77-.17,1-1,1-2.95-.06-5.9,0-8.84,0-1.86,0-2.61.75-2.63,2.58v9.79H126c0-.34,0-.66,0-1,0-3,0-5.91,0-8.86,0-1.76-.79-2.55-2.55-2.55-3,0-6,0-9,0-.66,0-.88-.18-.87-.87.06-1.78,0-3.57,0-5.36H123c2.24,0,2.91-.68,2.91-3V55.25h6.13c0,.36,0,.7,0,1v8.76c0,1.8.76,2.56,2.56,2.57,3,0,6,0,9,0,.64,0,.91.15.88.85C144.52,69.91,144.52,71.38,144.56,72.83Z"/><path class="cls-1" d="M179.52,121a14.51,14.51,0,1,1,0-29c8.26.1,14.77,6.4,14.51,14.89A14.44,14.44,0,0,1,179.52,121Zm-.09-24.78c-4.59-.28-10,3.78-10.23,9.83a10.3,10.3,0,0,0,10.16,10.76,10.3,10.3,0,1,0,.07-20.59Z"/><path class="cls-1" d="M111.91,106.64A14.52,14.52,0,1,1,97.44,92,14.45,14.45,0,0,1,111.91,106.64Zm-24.83,0A10.32,10.32,0,1,0,97.31,96.22,10.35,10.35,0,0,0,87.08,106.59Z"/><path class="cls-1" d="M138.05,112.77H118a2.17,2.17,0,0,1-2.23-1.31,2.05,2.05,0,0,1,1.36-2.77,5.53,5.53,0,0,1,1.41-.13h40a2.18,2.18,0,0,1,2.07,2.16,2.09,2.09,0,0,1-2.17,2c-2.5,0-5,0-7.5,0H138.05Z"/><path class="cls-1" d="M72.58,108.57c1.24,0,2.46,0,3.67,0a2.09,2.09,0,0,1,2.22,2.16,2,2,0,0,1-2,2c-2,0-4.11,0-6.16,0a2,2,0,0,1-2-2.06q-.06-5.73,0-11.44a2.08,2.08,0,0,1,2.16-2.14c.59,0,1.18,0,1.9,0v-1c0-1.82,0-3.64,0-5.45a2.09,2.09,0,0,1,2.12-2.35,2.12,2.12,0,0,1,2.08,2.39c0,2.74,0,5.48,0,8.22a2.15,2.15,0,0,1-2.41,2.43c-.5,0-1,0-1.59,0Z"/><path class="cls-1" d="M119.37,31.91a9.65,9.65,0,1,1,19.25-1.48c.06,1,0,2,0,3a2.11,2.11,0,1,1-4.21,0c0-.71,0-1.43,0-2.14a5.43,5.43,0,1,0-10.85-.07c0,.77,0,1.55,0,2.32a2,2,0,0,1-2.14,2,2.07,2.07,0,0,1-2-2.16C119.35,32.86,119.37,32.36,119.37,31.91Z"/><path class="cls-1" d="M79.26,59.13H89.7a2.13,2.13,0,0,1,2.13,1.17,2,2,0,0,1-1.19,2.89,3.82,3.82,0,0,1-1.06.15H69.14c-.24,0-.48,0-.71,0a2.11,2.11,0,0,1-2-2.16,2.05,2.05,0,0,1,2.08-2c2.62,0,5.23,0,7.85,0Z"/><path class="cls-1" d="M126.21,101.32c-2.74,0-5.47,0-8.21,0a2.12,2.12,0,1,1,0-4.2l13.84,0c.89,0,1.78-.07,2.67-.06a2.12,2.12,0,1,1,0,4.21C131.75,101.33,129,101.32,126.21,101.32Z"/><path class="cls-1" d="M62.86,44.3c-2.62,0-5.24,0-7.86,0a2,2,0,0,1-2-1.51,2,2,0,0,1,.89-2.32,2.87,2.87,0,0,1,1.27-.34q7.72,0,15.44,0a2.08,2.08,0,0,1,2.28,2.1,2.11,2.11,0,0,1-2.3,2.08H62.86Z"/><path class="cls-1" d="M62.48,78.13H67a2.11,2.11,0,1,1,0,4.21q-4.56,0-9.12,0a2.09,2.09,0,0,1-2.33-2.14,2.13,2.13,0,0,1,2.4-2.07c1.52,0,3,0,4.56,0Z"/><path class="cls-1" d="M81.49,78.12c1,0,2.08,0,3.13,0a2.1,2.1,0,1,1,.06,4.2c-2.17,0-4.35,0-6.52,0a2.1,2.1,0,1,1,.11-4.2c1.07,0,2.14,0,3.22,0Z"/><path class="cls-1" d="M54.3,59.14c1.07,0,2.14,0,3.21,0a2.09,2.09,0,0,1,2.18,2,2,2,0,0,1-2.13,2.15c-2.17,0-4.34,0-6.52,0a2.11,2.11,0,0,1-2.18-2.12,2.08,2.08,0,0,1,2.22-2.07C52.15,59.12,53.23,59.14,54.3,59.14Z"/><path class="cls-1" d="M126.9,11.58c0-.89,0-1.78,0-2.67a2.1,2.1,0,1,1,4.19,0c0,1.81,0,3.62,0,5.43a2.11,2.11,0,1,1-4.2-.07C126.89,13.36,126.9,12.47,126.9,11.58Z"/><path class="cls-1" d="M116.84,21.4a5.09,5.09,0,0,1-1.23-.72q-2-1.83-3.79-3.77a2.11,2.11,0,0,1,0-3,2.07,2.07,0,0,1,3,0c1.35,1.29,2.66,2.62,4,4a1.94,1.94,0,0,1,.37,2.31A2.17,2.17,0,0,1,116.84,21.4Z"/><path class="cls-1" d="M148.52,33.2c-.92,0-1.84,0-2.77,0a2.1,2.1,0,1,1-.08-4.19c1.87-.05,3.75-.05,5.63,0a2.09,2.09,0,1,1-.09,4.18c-.9,0-1.79,0-2.69,0Z"/><path class="cls-1" d="M109.49,33.21c-.93,0-1.85,0-2.77,0a2.07,2.07,0,0,1-2.07-1.94,2,2,0,0,1,1.78-2.18c2-.11,4.11-.11,6.16,0a2,2,0,0,1,1.79,2.17,2,2,0,0,1-2,2c-1,0-1.9,0-2.85,0Z"/><path class="cls-1" d="M141,21.41A2.14,2.14,0,0,1,139,20.26a1.81,1.81,0,0,1,.19-2.17c1.41-1.52,2.87-3,4.4-4.4a2,2,0,0,1,2.74.26,1.94,1.94,0,0,1,.11,2.68c-1.39,1.5-2.86,2.93-4.34,4.34A2.77,2.77,0,0,1,141,21.41Z"/></g><g id="Text"><path class="cls-4" d="M57.64,193.26a.51.51,0,0,1-.5-.5V151.88a8.51,8.51,0,0,0-.65-3.29,7.87,7.87,0,0,0-1.8-2.67A9.45,9.45,0,0,0,52,144.1a7.84,7.84,0,0,0-3.24-.68,8.13,8.13,0,0,0-3.28.68,9.38,9.38,0,0,0-2.73,1.82,8.16,8.16,0,0,0-1.8,2.67,8.51,8.51,0,0,0-.65,3.29v40.88a.5.5,0,0,1-.5.5H33.07a.5.5,0,0,1-.5-.5V151.88a8.51,8.51,0,0,0-.65-3.29,8,8,0,0,0-1.8-2.67,9.38,9.38,0,0,0-2.73-1.82,8.25,8.25,0,0,0-6.56,0,9.38,9.38,0,0,0-2.73,1.82,8,8,0,0,0-1.8,2.67,8.51,8.51,0,0,0-.65,3.29v40.88a.5.5,0,0,1-.5.5H8.49a.51.51,0,0,1-.5-.5V151.88a15.62,15.62,0,0,1,1.27-6.25,16.78,16.78,0,0,1,3.43-5.13A15.84,15.84,0,0,1,17.83,137a16.08,16.08,0,0,1,6.28-1.26,15.67,15.67,0,0,1,7.15,1.66,17,17,0,0,1,5.17,4,16.15,16.15,0,0,1,5.14-4,15.93,15.93,0,0,1,7.19-1.66A15.69,15.69,0,0,1,55,137a16.26,16.26,0,0,1,5.13,3.47,16.6,16.6,0,0,1,3.47,5.13,15.69,15.69,0,0,1,1.27,6.25v40.88a.5.5,0,0,1-.5.5Z"/><path class="cls-5" d="M48.76,136.26a15.21,15.21,0,0,1,6.05,1.22,15.82,15.82,0,0,1,8.34,8.35,15,15,0,0,1,1.23,6v40.88H57.64V151.88a8.94,8.94,0,0,0-.69-3.49A8.57,8.57,0,0,0,55,145.56a9.87,9.87,0,0,0-2.83-1.91,8.22,8.22,0,0,0-3.45-.73,8.42,8.42,0,0,0-3.48.73,9.54,9.54,0,0,0-2.87,1.91,8.45,8.45,0,0,0-1.92,2.83,8.94,8.94,0,0,0-.69,3.49v40.88H33.07V151.88a8.94,8.94,0,0,0-.69-3.49,8.45,8.45,0,0,0-1.92-2.83,9.54,9.54,0,0,0-2.87-1.91,8.66,8.66,0,0,0-7,0,9.54,9.54,0,0,0-2.87,1.91,8.45,8.45,0,0,0-1.92,2.83,8.94,8.94,0,0,0-.69,3.49v40.88H8.49V151.88a15,15,0,0,1,1.23-6,16,16,0,0,1,3.33-5,15.34,15.34,0,0,1,5-3.37,15.51,15.51,0,0,1,6.09-1.22A15.16,15.16,0,0,1,31,137.87a16.23,16.23,0,0,1,5.4,4.36,15.52,15.52,0,0,1,12.32-6m0-1A16.47,16.47,0,0,0,41.35,137a16.69,16.69,0,0,0-4.93,3.72A17.15,17.15,0,0,0,31.49,137a16.16,16.16,0,0,0-7.38-1.72,16.48,16.48,0,0,0-11.78,4.89,17.34,17.34,0,0,0-3.53,5.28,16.14,16.14,0,0,0-1.31,6.45v40.88a1,1,0,0,0,1,1h6.66a1,1,0,0,0,1-1V151.88a8.08,8.08,0,0,1,.61-3.1,7.67,7.67,0,0,1,1.69-2.5A9.09,9.09,0,0,1,21,144.56a7.73,7.73,0,0,1,6.16,0,9.09,9.09,0,0,1,2.58,1.72,7.67,7.67,0,0,1,1.69,2.5,8.08,8.08,0,0,1,.61,3.1v40.88a1,1,0,0,0,1,1H39.8a1,1,0,0,0,1-1V151.88a7.91,7.91,0,0,1,.62-3.1,7.39,7.39,0,0,1,1.68-2.5,9.09,9.09,0,0,1,2.58-1.72,7.65,7.65,0,0,1,3.08-.64,7.32,7.32,0,0,1,3,.64,8.81,8.81,0,0,1,2.55,1.72,7.37,7.37,0,0,1,1.69,2.5,7.9,7.9,0,0,1,.61,3.1v40.88a1,1,0,0,0,1,1h6.74a1,1,0,0,0,1-1V151.88a16.14,16.14,0,0,0-1.31-6.45,16.93,16.93,0,0,0-8.86-8.86,16.14,16.14,0,0,0-6.45-1.31Z"/><path class="cls-4" d="M93,194.18a20,20,0,0,1-8-1.61,20.74,20.74,0,0,1-10.9-10.87,19.62,19.62,0,0,1-1.61-7.93,20.46,20.46,0,0,1,6-14.52A21.29,21.29,0,0,1,85,154.9a20.53,20.53,0,0,1,15.94,0,20.23,20.23,0,0,1,10.82,10.87,20.2,20.2,0,0,1,1.61,8v1.15c0,.43,0,1.12-.15,2.12a.51.51,0,0,1-.5.45h-32a12,12,0,0,0,1.53,3.28,13.85,13.85,0,0,0,2.81,3.1,12.21,12.21,0,0,0,3.64,2.06,12.51,12.51,0,0,0,4.31.74,7.36,7.36,0,0,0,3.44-.9,14.93,14.93,0,0,0,3.41-2.48.47.47,0,0,1,.35-.14.5.5,0,0,1,.35.15l4.59,4.59a.48.48,0,0,1,.15.36.51.51,0,0,1-.15.35,22.2,22.2,0,0,1-5.68,4A14.45,14.45,0,0,1,93,194.18ZM105.27,170a15.11,15.11,0,0,0-1.54-3.25,12.41,12.41,0,0,0-2.76-3.09,13,13,0,0,0-3.65-2,13.09,13.09,0,0,0-8.62,0,13,13,0,0,0-3.65,2,13.16,13.16,0,0,0-2.8,3.09A13,13,0,0,0,80.73,170Z"/><path class="cls-5" d="M93,153.79a19.48,19.48,0,0,1,7.77,1.57A19.74,19.74,0,0,1,111.35,166a19.8,19.8,0,0,1,1.56,7.81v1.15q0,.62-.15,2.07H80.07a12.84,12.84,0,0,0,1.76,4.06,14.85,14.85,0,0,0,2.91,3.21,12.64,12.64,0,0,0,3.79,2.14,13,13,0,0,0,4.48.77,7.89,7.89,0,0,0,3.68-1,15.51,15.51,0,0,0,3.52-2.56l4.59,4.59a21.55,21.55,0,0,1-5.55,3.94,13.91,13.91,0,0,1-6.24,1.5,19.48,19.48,0,0,1-7.77-1.57A20.24,20.24,0,0,1,74.6,181.5,19,19,0,0,1,73,173.77a19.88,19.88,0,0,1,5.86-14.16,20.45,20.45,0,0,1,6.35-4.25A19.48,19.48,0,0,1,93,153.79M80.07,170.48H106a15.46,15.46,0,0,0-1.8-4,12.81,12.81,0,0,0-2.87-3.21,13.24,13.24,0,0,0-3.79-2.11,13.58,13.58,0,0,0-9,0,13.24,13.24,0,0,0-3.79,2.11,13.57,13.57,0,0,0-2.91,3.21,13.34,13.34,0,0,0-1.76,4M93,152.79a20.6,20.6,0,0,0-8.17,1.65,21.51,21.51,0,0,0-6.66,4.46,20.87,20.87,0,0,0-4.5,6.67,20.64,20.64,0,0,0-1.65,8.2,20.27,20.27,0,0,0,1.65,8.13A21.23,21.23,0,0,0,84.84,193,20.6,20.6,0,0,0,93,194.68a15,15,0,0,0,6.68-1.6A22.79,22.79,0,0,0,105.5,189a1,1,0,0,0,.3-.71,1,1,0,0,0-.29-.72l-4.6-4.59a1,1,0,0,0-.7-.29,1,1,0,0,0-.69.28,14.49,14.49,0,0,1-3.3,2.4,6.9,6.9,0,0,1-3.21.84,12,12,0,0,1-4.14-.71,11.76,11.76,0,0,1-3.49-2,13.35,13.35,0,0,1-2.71-3,11.27,11.27,0,0,1-1.26-2.5h31.35a1,1,0,0,0,1-.9c.1-1,.15-1.72.15-2.17v-1.15a20.71,20.71,0,0,0-1.65-8.2,21.1,21.1,0,0,0-4.46-6.67,21.33,21.33,0,0,0-6.62-4.46A20.64,20.64,0,0,0,93,152.79ZM81.43,169.48A11.9,11.9,0,0,1,82.67,167a12.41,12.41,0,0,1,2.69-3,12.65,12.65,0,0,1,3.51-1.95,12.59,12.59,0,0,1,8.28,0,12.65,12.65,0,0,1,3.51,1.95,11.76,11.76,0,0,1,2.64,3,14.1,14.1,0,0,1,1.26,2.48Z"/><path class="cls-4" d="M139.33,194a19.77,19.77,0,0,1-7.94-1.61,21.15,21.15,0,0,1-6.46-4.36,20.38,20.38,0,0,1-4.4-6.47,20.53,20.53,0,0,1,0-15.94,20.67,20.67,0,0,1,10.86-10.9,19.74,19.74,0,0,1,7.94-1.61,19.94,19.94,0,0,1,7.5,1.42,21.62,21.62,0,0,1,5.39,3.14v-21a.51.51,0,0,1,.5-.5h6.51a.5.5,0,0,1,.5.5v36.9a20,20,0,0,1-1.61,8,20.31,20.31,0,0,1-10.83,10.83A19.94,19.94,0,0,1,139.33,194Zm0-33.3a12.84,12.84,0,0,0-5,1,12.42,12.42,0,0,0-4.08,2.76,13.73,13.73,0,0,0-2.77,4.14,12.68,12.68,0,0,0,0,10,13.11,13.11,0,0,0,2.76,4.09,13.36,13.36,0,0,0,4.1,2.77,12.68,12.68,0,0,0,10,0,13.91,13.91,0,0,0,4.14-2.77,12.46,12.46,0,0,0,2.76-4.09,13.17,13.17,0,0,0,0-10,12.74,12.74,0,0,0-6.89-6.89A12.8,12.8,0,0,0,139.33,160.65Z"/><path class="cls-5" d="M159.23,136.64v36.9a19.3,19.3,0,0,1-1.57,7.77,19.84,19.84,0,0,1-10.56,10.57,19.55,19.55,0,0,1-7.77,1.57,19.26,19.26,0,0,1-7.74-1.57,20.75,20.75,0,0,1-6.31-4.25,19.86,19.86,0,0,1-4.29-6.32,20,20,0,0,1,0-15.54,20.27,20.27,0,0,1,10.6-10.64,20,20,0,0,1,15-.19,20.92,20.92,0,0,1,6.08,3.75V136.64h6.51m-19.9,50.3a12.91,12.91,0,0,0,5.2-1.07,14.28,14.28,0,0,0,4.29-2.87,13,13,0,0,0,2.87-4.25,13.47,13.47,0,0,0-2.87-14.7,13.41,13.41,0,0,0-4.29-2.87,13.67,13.67,0,0,0-10.41,0,13,13,0,0,0-4.25,2.87,14,14,0,0,0-2.87,4.29,13.19,13.19,0,0,0,0,10.41,13.67,13.67,0,0,0,2.87,4.25,13.85,13.85,0,0,0,4.25,2.87,12.92,12.92,0,0,0,5.21,1.07m19.9-51.3h-6.51a1,1,0,0,0-1,1v20A22.66,22.66,0,0,0,147,154a21,21,0,0,0-15.81.2,21.2,21.2,0,0,0-11.13,11.17,21,21,0,0,0,0,16.33,20.78,20.78,0,0,0,4.51,6.63,21.42,21.42,0,0,0,6.62,4.45,20.14,20.14,0,0,0,8.13,1.66,20.59,20.59,0,0,0,8.16-1.65,21.49,21.49,0,0,0,6.63-4.46,21.14,21.14,0,0,0,4.46-6.63,20.43,20.43,0,0,0,1.65-8.17v-36.9a1,1,0,0,0-1-1Zm-19.9,50.3a11.87,11.87,0,0,1-4.81-1,12.48,12.48,0,0,1-6.6-6.6,12.16,12.16,0,0,1,0-9.61,13.11,13.11,0,0,1,2.67-4,12,12,0,0,1,3.92-2.65,12.44,12.44,0,0,1,16.26,16.26,12,12,0,0,1-2.65,3.92,13.11,13.11,0,0,1-4,2.67,11.82,11.82,0,0,1-4.8,1Z"/><path class="cls-4" d="M166.5,193.26a.51.51,0,0,1-.5-.5V136.87a.51.51,0,0,1,.5-.5h34.68a.5.5,0,0,1,.5.5v6.74a.5.5,0,0,1-.5.5H173.67V161h24a.5.5,0,0,1,.5.5v6.73a.5.5,0,0,1-.5.5h-24V185.6h27.51a.5.5,0,0,1,.5.5v6.66a.5.5,0,0,1-.5.5Z"/><path class="cls-5" d="M201.18,136.87v6.74h-28v17.84h24.5v6.73h-24.5V186.1h28v6.66H166.5V136.87h34.68m0-1H166.5a1,1,0,0,0-1,1v55.89a1,1,0,0,0,1,1h34.68a1,1,0,0,0,1-1V186.1a1,1,0,0,0-1-1h-27V169.18h23.5a1,1,0,0,0,1-1v-6.73a1,1,0,0,0-1-1h-23.5V144.61h27a1,1,0,0,0,1-1v-6.74a1,1,0,0,0-1-1Z"/><path class="cls-4" d="M240.61,193.26a.52.52,0,0,1-.44-.25l-11.74-20.46-5.76,9.93c-2,3.52-4.08,7.06-6,10.53a.5.5,0,0,1-.43.25h-7.66a.5.5,0,0,1-.43-.25.5.5,0,0,1,0-.5L224,164.89c-.37-.62-.72-1.24-1.08-1.85s-.82-1.39-1.23-2.11c-1.64-3-3.34-5.93-5.05-8.8s-3.44-5.88-5.06-8.82L208,137.12a.5.5,0,0,1,0-.5.5.5,0,0,1,.43-.25H216a.52.52,0,0,1,.44.25l12,20.69c1.4-2.42,2.81-4.88,4.24-7.4q2.37-4.17,4.67-8.16.61-1.06,1.41-2.55c.54-1,1-1.86,1.42-2.58a.52.52,0,0,1,.44-.25h7.88a.52.52,0,0,1,.44.25.5.5,0,0,1,0,.5l-13.78,23.81c-.46.81-.85,1.52-1.18,2.13L232.92,165q1.77,3.1,3.76,6.52c1.38,2.38,2.75,4.78,4.13,7.2s2.74,4.81,4.1,7.16,2.64,4.56,3.86,6.66a.5.5,0,0,1,0,.5.5.5,0,0,1-.43.25Z"/><path class="cls-5" d="M248.49,136.87l-13.78,23.81c-.46.82-.85,1.53-1.18,2.15L232.34,165l3.9,6.77q2.07,3.57,4.14,7.2t4.09,7.16l3.87,6.66h-7.73l-12.17-21.21c-2.05,3.52-4.11,7.08-6.21,10.68s-4.1,7.11-6,10.53h-7.66l16-27.87-1.22-2.1c-.41-.69-.82-1.39-1.23-2.11q-2.45-4.44-5.05-8.8T212,143.07l-3.6-6.2H216l12.41,21.44q2.3-4,4.67-8.15c1.58-2.79,3.13-5.5,4.67-8.16.4-.71.88-1.57,1.41-2.56s1-1.85,1.42-2.57h7.88m0-1h-7.88a1,1,0,0,0-.87.51c-.42.74-.9,1.61-1.43,2.58s-1,1.83-1.4,2.55q-2.29,4-4.67,8.15-1.94,3.39-3.81,6.65L216.9,136.37a1,1,0,0,0-.87-.5h-7.65a1,1,0,0,0-.87.5,1,1,0,0,0,0,1l3.6,6.2c1.61,2.93,3.32,5.9,5.06,8.82s3.41,5.83,5,8.78c.41.73.82,1.43,1.24,2.13q.47.78.93,1.59l-15.72,27.37a1,1,0,0,0,0,1,1,1,0,0,0,.86.5h7.66a1,1,0,0,0,.87-.51c2-3.45,4-7,6-10.52l5.33-9.18,11.31,19.71a1,1,0,0,0,.87.5h7.73a1,1,0,0,0,.86-1.51q-1.83-3.13-3.86-6.65t-4.09-7.15c-1.41-2.48-2.8-4.91-4.14-7.21s-2.48-4.28-3.62-6.28c.35-.61.65-1.17.92-1.66l1.17-2.13,13.78-23.8a1,1,0,0,0,0-1,1,1,0,0,0-.87-.5Z"/></g></svg>