<svg enable-background="new 0 0 405.7 316.5" height="316.5" viewBox="0 0 405.7 316.5" width="405.7" xmlns="http://www.w3.org/2000/svg"><path d="m76.1 215.3c0 2.2 1.8 4 4 4h12.5c2.2 0 4-1.8 4-4v-3.6c0-1.7-1.4-3-3-3-1.7 0-3-1.4-3-3 0-3.1 0-8.1 0-11.5 0-2.2-1.8-4-4-4-2 0-4.4 0-6.4 0-2.2 0-4 1.8-4 4-.1 5.5-.1 15.6-.1 21.1z" fill="#142664"/><path d="m175.4 287.3c0-2.2-1.8-4-4-4-2.4 0-5.4 0-7.8 0-2.2 0-4 1.8-4 4v4.6c0 .6.2 1.1.6 1.5s1 .6 1.5.6c.6 0 1.1.2 1.5.6s.6 1 .6 1.5v4c0 2.2 1.8 4 4 4h3.4c2.2 0 4-1.8 4-4 .2-3.5.2-9 .2-12.8z" fill="#142664"/><path d="m282.1 247.6c0-2.2-1.8-4-4-4-5.4 0-14.8 0-20.2 0-2.2 0-4 1.8-4 4v11.3c0 2.2 1.8 4 4 4h3c2.2 0 4 1.8 4 4v33.4c0 1.1.4 2.1 1.2 2.8.8.8 1.8 1.2 2.8 1.2h9.2c1.1 0 2.1-.4 2.8-1.2.8-.8 1.2-1.8 1.2-2.8 0-11 0-41.7 0-52.7z" fill="#142664"/><path d="m405.7 157.3c0 1.1-.4 2.1-1.2 2.9s-1.8 1.2-2.9 1.2c-5.6 0-15.6 0-21.2 0-1.1 0-2.1-.4-2.9-1.2s-1.2-1.8-1.2-2.9c0-1.4 0-3 0-4.4 0-1.1-.4-2.1-1.2-2.9s-1.8-1.2-2.9-1.2h-4.5c-2.3 0-4.1-1.8-4.1-4.1 0-.6 0-1.3 0-1.9 0-2.3-1.8-4.1-4.1-4.1-8.3 0-27.2 0-35.6 0-2.2 0-4.1 1.8-4.1 4.1v33.9c0 2.3-1.8 4.1-4.1 4.1-1.3 0-2.8 0-4.2 0-2.3 0-4.1-1.8-4.1-4.1 0-1.6 0-3.5 0-5.1 0-2.2-1.8-4.1-4.1-4.1-5.1 0-13.7 0-18.7 0-1.1 0-2.1-.4-2.9-1.2s-1.2-1.8-1.2-2.9 0-2.2 0-3.3-.4-2.1-1.2-2.9-1.8-1.2-2.9-1.2c-4.9 0-13.2 0-18.1 0-2.2 0-4.1 1.8-4.1 4.1v22.7c0 1.1-.4 2.1-1.2 2.9s-1.8 1.2-2.9 1.2h-14.5c-1.1 0-2.1-.4-2.9-1.2s-1.2-1.8-1.2-2.9c0-7.8 0-24.8 0-32.6 0-2.2-1.8-4.1-4.1-4.1-2.8 0-6.5 0-9.3 0-2.3 0-4.1 1.8-4.1 4.1v9.5c0 2.2-1.8 4.1-4.1 4.1-3.1 0-7.2 0-10.3 0-2.3 0-4.1-1.8-4.1-4.1 0-6.1 0-17.5 0-23.5 0-1.1-.4-2.1-1.2-2.9s-1.8-1.2-2.9-1.2c-4.7 0-12.4 0-17.1 0-1.1 0-2.1.4-2.9 1.2s-1.2 1.8-1.2 2.9v48.8c0 1.1-.4 2.1-1.2 2.9s-1.8 1.2-2.9 1.2c-7.9 0-25.1 0-33 0-2.2 0-4.1-1.8-4.1-4.1 0-2.1 0-4.7 0-6.7 0-2.3-1.8-4.1-4.1-4.1-6.5 0-19.3 0-25.9 0-1.1 0-2.1-.4-2.9-1.2s-1.2-1.8-1.2-2.9c0-.8 0-1.7 0-2.5 0-1.1-.4-2.1-1.2-2.9s-1.8-1.2-2.9-1.2c-4.9 0-12.9 0-17.8 0-1.1 0-2.1-.4-2.9-1.2s-1.2-1.8-1.2-2.9c0-2.8 0-6.5 0-9.3 0-1.1-.4-2.1-1.2-2.9s-1.8-1.2-2.9-1.2c-2.5 0-5.8 0-8.4 0-2.2 0-4.1 1.8-4.1 4.1v26.7c0 2.2-1.8 4.1-4.1 4.1-1.8 0-4 0-5.9 0-2.2 0-4.1 1.8-4.1 4.1v32c0 2.3-1.8 4.1-4.1 4.1-4.9 0-13.1 0-18 0-1.1 0-2.1-.4-2.9-1.2s-1.2-1.8-1.2-2.9c0-3.4 0-8.2 0-11.6 0-2.2-1.8-4.1-4.1-4.1-1.2 0-2.6 0-3.8 0-1.1 0-2.1-.4-2.9-1.2s-1.2-1.8-1.2-2.9c-0-21.8-0-124.1-0-124.1h404.7z" fill="#00e6b3"/><path d="m264.9 156.1c8.4-26.8 33.4-46.3 63-46.3 31.5 0 57.8 22.1 64.4 51.6h-11.9c-1.1 0-2.1-.4-2.9-1.2s-1.2-1.8-1.2-2.9c0-1.4 0-3 0-4.4 0-1.1-.4-2.1-1.2-2.9s-1.8-1.2-2.9-1.2h-4.5c-2.3 0-4.1-1.8-4.1-4.1 0-.6 0-1.3 0-1.9 0-2.3-1.8-4.1-4.1-4.1-8.3 0-27.2 0-35.6 0-2.2 0-4.1 1.8-4.1 4.1v33.9c0 2.3-1.8 4.1-4.1 4.1-1.3 0-2.8 0-4.2 0-2.3 0-4.1-1.8-4.1-4.1 0-1.6 0-3.5 0-5.1 0-2.2-1.8-4.1-4.1-4.1-5.1 0-13.7 0-18.7 0-1.1 0-2.1-.4-2.9-1.2s-1.2-1.8-1.2-2.9 0-2.2 0-3.3-.4-2.1-1.2-2.9-1.8-1.2-2.9-1.2z" fill="#142664"/><path d="m281.7 166 57.2-68.1c1.6-1.8 4-2.6 6.4-2 2.3.6 4.1 2.5 4.5 4.9l6.7 37.9h-32.4c-2.2 0-4.1 1.8-4.1 4.1v33.9c0 2.3-1.8 4.1-4.1 4.1-1.3 0-2.8 0-4.2 0-2.3 0-4.1-1.8-4.1-4.1 0-1.6 0-3.5 0-5.1 0-2.2-1.8-4.1-4.1-4.1-5.1 0-13.7 0-18.7 0-1.1 0-2.1-.4-2.9-1.2-.1-.1-.1-.2-.2-.3z" fill="#ff2e93"/><path d="m405.7 32.4c0-2.7-1.1-5.3-3-7.2s-4.5-3-7.2-3c-56.1 0-328.3 0-384.4 0-2.7 0-5.3 1.1-7.2 3s-3 4.5-3 7.2v41h404.7v-41z" fill="#142664"/><path d="m96 42.9c1.3-1.3 1.7-3.3 1-5s-2.4-2.8-4.2-2.8c-15.5 0-42.5 0-49.9 0-1.2 0-2.4.5-3.2 1.3-3 3-10.5 10.4-16.3 16.3-1.3 1.3-1.7 3.3-1 5s2.4 2.8 4.2 2.8h49.9c1.2 0 2.4-.5 3.2-1.3 3-3 10.5-10.5 16.3-16.3z" fill="#fff"/><path d="m194.6 31.3v32.4c0 1.2.9 2.1 2.1 2.1s2.1-.9 2.1-2.1v-32.4c0-1.2-.9-2.1-2.1-2.1-1.1-.1-2.1.9-2.1 2.1z" fill="#00e6b3"/><path d="m245 31.3v32.4c0 1.2.9 2.1 2.1 2.1s2.1-.9 2.1-2.1v-32.4c0-1.2-.9-2.1-2.1-2.1s-2.1.9-2.1 2.1z" fill="#00e6b3"/><path d="m187 45.3c0-.6-.2-1.1-.6-1.5s-1-.6-1.6-.6c-5.7 0-20.8 0-26.5 0-.6 0-1.1.2-1.5.6s-.6 1-.6 1.5v4.9c0 .6.2 1.1.6 1.5s1 .6 1.5.6h26.5c.6 0 1.1-.2 1.6-.6.4-.4.6-1 .6-1.5 0-1.5 0-3.4 0-4.9z" fill="#00e6b3"/><path d="m237.4 45.3c0-.6-.2-1.1-.6-1.5s-1-.6-1.5-.6c-5.7 0-20.8 0-26.5 0-.6 0-1.1.2-1.5.6s-.6 1-.6 1.5v4.9c0 .6.2 1.1.6 1.5s1 .6 1.5.6h26.5c.6 0 1.1-.2 1.5-.6s.6-1 .6-1.5c0-1.5 0-3.4 0-4.9z" fill="#00e6b3"/><path d="m287.8 45.3c0-.6-.2-1.1-.6-1.5s-1-.6-1.5-.6c-5.7 0-20.8 0-26.5 0-.6 0-1.1.2-1.5.6s-.6 1-.6 1.5v4.9c0 .6.2 1.1.6 1.5s1 .6 1.5.6h26.5c.6 0 1.1-.2 1.5-.6s.6-1 .6-1.5c0-1.5 0-3.4 0-4.9z" fill="#00e6b3"/><circle cx="332.8" cy="47.5" fill="#ff2e93" r="16.2"/><circle cx="8.4" cy="7.4" fill="#ff2e93" r="7.4"/><circle cx="32.3" cy="7.4" fill="#142664" r="7.4"/><circle cx="56.3" cy="7.4" fill="#00e6b3" r="7.4"/><circle cx="375.1" cy="47.5" fill="#ff2e93" r="16.2"/><path d="m59.7 97.5c0-1.1-.4-2.2-1.2-2.9-.8-.8-1.8-1.2-2.9-1.2-3.6 0-8.7 0-12.3 0-1.1 0-2.2.4-2.9 1.2-.8.8-1.2 1.8-1.2 2.9v8.6c0 1.1.4 2.2 1.2 2.9s1.8 1.2 2.9 1.2h12.3c1.1 0 2.2-.4 2.9-1.2s1.2-1.8 1.2-2.9c0-2.6 0-6 0-8.6z" fill="#fff"/><path d="m209.8 97.5c0-2.3-1.9-4.2-4.2-4.2-20.3 0-108.6 0-128.8 0-2.3 0-4.2 1.9-4.2 4.2v8.6c0 2.3 1.9 4.2 4.2 4.2h128.8c2.3 0 4.2-1.9 4.2-4.2 0-2.6 0-6 0-8.6z" fill="#fff"/><path d="m269.4 97.5c0-2.3-1.9-4.2-4.2-4.2h-38.2c-2.3 0-4.2 1.9-4.2 4.2v8.6c0 2.3 1.9 4.2 4.2 4.2h38.2c2.3 0 4.2-1.9 4.2-4.2z" fill="#fff"/><path d="m384.7 49.3v-3.8l-2.9-.7c0-.1-.1-.2-.1-.3l1.6-2.5-2.7-2.7-2.5 1.6c-.1 0-.2-.1-.3-.1l-.7-2.9h-3.8l-.7 2.9c-.1.1-.2.1-.3.1l-2.5-1.6-2.7 2.7 1.6 2.5c0 .1-.1.2-.1.3l-2.9.7v3.8l2.9.7c0 .1.1.2.1.3l-1.6 2.5 2.7 2.7 2.5-1.6c.1 0 .2.1.3.1l.7 2.9h3.8l.7-2.9c.1 0 .2-.1.3-.1l2.5 1.6 2.7-2.7-1.6-2.5c0-.1.1-.2.1-.3zm-9.6 1.3c-1.8 0-3.2-1.5-3.2-3.2s1.4-3.2 3.2-3.2 3.2 1.5 3.2 3.2c0 1.8-1.5 3.2-3.2 3.2z" fill="#fff"/><path d="m58 135.1c.7 0 1.5.3 2 .8s.8 1.2.8 2v1.6c0 .7-.3 1.5-.8 2s-1.2.8-2 .8c-4.2 0-12 0-16.1 0-.7 0-1.5-.3-2-.8s-.8-1.2-.8-2c0-.5 0-1.1 0-1.6 0-.7.3-1.5.8-2s1.2-.8 2-.8zm61.8 4.5c0 .7-.3 1.5-.8 2s-1.2.8-2 .8c-9.1 0-37.8 0-46.9 0-.7 0-1.5-.3-2-.8s-.8-1.2-.8-2c0-.5 0-1.1 0-1.6 0-.7.3-1.5.8-2s1.2-.8 2-.8h46.9c.7 0 1.5.3 2 .8s.8 1.2.8 2zm50.8 2.8h-41.7c-.7 0-1.5-.3-2-.8s-.8-1.2-.8-2c0-.5 0-1.1 0-1.6 0-.7.3-1.5.8-2s1.2-.8 2-.8h41.7zm45.5-2.8c0 .7-.3 1.5-.8 2s-1.2.8-2 .8c-2.9 0-7.5 0-10.4 0-.7 0-1.5-.3-2-.8s-.8-1.2-.8-2c0-.5 0-1.1 0-1.6 0-.7.3-1.5.8-2s1.2-.8 2-.8h10.4c.7 0 1.5.3 2 .8s.8 1.2.8 2zm6.4-1.7c0-.7.3-1.5.8-2s1.2-.8 2-.8h15.8c.7 0 1.5.3 2 .8s.8 1.2.8 2v1.6c0 .7-.3 1.5-.8 2s-1.2.8-2 .8c-4.1 0-11.7 0-15.8 0-.7 0-1.5-.3-2-.8s-.8-1.2-.8-2c0-.5 0-1 0-1.6z" fill="#142664"/><path d="m85.3 121.4c1.6 0 2.8 1.3 2.8 2.8v1.6c0 1.6-1.3 2.8-2.8 2.8-8.7 0-34.8 0-43.4 0-1.6 0-2.8-1.3-2.8-2.8 0-.5 0-1.1 0-1.6 0-1.6 1.3-2.8 2.8-2.8zm22.4 4.5c0 .7-.3 1.5-.8 2s-1.2.8-2 .8c-2.2 0-5.3 0-7.5 0-.7 0-1.5-.3-2-.8s-.8-1.2-.8-2c0-.5 0-1.1 0-1.6 0-.7.3-1.5.8-2s1.2-.8 2-.8h7.5c.7 0 1.5.3 2 .8s.8 1.2.8 2zm81.7 0c0 .7-.3 1.5-.8 2s-1.2.8-2 .8c-11.9 0-57.8 0-69.7 0-.7 0-1.5-.3-2-.8s-.8-1.2-.8-2c0-.5 0-1.1 0-1.6 0-.7.3-1.5.8-2s1.2-.8 2-.8h69.7c.7 0 1.5.3 2 .8s.8 1.2.8 2zm6.3-1.7c0-.7.3-1.5.8-2s1.2-.8 2-.8h42.5c.7 0 1.5.3 2 .8s.8 1.2.8 2v1.6c0 .7-.3 1.5-.8 2s-1.2.8-2 .8c-8.5 0-34 0-42.5 0-.7 0-1.5-.3-2-.8s-.8-1.2-.8-2c0-.5 0-1 0-1.6z" fill="#142664"/><path d="m53.1 148.8v7.3h-11.2c-.7 0-1.5-.3-2-.8s-.8-1.2-.8-2c0-.5 0-1.1 0-1.6 0-.7.3-1.5.8-2s1.2-.8 2-.8c4.1-.1 11.2-.1 11.2-.1zm70.4 4.5c0 1.6-1.3 2.8-2.8 2.8-5.4 0-17.1 0-22.5 0-1.6 0-2.8-1.3-2.8-2.8 0-.5 0-1.1 0-1.6 0-1.6 1.3-2.8 2.8-2.8h22.5c1.6 0 2.8 1.3 2.8 2.8zm16.6 0c0 1.6-1.3 2.8-2.8 2.8-1.4 0-3.2 0-4.6 0-1.6 0-2.8-1.3-2.8-2.8 0-.5 0-1.1 0-1.6 0-1.6 1.3-2.8 2.8-2.8h4.6c1.6 0 2.8 1.3 2.8 2.8zm30.5-4.5v7.3h-21.3c-.7 0-1.5-.3-2-.8s-.8-1.2-.8-2c0-.5 0-1.1 0-1.6 0-.7.3-1.5.8-2s1.2-.8 2-.8c6.4-.1 21.3-.1 21.3-.1zm25.3 0h9.5c1.6 0 2.8 1.3 2.8 2.8v1.6c0 1.6-1.3 2.8-2.8 2.8-3.6 0-9.5 0-9.5 0zm-121 2.8c0-.7.3-1.5.8-2s1.2-.8 2-.8h8.4c.7 0 1.5.3 2 .8s.8 1.2.8 2v1.6c0 .7-.3 1.5-.8 2s-1.2.8-2 .8c-2.5 0-6 0-8.4 0-.7 0-1.5-.3-2-.8s-.8-1.2-.8-2c0-.5 0-1 0-1.6z" fill="#142664"/><path d="m113.6 49.1c1.3-1.3 1.7-3.3 1-5s-2.4-2.8-4.2-2.8c-12.5 0-31.9 0-38 0-1.2 0-2.4.5-3.2 1.3-1 1-2.4 2.4-4 4-1.3 1.3-1.7 3.3-1 5s2.4 2.8 4.2 2.8h38c1.2 0 2.4-.5 3.2-1.3 1-1.1 2.5-2.5 4-4z" fill="#ff2e93"/><path d="m58.2 49.1c1.3-1.3 1.7-3.3 1-5s-2.4-2.8-4.2-2.8c-4 0-8.1 0-10.5 0-1.2 0-2.4.5-3.2 1.3-1 1-2.4 2.4-4 4-1.3 1.3-1.7 3.3-1 5s2.4 2.8 4.2 2.8h10.5c1.2 0 2.4-.5 3.2-1.3 1.1-1.1 2.5-2.5 4-4z" fill="#ff2e93"/><path d="m46.3 296.3c-1.6 0-2.8-1.3-2.8-2.8 0-6.1 0-20.3 0-27.2 0-1.1.4-2.1 1.2-2.8.8-.8 1.8-1.2 2.8-1.2h7.1s4 1.8 4 4v1.8c0 1.1.4 2.1 1.2 2.8.8.8 1.8 1.2 2.8 1.2h2.1c1.1 0 2.1.4 2.8 1.2.8.8 1.2 1.8 1.2 2.8v21.1c0 1.1-.4 2.1-1.2 2.8-.8.8-1.8 1.2-2.8 1.2-1.2 0-2.4 0-3.6 0-2.2 0-4 1.8-4 4v.3c0 2.2-1.8 4-4 4-2.2 0-4-1.8-4-4 0-2.1 0-4.6 0-6.4.1-1.6-1.2-2.8-2.8-2.8z" fill="#00e6b3"/><path d="m262.9 228.5c-1.1 0-1.9-.9-1.9-1.9 0-4.7 0-16.8 0-22 0-1.3 1.1-2.4 2.4-2.4h3.3c.7 0 1.4.3 1.9.8s.8 1.2.8 1.9c0 .7.3 1.4.8 1.9s1.2.8 1.9.8h.1c.7 0 1.5.3 2 .8s.8 1.2.8 2v9.4c0 1.1-.4 2.1-1.2 2.8-.8.8-1.8 1.2-2.8 1.2-.2 0-.4 0-.5 0-.5 0-1 .2-1.4.6s-.6.9-.6 1.4v.8c0 .5-.2 1-.6 1.4s-.9.6-1.4.6c-1-.1-2.4-.1-3.6-.1z" fill="#ff2e93"/><path d="m32 244.9c0-1.1-.4-2.1-1.2-2.8-.8-.8-1.8-1.2-2.8-1.2h-5.2c-1.1 0-2.1.4-2.8 1.2s-1.2 1.8-1.2 2.8v5.2c0 1.1.4 2.1 1.2 2.8.8.8 1.8 1.2 2.8 1.2h5.2c1.1 0 2.1-.4 2.8-1.2.8-.8 1.2-1.8 1.2-2.8z" fill="#ff2e93"/><path d="m323.5 56.1c0-4.3.8-7.8 6.4-8.7-1.5-1-2.5-2.7-2.5-4.6 0-3 2.5-5.5 5.5-5.5s5.5 2.5 5.5 5.5c0 1.9-1 3.7-2.5 4.6 5.6.9 6.3 4.4 6.4 8.7 0 .1 0 .3-.1.3-.1.1-.2.1-.3.1-2.6 0-15.1 0-17.8 0-.1 0-.2-.1-.3-.1-.3-0-.3-.1-.3-.3z" fill="#fff"/><path d="m86.4 206.1c0-1.1-.4-2.1-1.2-2.8-.8-.8-1.8-1.2-2.8-1.2-4 0-10 0-14 0-1.1 0-2.1.4-2.8 1.2-.8.8-1.2 1.8-1.2 2.8v20.2c0 1.1.4 2.1 1.2 2.8.8.8 1.8 1.2 2.8 1.2h14c1.1 0 2.1-.4 2.8-1.2.8-.8 1.2-1.8 1.2-2.8 0-5.4 0-14.9 0-20.2z" fill="#00e6b3"/><path d="m292.7 266.5c0-2.2-1.8-4-4-4h-8.9c-2.2 0-4 1.8-4 4v26.2c0 2.2 1.8 4 4 4h8.9c2.2 0 4-1.8 4-4z" fill="#ff2e93"/><path d="m366.1 185.6c0-.9-.7-1.6-1.6-1.6-.8 0-1.8 0-2.6 0-.9 0-1.6.7-1.6 1.6v22.8c0 .9.7 1.6 1.6 1.6h2.6c.9 0 1.6-.7 1.6-1.6 0-4.7 0-18.1 0-22.8z" fill="#ff2e93"/><path d="m238.7 256c0-.9-.7-1.6-1.6-1.6-2.1 0-5.8 0-8 0-.9 0-1.6.7-1.6 1.6v15.4c0 .9.7 1.6 1.6 1.6h8c.9 0 1.6-.7 1.6-1.6 0-3.5 0-11.8 0-15.4z" fill="#00e6b3"/><path d="m190.3 183.1c-2.2 0-4 1.8-4 4v26.6c0 2.2 1.8 4 4 4h5.8c2.2 0 4-1.8 4-4 0-2.1 0-4.6 0-6.4 0-.6-.2-1.2-.7-1.6-.4-.4-1-.7-1.6-.7-.6 0-1.2-.2-1.6-.7-.4-.4-.7-1-.7-1.6 0-3.7 0-11.1 0-15.6 0-2.2-1.8-4-4-4-.4-0-.8-0-1.2-0z" fill="#ff2e93"/><path d="m350 184.5c2.2 0 4-1.8 4-4 0-5.9 0-16.9 0-22.8 0-1.1-.4-2.1-1.2-2.8-.8-.8-1.8-1.2-2.8-1.2h-7.6c-1.1 0-2.1.4-2.8 1.2-.8.8-1.2 1.8-1.2 2.8v7.7c0 1.5 1.2 2.6 2.6 2.6.7 0 1.4.3 1.9.8s.8 1.2.8 1.9v9.8c0 2.2 1.8 4 4 4z" fill="#142664"/><path d="m328.1 218.7c-2.2 0-4 1.8-4 4v30.3c0 2.2 1.8 4 4 4h11.4c2.2 0 4-1.8 4-4 0-5.2 0-14.3 0-19.1 0-1.8-1.5-3.3-3.3-3.3-1.8 0-3.3-1.5-3.3-3.3v-4.7c0-1.1-.4-2.1-1.2-2.8-.8-.8-1.8-1.2-2.8-1.2-1.4.1-3.2.1-4.8.1z" fill="#00e6b3"/><path d="m147.6 229.2c0-1.1-.4-2.1-1.2-2.8-.8-.8-1.8-1.2-2.8-1.2-3.4 0-8.2 0-11.6 0-2.2 0-4 1.8-4 4v38.7c0 2.2 1.8 4 4 4h8c2.2 0 4-1.8 4-4 0-1.2 0-2.5 0-3.5 0-.7-.3-1.3-.8-1.8s-1.1-.8-1.8-.8c-.7 0-1.3-.3-1.8-.8s-.8-1.1-.8-1.8c0-3.9 0-11.3 0-15.9 0-1.1.4-2.1 1.2-2.8.8-.8 1.8-1.2 2.8-1.2h.7c1.1 0 2.1-.4 2.8-1.2.8-.8 1.2-1.8 1.2-2.8.1-1.9.1-4.2.1-6.1z" fill="#00e6b3"/><path d="m132.7 257.6c0-2.2-1.8-4-4-4-1.4 0-2.9 0-4.3 0-2.2 0-4 1.8-4 4v24.4c0 1.2.5 2.3 1.3 3.1s1.9 1.3 3.1 1.3 2.4 0 3.6 0 2.3-.5 3.1-1.3 1.3-1.9 1.3-3.1c-.1-6.4-.1-18.2-.1-24.4z" fill="#ff2e93"/><path d="m399.5 255.1c0-2.2-1.8-4-4-4h-7.7c-2.2 0-4 1.8-4 4v7.7c0 2.2 1.8 4 4 4h7.7c2.2 0 4-1.8 4-4z" fill="#ff2e93"/><path d="m377.3 226.6c0-.7-.6-1.3-1.3-1.3h-3.8c-.7 0-1.3.6-1.3 1.3v3.8c0 .7.6 1.3 1.3 1.3h3.8c.7 0 1.3-.6 1.3-1.3z" fill="#142664"/><path d="m239.5 209.5c0-.7-.6-1.3-1.3-1.3h-3.8c-.7 0-1.3.6-1.3 1.3v3.8c0 .7.6 1.3 1.3 1.3h3.8c.7 0 1.3-.6 1.3-1.3z" fill="#142664"/><path d="m153.3 302.7c0-.7-.6-1.3-1.3-1.3-.5 0-1.1 0-1.7 0-.7 0-1.3.6-1.3 1.3v1.7c0 .7.6 1.3 1.3 1.3h1.7c.7 0 1.3-.6 1.3-1.3z" fill="#142664"/><path d="m383.8 289.2c0-.7-.6-1.3-1.3-1.3-.5 0-1.1 0-1.7 0-.7 0-1.3.6-1.3 1.3v1.7c0 .7.6 1.3 1.3 1.3h1.7c.7 0 1.3-.6 1.3-1.3z" fill="#142664"/><path d="m297.3 311c0-.7-.6-1.3-1.3-1.3-.5 0-1.1 0-1.7 0-.7 0-1.3.6-1.3 1.3v1.7c0 .7.6 1.3 1.3 1.3h1.7c.7 0 1.3-.6 1.3-1.3z" fill="#142664"/><path d="m303.4 276.4c0-.7-.6-1.3-1.3-1.3-.5 0-1.1 0-1.7 0-.7 0-1.3.6-1.3 1.3v1.7c0 .7.6 1.3 1.3 1.3h1.7c.7 0 1.3-.6 1.3-1.3z" fill="#00e6b3"/><path d="m342.6 193.8c0-.7-.6-1.3-1.3-1.3-.5 0-1.1 0-1.7 0-.7 0-1.3.6-1.3 1.3v1.7c0 .7.6 1.3 1.3 1.3h1.7c.7 0 1.3-.6 1.3-1.3z" fill="#142664"/><path d="m117.7 210.3c0-.7-.6-1.3-1.3-1.3-.5 0-1.1 0-1.7 0-.7 0-1.3.6-1.3 1.3v1.7c0 .7.6 1.3 1.3 1.3h1.7c.7 0 1.3-.6 1.3-1.3z" fill="#142664"/><g fill="#ff2e93"><path d="m69.3 248.2c0-.7-.6-1.3-1.3-1.3-.5 0-1.1 0-1.7 0-.7 0-1.3.6-1.3 1.3v1.7c0 .7.6 1.3 1.3 1.3h1.7c.7 0 1.3-.6 1.3-1.3z"/><path d="m93.9 283.3c0-.7-.6-1.3-1.3-1.3-.5 0-1.1 0-1.7 0-.7 0-1.3.6-1.3 1.3v1.7c0 .7.6 1.3 1.3 1.3h1.7c.7 0 1.3-.6 1.3-1.3z"/><path d="m161.8 313.5c0-.7-.6-1.3-1.3-1.3-.5 0-1.1 0-1.7 0-.7 0-1.3.6-1.3 1.3v1.7c0 .7.6 1.3 1.3 1.3h1.7c.7 0 1.3-.6 1.3-1.3z"/><path d="m375.8 168.3c0-.7-.6-1.3-1.3-1.3-.5 0-1.1 0-1.7 0-.7 0-1.3.6-1.3 1.3v1.7c0 .7.6 1.3 1.3 1.3h1.7c.7 0 1.3-.6 1.3-1.3z"/><path d="m225.3 248.1c0-.7-.6-1.3-1.3-1.3-.5 0-1.1 0-1.7 0-.7 0-1.3.6-1.3 1.3v1.7c0 .7.6 1.3 1.3 1.3h1.7c.7 0 1.3-.6 1.3-1.3z"/><path d="m190.9 155.5c0-.7-.6-1.3-1.3-1.3-.5 0-1.1 0-1.7 0-.7 0-1.3.6-1.3 1.3v1.7c0 .7.6 1.3 1.3 1.3h1.7c.7 0 1.3-.6 1.3-1.3z"/><path d="m86.9 183.2c0-.7-.6-1.3-1.3-1.3-.5 0-1.1 0-1.7 0-.7 0-1.3.6-1.3 1.3v1.7c0 .7.6 1.3 1.3 1.3h1.7c.7 0 1.3-.6 1.3-1.3z"/></g><path d="m38.2 289.7c0-.7-.6-1.3-1.3-1.3-.5 0-1.1 0-1.7 0-.7 0-1.3.6-1.3 1.3v1.7c0 .7.6 1.3 1.3 1.3h1.7c.7 0 1.3-.6 1.3-1.3z" fill="#00e6b3"/><path d="m214.3 305.9c0-.7-.6-1.3-1.3-1.3-.5 0-1.1 0-1.7 0-.7 0-1.3.6-1.3 1.3v1.7c0 .7.6 1.3 1.3 1.3h1.7c.7 0 1.3-.6 1.3-1.3z" fill="#00e6b3"/><path d="m245.8 220c0-.7-.6-1.3-1.3-1.3-.5 0-1.1 0-1.7 0-.7 0-1.3.6-1.3 1.3v1.7c0 .7.6 1.3 1.3 1.3h1.7c.7 0 1.3-.6 1.3-1.3z" fill="#00e6b3"/><path d="m289.7 193.8c0-.7-.6-1.3-1.3-1.3h-3.8c-.7 0-1.3.6-1.3 1.3v3.8c0 .7.6 1.3 1.3 1.3h3.8c.7 0 1.3-.6 1.3-1.3z" fill="#ff2e93"/><path d="m206.5 283.2c0-.7-.6-1.3-1.3-1.3h-3.8c-.7 0-1.3.6-1.3 1.3v3.8c0 .7.6 1.3 1.3 1.3h3.8c.7 0 1.3-.6 1.3-1.3z" fill="#ff2e93"/><path d="m352.7 274.8c0-.7-.6-1.3-1.3-1.3h-3.8c-.7 0-1.3.6-1.3 1.3v3.8c0 .7.6 1.3 1.3 1.3h3.8c.7 0 1.3-.6 1.3-1.3z" fill="#ff2e93"/><path d="m61.1 236.5c0-.7-.6-1.3-1.3-1.3h-3.8c-.7 0-1.3.6-1.3 1.3v3.8c0 .7.6 1.3 1.3 1.3h3.8c.7 0 1.3-.6 1.3-1.3z" fill="#142664"/><path d="m220.6 171.8c0-.7-.6-1.3-1.3-1.3h-3.8c-.7 0-1.3.6-1.3 1.3v3.8c0 .7.6 1.3 1.3 1.3h3.8c.7 0 1.3-.6 1.3-1.3z" fill="#142664"/><path d="m124.1 197.4c0-.7-.6-1.3-1.3-1.3h-3.8c-.7 0-1.3.6-1.3 1.3v3.8c0 .7.6 1.3 1.3 1.3h3.8c.7 0 1.3-.6 1.3-1.3z" fill="#00e6b3"/><path d="m309.6 285c0-.7-.6-1.3-1.3-1.3h-3.8c-.7 0-1.3.6-1.3 1.3v3.8c0 .7.6 1.3 1.3 1.3h3.8c.7 0 1.3-.6 1.3-1.3z" fill="#00e6b3"/><path d="m186.3 224.1c0-.7-.6-1.3-1.3-1.3-1.1 0-2.7 0-3.8 0-.7 0-1.3.6-1.3 1.3v8.7c0 .7.6 1.3 1.3 1.3h3.8c.7 0 1.3-.6 1.3-1.3 0-2.2 0-6.5 0-8.7z" fill="#142664"/><path d="m278.9 175.6c0-.7-.6-1.3-1.3-1.3-1.1 0-2.7 0-3.8 0-.7 0-1.3.6-1.3 1.3v8.7c0 .7.6 1.3 1.3 1.3h3.8c.7 0 1.3-.6 1.3-1.3 0-2.2 0-6.5 0-8.7z" fill="#00e6b3"/><path d="m185.9 163.5c0-.7-.6-1.3-1.3-1.3-1.1 0-2.7 0-3.8 0-.7 0-1.3.6-1.3 1.3v8.7c0 .7.6 1.3 1.3 1.3h3.8c.7 0 1.3-.6 1.3-1.3 0-2.2 0-6.5 0-8.7z" fill="#142664"/><path d="m12.4 272.1c0 .7.6 1.3 1.3 1.3h3.8c.7 0 1.3-.6 1.3-1.3 0-2.2 0-6.5 0-8.7 0-.7-.6-1.3-1.3-1.3-1.1 0-2.7 0-3.8 0-.7 0-1.3.6-1.3 1.3z" fill="#142664"/><path d="m74.3 181.8v-8.6c0-.7-.6-1.3-1.3-1.3-1.1 0-2.7 0-3.8 0-.7 0-1.3.6-1.3 1.3v2.5c0 .6-.5 1.2-1.2 1.2-1.1 0-2.5 0-2.5 0-.7 0-1.3.6-1.3 1.3v3.8c0 .7.6 1.3 1.3 1.3h8.7z" fill="#ff2e93"/><path d="m258.1 291v-8.7c0-.7-.6-1.3-1.3-1.3-1.1 0-2.7 0-3.8 0-.7 0-1.3.6-1.3 1.3v2.5c0 .6-.5 1.2-1.2 1.2-1.1 0-2.5 0-2.5 0-.7 0-1.3.6-1.3 1.3v3.8c0 .7.6 1.3 1.3 1.3h8.7z" fill="#00e6b3"/><path d="m93.1 270.3h8.7c.7 0 1.3-.6 1.3-1.3 0-1.1 0-2.7 0-3.8 0-.7-.6-1.3-1.3-1.3 0 0-1.4 0-2.5 0-.6 0-1.2-.5-1.2-1.2 0-1.1 0-2.5 0-2.5 0-.7-.6-1.3-1.3-1.3-1.1 0-2.7 0-3.8 0-.7 0-1.3.6-1.3 1.3v8.7z" fill="#142664"/><path d="m106.3 268.4c0-.7-.6-1.3-1.3-1.3h-3.8c-.7 0-1.3.6-1.3 1.3v3.8c0 .7.6 1.3 1.3 1.3h3.8c.7 0 1.3-.6 1.3-1.3z" fill="#00e6b3"/></svg>