<svg xmlns="http://www.w3.org/2000/svg" xmlns:xlink="http://www.w3.org/1999/xlink" viewBox="0 0 500 500"><defs><clipPath id="freepik--clip-path--inject-65"><path d="M254.49,188.55s-8,4.43-13-10.24S252,136,268.05,130.15s35.71-6.09,50.66,6.36,13.84,42.91,13.84,42.91,14.4-.83,22.7,16.88-7.2,32.67-17.72,32.39-16-10-17.16-18.54-20.48-29.9-30.17-32.39-16.61,6.36-24.36,8S254.49,188.55,254.49,188.55Z" style="fill:#263238;stroke:#263238;stroke-linecap:round;stroke-linejoin:round"></path></clipPath></defs><g id="freepik--background-simple--inject-65"><path d="M208.87,459.69s77.87,14.07,142.35-39.53S437.28,277.8,456.66,206.34,446.13,70.4,385.8,48.74,296.21,78.57,219.63,93.52s-99.25,7.31-155.36,61.62S15,314.66,78.9,382.75,208.87,459.69,208.87,459.69Z" style="fill:#0E0A9D"></path><path d="M208.87,459.69s77.87,14.07,142.35-39.53S437.28,277.8,456.66,206.34,446.13,70.4,385.8,48.74,296.21,78.57,219.63,93.52s-99.25,7.31-155.36,61.62S15,314.66,78.9,382.75,208.87,459.69,208.87,459.69Z" style="fill:#fff;opacity:0.7000000000000001"></path></g><g id="freepik--Character--inject-65"><path d="M127.19,298.5h0a4.84,4.84,0,0,1-5.58-4l-7.43-44.31,9.54-1.61,7.43,44.32A4.82,4.82,0,0,1,127.19,298.5Z" style="fill:#fff;stroke:#263238;stroke-linecap:round;stroke-linejoin:round"></path><path d="M127.07,268.61l-9.9-.57,4.44,26.49a4.84,4.84,0,1,0,9.54-1.6Z" style="fill:#0E0A9D;stroke:#263238;stroke-linecap:round;stroke-linejoin:round"></path><rect x="112.92" y="247.95" width="13.09" height="9.11" transform="translate(-40.15 23.26) rotate(-9.53)" style="fill:#fff;stroke:#263238;stroke-linecap:round;stroke-linejoin:round"></rect><path d="M143.77,347.37s-31.43-33.35-37-38.51-7.35-9.15-7.15-11.48,7.19-9.42,10.79-9.12S134.09,301.32,139.3,308a51.39,51.39,0,0,1,8.81,17.16c1.16,3.93,1.11,4.57,1.11,4.57l8.05,8.35Z" style="fill:#999;stroke:#263238;stroke-linecap:round;stroke-linejoin:round"></path><path d="M101.08,301.82s-2.94-4.92-1.39-7.47,17.64-23,20.32-23.06-.58,7-4.4,12.68-8,12-8.11,13-.22,2.66-.22,2.66" style="fill:#999;stroke:#263238;stroke-linecap:round;stroke-linejoin:round"></path><path d="M107.22,303.77s-.23-7.48,1.77-10.94,14.51-20.55,15.89-21.71,5.14-.22,2.51,5.75-9.79,20.09-9.93,21.79-1.66,12.23-1.66,12.23" style="fill:#999;stroke:#263238;stroke-linecap:round;stroke-linejoin:round"></path><path d="M116,308.56s1.16-11.42,1.82-11.58,12-23.32,12-23.32,3.9-3.3,2.72,5.77S126,300.65,126,300.65l-.67,15.73" style="fill:#999;stroke:#263238;stroke-linecap:round;stroke-linejoin:round"></path><path d="M125.6,311.07s3.34-14.44,4.29-15.64,3.66-13.14,5.37-13.21,2.52,3,1.06,7.77-3.2,10.19-3.2,10.19l1,10.54" style="fill:#999;stroke:#263238;stroke-linecap:round;stroke-linejoin:round"></path><path d="M218.74,427.37c7.4-1.4,33.94-32,33.94-32l-2.31,35.48H419.84c-2.07-17.19-13.38-164.32-14.52-167.36-1.21-3.23-71.58-33.05-71.58-33.05l-31.86,1.21S262,257.86,251.47,263.91s-14.11,8.47-14.11,10.89-23.24,96.35-23.24,96.35l-57.69-40.83L135.8,349.64l75.27,77.5S211.34,428.78,218.74,427.37Z" style="fill:#0E0A9D;stroke:#263238;stroke-linecap:round;stroke-linejoin:round"></path><line x1="252.76" y1="380.69" x2="253.09" y2="311.89" style="fill:none;stroke:#263238;stroke-linecap:round;stroke-linejoin:round"></line><line x1="252.68" y1="395.37" x2="252.73" y2="386.78" style="fill:none;stroke:#263238;stroke-linecap:round;stroke-linejoin:round"></line><line x1="252.28" y1="328.83" x2="244.62" y2="303.83" style="fill:none;stroke:#263238;stroke-linecap:round;stroke-linejoin:round"></line><path d="M214.12,371.15a43.09,43.09,0,0,1,5.21,18.16" style="fill:none;stroke:#263238;stroke-linecap:round;stroke-linejoin:round"></path><path d="M219.33,393.63s-.18,2.14-.18,6.46" style="fill:none;stroke:#263238;stroke-linecap:round;stroke-linejoin:round"></path><path d="M293.73,246.29l-9.67,35,12.34,8L283.4,305l17,71,42-73.33L329.73,288l18.67-4.67L344.06,240c-4.06-11.79-9.69-14-15.66-11.67C321.84,230.85,298.06,230.63,293.73,246.29Z" style="fill:#0E0A9D;stroke:#263238;stroke-linecap:round;stroke-linejoin:round"></path><path d="M296.73,250.63S304.06,299,304.06,317s-.33,21.67-.33,21.67,19.67-51.67,25.33-77a104.59,104.59,0,0,0-1-47.67S313.4,245,296.73,250.63Z" style="fill:#fff;stroke:#263238;stroke-linecap:round;stroke-linejoin:round"></path><path d="M328.06,214s-14.66,31-31.33,36.67c0,0,.38,2.49,1,6.53,4.24-.41,14.35-1.62,20.59-4.12,5.6-2.24,9.64-20,11.59-30.7A74.5,74.5,0,0,0,328.06,214Z" style="fill:#263238;stroke:#263238;stroke-linecap:round;stroke-linejoin:round"></path><path d="M325.72,274.39c-10.73,4.54-19.71,3.22-25.51,1.19,1.89,14.65,3.85,32.07,3.85,41.38,0,18-.33,21.67-.33,21.67S318,301.16,325.72,274.39Z" style="fill:#263238;stroke:#263238;stroke-linecap:round;stroke-linejoin:round"></path><path d="M254.49,188.55s-8,4.43-13-10.24S252,136,268.05,130.15s35.71-6.09,50.66,6.36,13.84,42.91,13.84,42.91,14.4-.83,22.7,16.88-7.2,32.67-17.72,32.39-16-10-17.16-18.54-20.48-29.9-30.17-32.39-16.61,6.36-24.36,8S254.49,188.55,254.49,188.55Z" style="fill:#263238"></path><g style="clip-path:url(#freepik--clip-path--inject-65)"><path d="M275.16,153s10,6.51,28.21,9.49,28.48,7.33,34.72,13" style="fill:none;stroke:#616161;stroke-linecap:round;stroke-linejoin:round"></path><path d="M279.23,142.46s15.73,8.14,33.63,7.33,29.3,13,29.3,13" style="fill:none;stroke:#616161;stroke-linecap:round;stroke-linejoin:round"></path><path d="M286.29,131.88a79.8,79.8,0,0,0,26.57,4.89A33.62,33.62,0,0,1,335.92,146" style="fill:none;stroke:#616161;stroke-linecap:round;stroke-linejoin:round"></path><path d="M264.59,155.21s-2.93,2.39-13,12.75-7,18.71-7,18.71" style="fill:none;stroke:#616161;stroke-linecap:round;stroke-linejoin:round"></path><path d="M264.59,149s-9.77,6-19,12.48-8.95,14.92-8.95,14.92" style="fill:none;stroke:#616161;stroke-linecap:round;stroke-linejoin:round"></path><path d="M268.38,137.31a50.46,50.46,0,0,0-16.27,9.76c-8.41,7.33-13,12.21-13,12.21" style="fill:none;stroke:#616161;stroke-linecap:round;stroke-linejoin:round"></path><path d="M257.81,134.33s5.69-4.34,11.39-6a16.08,16.08,0,0,1,10.85,1.08s-11.94,16-11.12,30.11" style="fill:none;stroke:#616161;stroke-linecap:round;stroke-linejoin:round"></path></g><path d="M254.49,188.55s-8,4.43-13-10.24S252,136,268.05,130.15s35.71-6.09,50.66,6.36,13.84,42.91,13.84,42.91,14.4-.83,22.7,16.88-7.2,32.67-17.72,32.39-16-10-17.16-18.54-20.48-29.9-30.17-32.39-16.61,6.36-24.36,8S254.49,188.55,254.49,188.55Z" style="fill:none;stroke:#263238;stroke-linecap:round;stroke-linejoin:round"></path><path d="M252.55,186.06s7.47,23.53,11.07,34.6,13.57,26.3,22.7,30.73,25.19-1.38,27.41-3.32,13.56-22.42,15.5-26.85.55-15.78.55-15.78,5.26-7.47,5-14.39-4.16-10.25-6.37-8.86a13.9,13.9,0,0,0-3.6,3.32s-1.94-3.6-9.41-8-13.13.59-25.31-3a119.71,119.71,0,0,1-19.8-7.6S262.24,182.19,252.55,186.06Z" style="fill:#fff;stroke:#263238;stroke-linecap:round;stroke-linejoin:round"></path><path d="M332.3,188.67s-.28-3.65-2.81-1.4-.28,5.89-.28,5.89,3.93-.84,2,2.25" style="fill:none;stroke:#263238;stroke-linecap:round;stroke-linejoin:round"></path><path d="M264.12,204.06V209a11.61,11.61,0,0,0,10.52-1.24" style="fill:none;stroke:#263238;stroke-linecap:round;stroke-linejoin:round"></path><path d="M292,198.91l.2,5.77a15.29,15.29,0,0,0,12-3.51" style="fill:none;stroke:#263238;stroke-linecap:round;stroke-linejoin:round"></path><path d="M261.65,198.7s4.33-3.09,14.43-.41" style="fill:none;stroke:#263238;stroke-linecap:round;stroke-linejoin:round;stroke-width:2px"></path><path d="M284.33,196.43s4.12-4.74,16.28-6.18" style="fill:none;stroke:#263238;stroke-linecap:round;stroke-linejoin:round;stroke-width:2px"></path><path d="M288.81,213.74c-7.19-1.66-6.64-1.93-11.62,2.22s-13.84,3.6-13.84,3.6l-.07,0c.12.36.23.72.34,1.06,3.6,11.08,13.57,26.3,22.7,30.73s25.19-1.38,27.41-3.32a37.46,37.46,0,0,0,3.92-5.76,13.86,13.86,0,0,0,.51-1.71c.83-3.88,2.49-12.46,5.81-18.27s5.81-16.89,5.81-16.89-8,21-11.35,20.21-3.6-7.2-3.6-10.8,7.48-11.9,10.25-20.21-.28-9.13-.28-9.13c-1.66,16.05-9.69,25.47-9.69,25.47C303.76,217.07,296,215.41,288.81,213.74Z" style="fill:#999;stroke:#263238;stroke-linecap:round;stroke-linejoin:round"></path><path d="M249.23,196.3c-2.16-.12,6.64,16.06,9.13,18.55s11.91,3.6,16.61,1.39,2.77-9.69,6.65-10,6.09,6.64,9.69,8,15.77-1.39,22.14-4.15,6.64-10,6.64-10L317.6,185S287.43,198.52,249.23,196.3Z" style="fill:none;stroke:#263238;stroke-linecap:round;stroke-linejoin:round"></path><path d="M249.23,196.3s34.6,3.6,78.61-15.5" style="fill:none;stroke:#263238;stroke-linecap:round;stroke-linejoin:round;stroke-width:3px"></path><line x1="309.85" y1="188.83" x2="313.45" y2="204.89" style="fill:none;stroke:#263238;stroke-linecap:round;stroke-linejoin:round"></line><path d="M270.88,371.88l-14.57,49.79.25,4.65,3.29-3.14L274.7,373a2,2,0,0,0-1.51-2.52h0A2,2,0,0,0,270.88,371.88Z" style="fill:#fff;stroke:#263238;stroke-linecap:round;stroke-linejoin:round"></path><path d="M322.76,403.31s-23.83-6.24-29.14-8.87-17.32-9.32-19.55-5.79S253.21,410,254.24,412.18,266.49,424.26,269,425s7.07,3.73,12.84,1.71,8.3-3,8.3-3,10.31,2.73,13.17,2.8,11.88-3.32,11.88-3.32l6.81-.57Z" style="fill:#999;stroke:#263238;stroke-linecap:round;stroke-linejoin:round"></path><line x1="258.79" y1="416.57" x2="278.19" y2="396.61" style="fill:none;stroke:#263238;stroke-linecap:round;stroke-linejoin:round"></line><line x1="263.33" y1="421.68" x2="280.89" y2="404.18" style="fill:none;stroke:#263238;stroke-linecap:round;stroke-linejoin:round"></line><line x1="271.11" y1="425.79" x2="285.35" y2="412.87" style="fill:none;stroke:#263238;stroke-linecap:round;stroke-linejoin:round"></line><path d="M383.19,278.42s-17.42,21.4-17.58,29.06,14.8,78.57,14.8,78.57l-63.56,11.11,1.75,30.29s100.85-.61,104.89-.92,12.48,1.08,13.35-2.13S408.26,268.73,407.5,266.7a8.9,8.9,0,0,0-9.57-5.06" style="fill:#0E0A9D;stroke:#263238;stroke-linecap:round;stroke-linejoin:round"></path><line x1="380.41" y1="386.05" x2="404.29" y2="382.55" style="fill:none;stroke:#263238;stroke-linecap:round;stroke-linejoin:round"></line><line x1="382.03" y1="386.09" x2="399.55" y2="378.01" style="fill:none;stroke:#263238;stroke-linecap:round;stroke-linejoin:round"></line><path d="M408.16,382.84s7.17-1.08,10.76-.72" style="fill:none;stroke:#263238;stroke-linecap:round;stroke-linejoin:round"></path><rect x="333.32" y="314.19" width="28.63" height="42.13" style="fill:#fff;stroke:#263238;stroke-linecap:round;stroke-linejoin:round"></rect><rect x="344.57" y="304.78" width="6.14" height="15.13" style="fill:#263238;stroke:#263238;stroke-linecap:round;stroke-linejoin:round"></rect><line x1="30.33" y1="430.76" x2="465.67" y2="430.76" style="fill:#fff;stroke:#263238;stroke-linecap:round;stroke-linejoin:round"></line><path d="M109.32,378.49H119a0,0,0,0,1,0,0v44.94a4.84,4.84,0,0,1-4.84,4.84h0a4.84,4.84,0,0,1-4.84-4.84V378.49a0,0,0,0,1,0,0Z" style="fill:#fff;stroke:#263238;stroke-linecap:round;stroke-linejoin:round"></path><path d="M109.32,396.85v26.58a4.84,4.84,0,1,0,9.67,0V396.85Z" style="fill:#0E0A9D;stroke:#263238;stroke-linecap:round;stroke-linejoin:round"></path><rect x="107.61" y="377.07" width="13.09" height="9.1" style="fill:#fff;stroke:#263238;stroke-linecap:round;stroke-linejoin:round"></rect><path d="M133,428.27h0a4.84,4.84,0,0,1-4.84-4.84V378.49h9.67v44.94A4.84,4.84,0,0,1,133,428.27Z" style="fill:#fff;stroke:#263238;stroke-linecap:round;stroke-linejoin:round"></path><path d="M128.13,396.85v26.58a4.84,4.84,0,1,0,9.67,0V396.85Z" style="fill:#0E0A9D;stroke:#263238;stroke-linecap:round;stroke-linejoin:round"></path><rect x="126.42" y="377.07" width="13.09" height="9.1" style="fill:#fff;stroke:#263238;stroke-linecap:round;stroke-linejoin:round"></rect><path d="M151.78,428.27h0a4.84,4.84,0,0,1-4.83-4.84V378.49h9.67v44.94A4.84,4.84,0,0,1,151.78,428.27Z" style="fill:#fff;stroke:#263238;stroke-linecap:round;stroke-linejoin:round"></path><path d="M147,396.85v26.58a4.84,4.84,0,0,0,4.83,4.84h0a4.84,4.84,0,0,0,4.84-4.84V396.85Z" style="fill:#0E0A9D;stroke:#263238;stroke-linecap:round;stroke-linejoin:round"></path><rect x="145.24" y="377.07" width="13.09" height="9.1" style="fill:#fff;stroke:#263238;stroke-linecap:round;stroke-linejoin:round"></rect><path d="M170.6,428.27h0a4.84,4.84,0,0,1-4.84-4.84V378.49h9.67v44.94A4.84,4.84,0,0,1,170.6,428.27Z" style="fill:#fff;stroke:#263238;stroke-linecap:round;stroke-linejoin:round"></path><path d="M165.76,396.85v26.58a4.84,4.84,0,1,0,9.67,0V396.85Z" style="fill:#0E0A9D;stroke:#263238;stroke-linecap:round;stroke-linejoin:round"></path><rect x="164.05" y="377.07" width="13.09" height="9.1" style="fill:#fff;stroke:#263238;stroke-linecap:round;stroke-linejoin:round"></rect><polygon points="185.32 391.08 101.06 391.08 101.06 393.94 185.32 393.94 185.32 423.8 96.97 423.8 96.97 430.76 191.05 430.76 191.05 429.12 191.05 423.8 191.05 393.94 191.05 391.08 185.32 391.08" style="fill:#fff;stroke:#263238;stroke-linecap:round;stroke-linejoin:round"></polygon><path d="M208.19,430.76h104.3v-3.69s-16.77.41-28.64-2a131,131,0,0,0-21.38-2.3c-4.79-.18-9.9.6-13.52,3.74-3.59-2.48-7.87-3.08-12.13-3.08-9.41,0-23.73,2.05-33.95,3.68a126.24,126.24,0,0,1-18,1.64v2.05Z" style="fill:#263238;stroke:#263238;stroke-linecap:round;stroke-linejoin:round"></path></g></svg>