<svg xmlns="http://www.w3.org/2000/svg" viewBox="0 0 352.89 327.75"><defs><style>.cls-1{fill:#f5f5f5;}.cls-2{fill:#ebebeb;}.cls-12,.cls-3{fill:#27debf;}.cls-15,.cls-4{opacity:0.2;}.cls-11,.cls-13,.cls-15,.cls-5{fill:#fff;}.cls-6{fill:#e0e0e0;}.cls-7{fill:#f0f0f0;}.cls-8{fill:#455a64;}.cls-9{fill:#37474f;}.cls-10{fill:#263238;}.cls-11,.cls-12{stroke:#27debf;stroke-miterlimit:10;}.cls-13{opacity:0.7;}.cls-14{opacity:0.1;}.cls-16{fill:#ffa8a7;}.cls-17{fill:#f28f8f;}.cls-18{opacity:0.3;}</style></defs><g id="Floor"><path class="cls-1" d="M51.68,303.12c68.91,32.84,180.63,32.84,249.53,0s68.91-86.09,0-118.93-180.62-32.84-249.53,0S-17.23,270.28,51.68,303.12Z"/></g><g id="Shadow"><path class="cls-2" d="M284.73,275.64c9,4.28,23.52,4.28,32.49,0s9-11.21,0-15.49-23.52-4.27-32.49,0S275.75,271.36,284.73,275.64Z"/></g><g id="Plants"><path class="cls-3" d="M46.4,269.47l8.12-4.69a32.53,32.53,0,0,0,10-14.07c2.52-6.92,2.17-12.19.37-14.83-2.22-3.24-7.95-2.68-8.18,4.17C56.29,253.53,52.35,262.86,46.4,269.47Z"/><path class="cls-4" d="M46.4,269.47l8.12-4.69a32.53,32.53,0,0,0,10-14.07c2.52-6.92,2.17-12.19.37-14.83-2.22-3.24-7.95-2.68-8.18,4.17C56.29,253.53,52.35,262.86,46.4,269.47Z"/><path class="cls-5" d="M46.4,270a.5.5,0,0,1-.41-.22.5.5,0,0,1,.12-.69c18.8-13,15.16-31.13,15.12-31.31a.51.51,0,0,1,.38-.6.5.5,0,0,1,.6.39c0,.18,3.84,18.94-15.53,32.34A.47.47,0,0,1,46.4,270Z"/><path class="cls-3" d="M30.15,278.85s-2.83-2.3-2.14-5.42,2.51-5.36-.63-9.38-3.95-9.38-.26-12.29c2.85-2.25,7.3.94,8.91-5,1.17-4.34.77-13.95,6.31-17.15s9,1.61,8.12,8.13c-.76,5.83-1.83,11.45-1,13,1.61,3,4.39,2.58,4.26,8.06-.12,5.1-4.94,9.32-4.94,9.32Z"/><path class="cls-5" d="M39.44,274a.49.49,0,0,1-.49-.44c-1.43-11.85,2-32.3,4.8-38.38a.49.49,0,0,1,.66-.25.5.5,0,0,1,.24.67c-2.77,6-6.08,26.52-4.71,37.84a.5.5,0,0,1-.44.56Z"/><path class="cls-5" d="M39.17,264.76a.59.59,0,0,1-.22-.05c-3.47-1.7-5.67-7.72-5.76-8a.5.5,0,1,1,.94-.34c0,.06,2.16,5.9,5.26,7.42a.5.5,0,0,1,.23.67A.48.48,0,0,1,39.17,264.76Z"/><path class="cls-5" d="M39.12,268.75a.51.51,0,0,1-.47-.31.5.5,0,0,1,.28-.65c5.84-2.34,9.48-9.3,9.52-9.37a.48.48,0,0,1,.67-.21.49.49,0,0,1,.21.67c-.15.3-3.85,7.36-10,9.84Z"/><path class="cls-3" d="M243.25,215s-4.38-7.07-4.8-14.77,1.27-10.9,3.59-11.82,2.49,1.91,3.69,3.59,3.62.71,4.51-4.49,4.18-14,11-15.72c7.5-1.86,3.48,6.94,1.6,10.37s-3.35,8.11-2.11,9.39,3.16-1.08,5,1.1c2.23,2.63-4.7,12.09-8.68,14.39Z"/><path class="cls-5" d="M249.24,212h0a.5.5,0,0,1-.47-.53,72.05,72.05,0,0,1,11.19-34.79.5.5,0,1,1,.82.58,70.91,70.91,0,0,0-11,34.27A.51.51,0,0,1,249.24,212Z"/><path class="cls-5" d="M249.81,206.08a.42.42,0,0,1-.24-.07c-2.8-1.55-4.36-6.14-4.42-6.34a.5.5,0,0,1,.32-.63.49.49,0,0,1,.63.32s1.49,4.42,4,5.78a.51.51,0,0,1,.2.68A.52.52,0,0,1,249.81,206.08Z"/><path class="cls-5" d="M250.3,203.05a.5.5,0,0,1-.12-1c7.21-1.82,9.71-5.61,9.74-5.64a.5.5,0,1,1,.84.53c-.1.17-2.7,4.15-10.34,6.08Z"/><path class="cls-3" d="M134.47,199.41s-9.59-2.34-10.09-20.29c-.54-19.38,2.35-42-9-43.83s-17.66,12-17.51,28.14c.13,14.15,5.82,44.85,36.56,50.87Z"/><path class="cls-4" d="M134.47,199.41s-9.59-2.34-10.09-20.29c-.54-19.38,2.35-42-9-43.83s-17.66,12-17.51,28.14c.13,14.15,5.82,44.85,36.56,50.87Z"/><path class="cls-5" d="M134.47,212.45h-.09a25.05,25.05,0,0,1-16.73-11.3C105.22,182.6,109.14,148,110.42,142a.5.5,0,0,1,.6-.38.49.49,0,0,1,.38.59c-1.27,6-5.15,40.16,7.08,58.41a24.12,24.12,0,0,0,16.08,10.88.5.5,0,0,1,.4.58A.51.51,0,0,1,134.47,212.45Z"/><path class="cls-3" d="M134.47,258.54c-9.92,1.35-26,1.33-35.3-6s-7.34-13.62-3.78-16.25,6.67-5.64.53-11.48-16-15.21-19.19-29.29-1.62-22.86,4.66-25.79c6.09-2.85,7.69,1.67,11.42,11s12.13,1.33,19.3,4.24,6.9,8.67,7.35,13.62,2.82,6.33,6.88,6.33,8.13,2.34,8.13,7Z"/><path class="cls-5" d="M134.47,242.21l-.14,0c-.43-.12-10.68-3.11-25.6-16.81-15.9-14.61-23.41-36.5-23.48-36.72a.51.51,0,0,1,.31-.64.52.52,0,0,1,.64.32c.07.22,7.5,21.87,23.2,36.3,14.73,13.53,25.1,16.56,25.2,16.59a.5.5,0,0,1-.13,1Z"/><path class="cls-5" d="M112.88,228.87a.51.51,0,0,1-.47-.32c-3.21-8.25-3.93-25.88-4-26.62a.5.5,0,0,1,.48-.52.52.52,0,0,1,.52.48c0,.18.75,18.21,3.89,26.3a.49.49,0,0,1-.28.64A.39.39,0,0,1,112.88,228.87Z"/><path class="cls-5" d="M112.79,240.73a23.36,23.36,0,0,1-2.75-.14.5.5,0,0,1-.44-.56.49.49,0,0,1,.55-.43c.1,0,9.4,1.06,13.67-3.3a.5.5,0,1,1,.72.7C121.41,240.19,116.05,240.73,112.79,240.73Z"/></g><g id="Gear"><path class="cls-6" d="M105.59,51.37l-1.07-6.24L99,48.8a7.64,7.64,0,0,0-2.12-2.57L99.5,39l-5-1.11-3.67,7a13,13,0,0,0-3.81,1.24l-1.58-5.26-5.94,4.66.39,6.2a33.37,33.37,0,0,0-3.28,4.34l-4.91-.24-3.44,7.71,4.21,1.79a25.53,25.53,0,0,0-.83,4.89l-5.34,4.92,1.07,6.23L73,77.72a7.74,7.74,0,0,0,2.12,2.57l-2.66,7.2,5,1.11,5.24-5.11c1.21-.19.92-2.47,2.24-3.11l1.58,5.26L92.39,81l-.15-2.44C93.44,77.2,98,74.25,99,72.71l1.23-2L103.63,63,102,60.07l-1.77-3.78ZM87.46,71.92c-4.55,3.58-5.94,4.36-6.76-.42s1.84-12.08,6.39-15.66,6.3-3.85,7.13.93S92,68.34,87.46,71.92Z"/><polygon class="cls-1" points="94.55 37.92 101.03 41.66 97.37 48.63 90.89 44.9 94.55 37.92"/><polygon class="cls-1" points="111 48.87 105.44 52.53 98.96 48.8 104.52 45.13 111 48.87"/><polygon class="cls-6" points="110.11 66.71 105.9 64.91 99.42 61.17 103.63 62.97 110.11 66.71"/><polygon class="cls-6" points="72.44 87.49 78.92 91.23 81.58 84.03 75.1 80.29 72.44 87.49"/><polygon class="cls-6" points="92.94 89.38 86.45 85.64 84.87 80.38 91.35 84.12 92.94 89.38"/><path class="cls-2" d="M112.08,55.11,111,48.87l-5.56,3.67A7.62,7.62,0,0,0,103.33,50l2.66-7.2-5-1.11-3.66,7a13.35,13.35,0,0,0-3.81,1.25L92,44.62,86,49.28l.39,6.2a33.37,33.37,0,0,0-3.28,4.34l-4.9-.24L74.8,67.29,79,69.08A24.78,24.78,0,0,0,78.18,74l-5.35,4.92,1.07,6.23,5.57-3.66A7.6,7.6,0,0,0,81.58,84l-2.66,7.2,5,1.11,3.66-7a13.63,13.63,0,0,0,3.81-1.24l1.59,5.26,5.94-4.67-.39-6.2a33.37,33.37,0,0,0,3.28-4.34l4.9.25,3.44-7.71-4.21-1.8a24.68,24.68,0,0,0,.83-4.88ZM94,75.66c-4.56,3.58-8.92,2.6-9.74-2.18S86.41,61.92,91,58.34s8.92-2.61,9.74,2.17S98.5,72.08,94,75.66Z"/><polygon class="cls-1" points="91.97 44.62 85.48 40.88 79.55 45.55 86.03 49.28 91.97 44.62"/><polygon class="cls-6" points="79.55 45.55 79.94 51.74 86.42 55.48 86.03 49.28 79.55 45.55"/><polygon class="cls-1" points="83.14 59.82 76.66 56.08 71.75 55.84 78.24 59.58 83.14 59.82"/><polygon class="cls-6" points="71.75 55.84 68.31 63.55 74.8 67.29 78.24 59.58 71.75 55.84"/><polygon class="cls-1" points="78.18 73.97 71.69 70.23 66.35 75.15 72.83 78.89 78.18 73.97"/><polygon class="cls-6" points="73.9 85.12 67.42 81.38 66.35 75.15 72.83 78.89 73.9 85.12"/><polygon class="cls-1" points="101.03 41.66 94.55 37.92 99.5 39.03 105.99 42.77 101.03 41.66"/><path class="cls-6" d="M76.54,23.09V13.78l-7.41,3.34a13.26,13.26,0,0,0-2-4.41l4.66-9.42L66.09,0,60.27,8.75a13.23,13.23,0,0,0-4.82.47l-.81-8.09L46.58,5.79l-.82,9a39.62,39.62,0,0,0-4.82,5.09l-5.82-2-5.7,9.88,4.67,4a39.83,39.83,0,0,0-2,6.72l-7.41,5.22V53l7.41-3.34a13.07,13.07,0,0,0,2,4.41l-4.67,9.42,5.7,3.29,5.82-8.75a13.21,13.21,0,0,0,4.82-.47l.82,8.08L54.64,61l.81-9a15.07,15.07,0,0,0,6.47-4.53l4.17,1.47,5.7-9.88L68.3,36a21.07,21.07,0,0,0,.83-7.73ZM50.61,46.34c-6.19,3.57-10,1-10-6.11s5.12-15.89,11.31-19.46,9.93-1,9.93,6.17S56.79,42.77,50.61,46.34Z"/><polygon class="cls-1" points="72.58 3.74 66.09 0 60.27 8.75 66.76 12.49 72.58 3.74"/><polygon class="cls-1" points="83.02 17.52 76.54 13.78 69.13 17.12 75.61 20.86 83.02 17.52"/><polygon class="cls-6" points="53.06 69.42 46.58 65.67 45.76 57.59 52.25 61.33 53.06 69.42"/><polygon class="cls-6" points="29.42 63.52 35.91 67.26 40.58 57.84 34.09 54.1 29.42 63.52"/><path class="cls-2" d="M83,26.83V17.52l-7.41,3.34a13.07,13.07,0,0,0-2-4.41L78.28,7l-5.7-3.29-5.82,8.75a13.21,13.21,0,0,0-4.82.47l-.81-8.09L53.06,9.53l-.81,9a39.62,39.62,0,0,0-4.82,5.09l-5.82-2-5.7,9.88,4.66,4a40.77,40.77,0,0,0-2,6.72l-7.41,5.22v9.31l7.41-3.34a13.36,13.36,0,0,0,2,4.41l-4.66,9.42,5.7,3.29,5.82-8.75a13.21,13.21,0,0,0,4.82-.47l.81,8.08,8.07-4.65.81-9a39.62,39.62,0,0,0,4.82-5.09l5.82,2,5.7-9.88-4.67-4a39.83,39.83,0,0,0,2-6.72ZM57.09,50.08c-6.18,3.57-11.2.68-11.2-6.47s5-15.83,11.2-19.4,11.21-.68,11.21,6.47S63.28,46.51,57.09,50.08Z"/><polygon class="cls-7" points="40.94 19.91 47.43 23.65 41.61 21.62 35.12 17.88 40.94 19.91"/><rect class="cls-1" x="29.81" y="20.95" width="11.41" height="7.49" transform="translate(-3.62 43.12) rotate(-60.02)"/><polygon class="cls-6" points="29.42 27.76 35.91 31.5 40.58 35.52 34.09 31.78 29.42 27.76"/><polygon class="cls-1" points="32.09 38.5 38.57 42.24 31.16 47.46 24.68 43.72 32.09 38.5"/><polygon class="cls-6" points="24.68 43.72 31.16 47.46 31.16 56.77 24.68 53.03 24.68 43.72"/><polygon class="cls-1" points="61.13 4.87 54.64 1.13 46.58 5.79 53.06 9.53 61.13 4.87"/></g><g id="Device"><path class="cls-6" d="M144.32,271.93l94-54.29a1.06,1.06,0,0,0,0-2l-8.7-5a3.77,3.77,0,0,0-3.46,0l-94.05,54.28a1.05,1.05,0,0,0,0,2l8.72,5A3.83,3.83,0,0,0,144.32,271.93Z"/><path class="cls-8" d="M235.75,8.07,151,57a9.58,9.58,0,0,0-4.33,7.5V265.58c0,2.76,1.94,3.88,4.33,2.5l84.77-48.94a9.58,9.58,0,0,0,4.33-7.5V10.57C240.08,7.81,238.14,6.69,235.75,8.07Z"/><path class="cls-9" d="M151,57,235.75,8.07c2.14-1.23,3.91-.47,4.26,1.68a9.68,9.68,0,0,0-4.26-6.68l-3.53-2a9.51,9.51,0,0,0-8.66,0L138.8,50a8.86,8.86,0,0,0-3.07,3.23l12.19,7A8.91,8.91,0,0,1,151,57Z"/><path class="cls-10" d="M134.47,258.54a9.55,9.55,0,0,0,4.33,7.5l3.52,2a9.68,9.68,0,0,0,7.93.35c-2,.77-3.6-.38-3.6-2.85V64.51a8.91,8.91,0,0,1,1.27-4.27l-12.19-7a8.83,8.83,0,0,0-1.26,4.27Z"/><path class="cls-5" d="M153.31,83.81l80.11-46.25c1.43-.83,2.6-.16,2.6,1.5V187.84a5.74,5.74,0,0,1-2.6,4.5l-80.11,46.25c-1.43.83-2.59.16-2.59-1.5V88.31A5.76,5.76,0,0,1,153.31,83.81Z"/><path class="cls-9" d="M193.37,40.17a3.37,3.37,0,0,0-1.53,2.64c0,1,.69,1.36,1.53.88a3.38,3.38,0,0,0,1.52-2.64C194.89,40.08,194.21,39.68,193.37,40.17Z"/><path class="cls-9" d="M193.37,222.61a13.32,13.32,0,0,0-6,10.42c0,3.84,2.7,5.39,6,3.47a13.28,13.28,0,0,0,6-10.41C199.38,222.25,196.69,220.7,193.37,222.61Z"/><path class="cls-9" d="M179,55.65a6.73,6.73,0,0,0-3,5.27c0,1.95,1.37,2.73,3,1.76A6.73,6.73,0,0,0,182,57.41C182,55.46,180.66,54.67,179,55.65Z"/><path class="cls-9" d="M186.43,55c0,1.29,1,1.78,2.16,1.09l20-11.57a4.65,4.65,0,0,0,2.16-3.59c0-1.3-1-1.79-2.17-1.1l-20,11.57A4.65,4.65,0,0,0,186.43,55Z"/><path class="cls-9" d="M141.21,90.25a5.38,5.38,0,0,1,2.44,4.22c0,1.55-1.1,2.18-2.44,1.41a5.39,5.39,0,0,1-2.44-4.23C138.77,90.1,139.86,89.47,141.21,90.25Z"/><path class="cls-9" d="M141.21,109a5.42,5.42,0,0,1,2.44,4.23c0,1.55-1.1,2.18-2.44,1.4a5.36,5.36,0,0,1-2.44-4.22C138.77,108.88,139.86,108.25,141.21,109Z"/><path class="cls-8" d="M140.46,90.62a5.4,5.4,0,0,1,2.43,4.22c0,1.56-1.09,2.19-2.43,1.41A5.37,5.37,0,0,1,138,92C138,90.48,139.11,89.85,140.46,90.62Z"/><path class="cls-8" d="M140.46,109.4a5.4,5.4,0,0,1,2.43,4.22c0,1.56-1.09,2.19-2.43,1.41a5.39,5.39,0,0,1-2.44-4.22C138,109.25,139.11,108.62,140.46,109.4Z"/><path class="cls-11" d="M252.27,43.76c0-1.65-1.17-2.32-2.6-1.5l-9.59,5.54L169.56,88.51A5.77,5.77,0,0,0,167,93V241.8c0,1.66,1.17,2.33,2.6,1.5l70.55-40.73,9.56-5.52a5.76,5.76,0,0,0,2.6-4.5Z"/><path class="cls-12" d="M168.4,244.15a1.83,1.83,0,0,1-.92-.24,2.27,2.27,0,0,1-1-2.11V93a6.2,6.2,0,0,1,2.85-4.93l70.52-40.71.5.86L169.81,89A5.27,5.27,0,0,0,167.46,93V241.8a1.11,1.11,0,0,0,1.85,1.07l70.55-40.73.5.86-70.55,40.73A2.88,2.88,0,0,1,168.4,244.15Z"/><path class="cls-12" d="M240.36,203l-.5-.86,9.56-5.52a5.3,5.3,0,0,0,2.35-4.07V43.76a1.1,1.1,0,0,0-1.85-1.06l-9.59,5.53-.5-.86,9.59-5.54a2.07,2.07,0,0,1,3.35,1.93V192.55a6.2,6.2,0,0,1-2.85,4.93Z"/><path class="cls-3" d="M209.62,78.34c9-5.18,16.24-1,16.24,9.38s-7.27,23-16.24,28.14-16.25,1-16.25-9.38S200.64,83.52,209.62,78.34Z"/><path class="cls-3" d="M209.62,86.49c2.91-1.68,5.27-.31,5.27,3.05a11.65,11.65,0,0,1-5.27,9.13c-2.92,1.68-5.28.32-5.28-3A11.64,11.64,0,0,1,209.62,86.49Z"/><path class="cls-3" d="M219.89,104.42c0-5.52-3.88-7.76-8.66-5l-3,1.73c-4.78,2.76-8.66,9.47-8.66,15v1.48c2.76.92,6.24.42,10-1.77a32.06,32.06,0,0,0,10.27-10.16Z"/><path class="cls-13" d="M209.62,86.49c2.91-1.68,5.27-.31,5.27,3.05a11.65,11.65,0,0,1-5.27,9.13c-2.92,1.68-5.28.32-5.28-3A11.64,11.64,0,0,1,209.62,86.49Z"/><path class="cls-13" d="M219.89,104.42c0-5.52-3.88-7.76-8.66-5l-3,1.73c-4.78,2.76-8.66,9.47-8.66,15v1.48c2.76.92,6.24.42,10-1.77a32.06,32.06,0,0,0,10.27-10.16Z"/><path class="cls-3" d="M178.18,138.71l20.9-12.07c1-.55,1.74-.1,1.74,1v.69a3.82,3.82,0,0,1-1.74,3l-20.9,12.07c-1,.56-1.74.11-1.74-1v-.69A3.85,3.85,0,0,1,178.18,138.71Z"/><path class="cls-14" d="M178.18,138.71l20.9-12.07c1-.55,1.74-.1,1.74,1v.69a3.82,3.82,0,0,1-1.74,3l-20.9,12.07c-1,.56-1.74.11-1.74-1v-.69A3.85,3.85,0,0,1,178.18,138.71Z"/><path class="cls-3" d="M177.31,153.29l63.26-36.53c.48-.27.87-.05.87.5v7.38a1.89,1.89,0,0,1-.87,1.5l-63.26,36.53c-.48.27-.86.05-.86-.5v-7.38A1.88,1.88,0,0,1,177.31,153.29Z"/><path class="cls-15" d="M177.31,153.29l63.26-36.53c.48-.27.87-.05.87.5v7.38a1.89,1.89,0,0,1-.87,1.5l-63.26,36.53c-.48.27-.86.05-.86-.5v-7.38A1.88,1.88,0,0,1,177.31,153.29Z"/><path class="cls-3" d="M178.18,171.55l20.9-12.07c1-.56,1.74-.11,1.74,1v.69a3.85,3.85,0,0,1-1.74,3l-20.9,12.07c-1,.55-1.74.1-1.74-1v-.69A3.82,3.82,0,0,1,178.18,171.55Z"/><path class="cls-14" d="M178.18,171.55l20.9-12.07c1-.56,1.74-.11,1.74,1v.69a3.85,3.85,0,0,1-1.74,3l-20.9,12.07c-1,.55-1.74.1-1.74-1v-.69A3.82,3.82,0,0,1,178.18,171.55Z"/><path class="cls-3" d="M177.31,186.12l63.26-36.53c.48-.27.87-.05.87.5v7.39a1.92,1.92,0,0,1-.87,1.5L177.31,195.5c-.48.28-.86.05-.86-.5v-7.38A1.9,1.9,0,0,1,177.31,186.12Z"/><path class="cls-15" d="M177.31,186.12l63.26-36.53c.48-.27.87-.05.87.5v7.39a1.92,1.92,0,0,1-.87,1.5L177.31,195.5c-.48.28-.86.05-.86-.5v-7.38A1.9,1.9,0,0,1,177.31,186.12Z"/><path class="cls-3" d="M202.55,190.31l25-14.42c1-.55,1.73-.1,1.73,1v7.73a3.82,3.82,0,0,1-1.73,3l-25,14.42c-1,.55-1.73.1-1.73-1v-7.73A3.81,3.81,0,0,1,202.55,190.31Z"/><path class="cls-14" d="M202.55,190.31l25-14.42c1-.55,1.73-.1,1.73,1v7.73a3.82,3.82,0,0,1-1.73,3l-25,14.42c-1,.55-1.73.1-1.73-1v-7.73A3.81,3.81,0,0,1,202.55,190.31Z"/></g><g id="Character"><path class="cls-16" d="M261.75,157.73s-12.29-16.95-13-19c-.56-1.52,0-3.79.18-4.84s.35-3.39.52-4c.31-1.13-1.17-.9-2,.13s-1.12,3.13-1.54,3.47-3.7-4.43-5.42-6.64-2.78-3.54-3.82-2.72c-.75.59-.19,1.88,1.05,3.76s1.79,2.75,2,3.15-.84.44-1.39,1.28c-.43.67,0,1.74-.6,2.25a1.87,1.87,0,0,0-.47,2.46,15.9,15.9,0,0,0,4.23,4.48c1.83,1.27,2.58,1.72,3.66,3.45s10.87,19.41,11.53,20.47,1.93,3.22,3.86,3.28,17.73-13.54,18.55-14.22c2.6-2.17,3.42-2.49,3.87-.53.14.61.23,1.31.33,2.09.31,2.48,2,11.34,2,11.34s8,3.87,14.57,2,8.78-4.66,8.78-4.66l-3.29-5.36c.9-2.22,5-11.17,6.34-17.45L291,138.57l-2-.49c-1.13-.3-4-1.3-6.17.61-7.09,6.16-21.16,19-21.16,19"/><path class="cls-9" d="M302.59,261.67l-3.69,5.13a12.37,12.37,0,0,0,5.36,1.14c3.3.13,4.21-1,4.33-1.22.56-1.2-.31-3.35-.55-5.21Z"/><path class="cls-9" d="M299.1,264.33s-4.47-.28-7.57-.67-5.54,1.12-4.81,2.39,2.43,2.34,5.08,3.23c2.27.76,5,1.32,7.37,2s4,1.56,5.36,1.09c1.54-.53,2.2-1.15,2.07-2.26a47.92,47.92,0,0,0-1.25-4.72Z"/><path class="cls-17" d="M308.59,256.51s-.55,4.66-.6,5.66-4.55,1.32-5.4-.5l-.14-5.7Z"/><path class="cls-16" d="M304.05,259.38l1.61,7.07s.16.86-3.53,1.41-9.46-1.93-10.44-2.43-1.1-1.5,2.52-1.3,4.89.2,4.89.2l-1.17-3.13Z"/><path class="cls-17" d="M311.64,141.89l2.54-.7s5.34,16.87,5.93,18.49,1.25,3.36.1,5.37c-1.36,2.39-8.57,12-8.57,12l-4.58-4.48,5.19-9.51-4.59-9.31Z"/><path class="cls-9" d="M285.42,120a7.52,7.52,0,0,1,.11-7.27c2.53-4.72,8.2-7,14.94-6.14,3.11.41,6.79,3,8.81,6.87,2.21,4.29,2.42,12.94,3,16.2Z"/><path class="cls-16" d="M285.26,121.81s-1.6,3-1.32,3.33a4.07,4.07,0,0,0,1.35.5Z"/><path class="cls-16" d="M290.13,112.17c-1.75,1.14-4.75,3.21-4.88,10.07-.13,7,.86,9.3,1.9,10.12.7.55,4.81.27,6.57-.15s6.84-2.92,8.66-6.73c2.15-4.48,1.72-11-1.48-12.94A11.15,11.15,0,0,0,290.13,112.17Z"/><path class="cls-3" d="M308.59,164.7c3.09,4.8,6,9,6.64,14.42,1.32,11.39-3,24.41-3.93,32.83a15.26,15.26,0,0,1,2.91,8.23c0,3.48-5.62,36.33-5.62,36.33s-4.08,1.24-6.14-.54l-3.86-60.44,2-7.35Z"/><path class="cls-4" d="M308.59,164.7c3.09,4.8,6,9,6.64,14.42,1.32,11.39-3,24.41-3.93,32.83a15.26,15.26,0,0,1,2.91,8.23c0,3.48-5.62,36.33-5.62,36.33s-4.08,1.24-6.14-.54l-3.86-60.44,2-7.35Z"/><path class="cls-3" d="M298.59,195.53l2-7.35a49.11,49.11,0,0,0,11-4.37s-2.09,3.78-8.06,5.86l-3.11,9.46-.27,21.64Z"/><path class="cls-18" d="M298.59,195.53l2-7.35a49.11,49.11,0,0,0,11-4.37s-2.09,3.78-8.06,5.86l-3.11,9.46-.27,21.64Z"/><path class="cls-3" d="M308.59,164.7c1.65,2.69,5.6,7.3,4.76,11.72-1,5.36-3.9,9.13-12.73,11.76l-8.27,30s4.31,4,5.62,7.87,6.08,33.36,6.08,33.36-1.47,2.4-6.12,1.82c0,0-16.21-37-17.36-39.41a12,12,0,0,1-1.37-8c.52-3.88,6-46.35,6-46.35Z"/><path class="cls-4" d="M308.59,164.7c1.65,2.69,5.6,7.3,4.76,11.72-1,5.36-3.9,9.13-12.73,11.76l-8.27,30s4.31,4,5.62,7.87,6.08,33.36,6.08,33.36-1.47,2.4-6.12,1.82c0,0-16.21-37-17.36-39.41a12,12,0,0,1-1.37-8c.52-3.88,6-46.35,6-46.35Z"/><path class="cls-3" d="M311.64,141.89,291,138.57l-2-.49h0S288.19,151,282.91,154h0c.12.61.23,1.3.33,2.09.31,2.48,2,11.34,2,11.34s8,3.87,14.57,2,8.78-4.66,8.78-4.66l-3.29-5.36C306.2,157.12,310.34,148.17,311.64,141.89Z"/><path class="cls-13" d="M311.64,141.89,291,138.57l-2-.49h0S288.19,151,282.91,154h0c.12.61.23,1.3.33,2.09.31,2.48,2,11.34,2,11.34s8,3.87,14.57,2,8.78-4.66,8.78-4.66l-3.29-5.36C306.2,157.12,310.34,148.17,311.64,141.89Z"/><path class="cls-3" d="M306.2,157.23a58.44,58.44,0,0,1-8.56,4.23,16.06,16.06,0,0,0,7.66-2.12Z"/><path class="cls-9" d="M289.61,112.52s-1,6.5,1.37,10.31c0,0,.87-2.59,3.07-2.09s2.31,3.37.77,5a3.2,3.2,0,0,1-3.25,1s-.35,4.7-.53,8.64-1.24,12.53,3.2,16,15.54,4.7,20.75-2.58c2.9-4-.95-11.22-2.74-19.25-1.65-7.38-2.57-18.32-10.41-20.08S289.61,112.52,289.61,112.52Z"/></g><g id="Cloud"><path class="cls-2" d="M318.35,23.7l-1.65.95a8.59,8.59,0,0,0,.22-1.79c0-3.34-2.35-4.7-5.24-3a9.34,9.34,0,0,0-2.34,2v0c0-4.5-3.16-6.33-7.06-4.07A15.59,15.59,0,0,0,295.22,30c0,.23,0,.44,0,.66a4.31,4.31,0,0,0-2.87.67,11.57,11.57,0,0,0-5.24,9.08,5.48,5.48,0,0,0,.13,1.26l-.88.51c-2.39,1.38-4.33,4.08-4.33,6s1.94,2.4,4.33,1l32-18.45c2.39-1.39,4.33-4.08,4.33-6S320.74,22.32,318.35,23.7Z"/></g></svg>