<svg xmlns="http://www.w3.org/2000/svg" viewBox="0 0 500 500"><g id="freepik--background-simple--inject-28"><path d="M331.6,60.63S254.61,33.25,179,76.84,65.33,206.94,32.59,276.24,18.69,416,76.38,448.18s96.92-15.24,177.85-17.54,102.69,9.26,169.85-36.46S503.37,240.49,450.4,160.6,331.6,60.63,331.6,60.63Z" style="fill:#082791"></path><path d="M331.6,60.63S254.61,33.25,179,76.84,65.33,206.94,32.59,276.24,18.69,416,76.38,448.18s96.92-15.24,177.85-17.54,102.69,9.26,169.85-36.46S503.37,240.49,450.4,160.6,331.6,60.63,331.6,60.63Z" style="fill:#fff;opacity:0.7000000000000001"></path></g><g id="freepik--Poster--inject-28"><rect x="358.31" y="138.33" width="105.97" height="158.08" style="fill:none;stroke:#263238;stroke-linecap:round;stroke-linejoin:round"></rect><path d="M426.35,178.52l-36.19,22.39a16.5,16.5,0,0,1-22.72-5.35h0a16.5,16.5,0,0,1,5.35-22.71L409,150.45a16.51,16.51,0,0,1,22.72,5.35h0A16.5,16.5,0,0,1,426.35,178.52Z" style="fill:none;stroke:#263238;stroke-linecap:round;stroke-linejoin:round"></path><path d="M409,150.45l-18.46,11.43,17.37,28.06,18.46-11.42A16.5,16.5,0,1,0,409,150.45Z" style="fill:none;stroke:#263238;stroke-linecap:round;stroke-linejoin:round"></path><path d="M436.84,247.77l-40.2-14a16.49,16.49,0,0,1-10.17-21h0a16.49,16.49,0,0,1,21-10.17l40.2,14a16.5,16.5,0,0,1,10.17,21h0A16.5,16.5,0,0,1,436.84,247.77Z" style="fill:none;stroke:#263238;stroke-linecap:round;stroke-linejoin:round"></path><path d="M447.67,216.59l-20.51-7.13-10.83,31.18,20.51,7.13a16.5,16.5,0,0,0,10.83-31.18Z" style="fill:none;stroke:#263238;stroke-linecap:round;stroke-linejoin:round"></path><line x1="442.67" y1="261.67" x2="447.78" y2="261.67" style="fill:none;stroke:#263238;stroke-linecap:round;stroke-linejoin:round"></line><line x1="373.95" y1="261.67" x2="437.03" y2="261.67" style="fill:none;stroke:#263238;stroke-linecap:round;stroke-linejoin:round"></line><line x1="373.95" y1="272.96" x2="447.78" y2="272.96" style="fill:none;stroke:#263238;stroke-linecap:round;stroke-linejoin:round"></line><line x1="386.57" y1="284.26" x2="447.78" y2="284.26" style="fill:none;stroke:#263238;stroke-linecap:round;stroke-linejoin:round"></line><line x1="373.95" y1="284.26" x2="379.16" y2="284.26" style="fill:none;stroke:#263238;stroke-linecap:round;stroke-linejoin:round"></line><line x1="419.38" y1="246.91" x2="424.33" y2="246.91" style="fill:none;stroke:#263238;stroke-linecap:round;stroke-linejoin:round"></line><polyline points="371.34 208.69 371.34 246.91 413.03 246.91" style="fill:none;stroke:#263238;stroke-linecap:round;stroke-linejoin:round"></polyline><line x1="441.26" y1="151.74" x2="436.49" y2="151.74" style="fill:none;stroke:#263238;stroke-linecap:round;stroke-linejoin:round"></line><polyline points="452.99 213.03 452.99 151.74 446.9 151.74" style="fill:none;stroke:#263238;stroke-linecap:round;stroke-linejoin:round"></polyline><polyline points="398.27 151.36 370.47 151.36 370.47 169.6" style="fill:none;stroke:#263238;stroke-linecap:round;stroke-linejoin:round"></polyline></g><g id="freepik--Character--inject-28"><path d="M295.4,273.88c-3.9,4.3-18.31,4.91-30.95,4.86s-28.7-7.19-34.07-14.86,5.47-23.32,7.37-26.95,2.66-21.46,13.55-26.69,33.82-2.51,41.27,3,23.15,15.14,25.71,24.67-6.37,9.64-7.13,10.1-2,.91-3.92,4.55a7.17,7.17,0,0,1-5.86,3.71Z" style="fill:#263238;stroke:#263238;stroke-linecap:round;stroke-linejoin:round"></path><path d="M307.17,235c7.24,1.91,12,4.24,8.39,6.78" style="fill:none;stroke:#545454;stroke-linecap:round;stroke-linejoin:round"></path><path d="M278,230s14.28,1.57,25.53,4.08" style="fill:none;stroke:#545454;stroke-linecap:round;stroke-linejoin:round"></path><path d="M271.84,227.66s18.33-6.11,35.73,1.41" style="fill:none;stroke:#545454;stroke-linecap:round;stroke-linejoin:round"></path><path d="M293.15,219.27a20.63,20.63,0,0,1,2.66.87" style="fill:none;stroke:#545454;stroke-linecap:round;stroke-linejoin:round"></path><path d="M265.26,225.78s11.07-7.59,22.83-7.21" style="fill:none;stroke:#545454;stroke-linecap:round;stroke-linejoin:round"></path><path d="M236.9,262.44a18,18,0,0,1-4.07.94" style="fill:none;stroke:#545454;stroke-linecap:round;stroke-linejoin:round"></path><path d="M270,235.65s-13.16,13.16-21.62,20.21a37.8,37.8,0,0,1-8.05,5.21" style="fill:none;stroke:#545454;stroke-linecap:round;stroke-linejoin:round"></path><path d="M261.5,232.83S247.87,248.34,235.65,253" style="fill:none;stroke:#545454;stroke-linecap:round;stroke-linejoin:round"></path><path d="M387,413.52s4.71,4.25,5.33,5.46,2.93,6.37,2.08,6.5-2.9-3.16-3.51-4.54-3-5-3-5Z" style="fill:#fff;stroke:#263238;stroke-linecap:round;stroke-linejoin:round"></path><path d="M384.05,410.53s3.25,3,3.87,4.21,3.52,12.13,3.52,12.13-1.4,1.12-2.38.58-4.41-11.33-4.41-11.33Z" style="fill:#fff;stroke:#263238;stroke-linecap:round;stroke-linejoin:round"></path><path d="M376.66,405.82s5.94,3.13,7.39,4.71,3.75,14.67,4.21,15.87-2.29,2.09-2.94,1.56S382,416,382,416l-5.36-8.66Z" style="fill:#fff;stroke:#263238;stroke-linecap:round;stroke-linejoin:round"></path><path d="M362.56,404.37l11.24.22a6.21,6.21,0,0,1,4.89,2.56l4.72,6.56.81,13.05A1.19,1.19,0,0,1,383,428h0a1.22,1.22,0,0,1-1.1-.88l-3.27-11.8-4.29-2s-6.57,3.6-6.43,4.28,3.82,5.23,4.62,6.27,2.75,2.82,2.2,3.81-3.88,0-5-.73-7.23-8.41-9.52-10-4.75-3.25-4.75-3.25Z" style="fill:#fff;stroke:#263238;stroke-linecap:round;stroke-linejoin:round"></path><polyline points="360.55 407.39 359.02 415.84 356.46 413.79 360.55 407.39" style="fill:#263238;stroke:#263238;stroke-linecap:round;stroke-linejoin:round"></polyline><path d="M312,298.09s10.11,2.7,11.53,9.3S331.2,379,331.2,379l33.5,21.77-10.14,15.65-31.81-6.25L304.12,296Z" style="fill:#fff;stroke:#263238;stroke-linecap:round;stroke-linejoin:round"></path><path d="M331.2,379s-4.43,2.34-6,4.44" style="fill:none;stroke:#263238;stroke-linecap:round;stroke-linejoin:round"></path><path d="M317.5,313.27l8.94,120.14-112.91-4.6s3.18-124.12,4.54-126.78,12.32-3.93,21.37-6.77S264.63,287,264.63,287l21.24.9c5.94.26,30.49,11.73,30.45,12.72" style="fill:#fff;stroke:#263238;stroke-linecap:round;stroke-linejoin:round"></path><rect x="307.32" y="336.98" width="11.21" height="4.34" style="fill:#263238;stroke:#263238;stroke-linecap:round;stroke-linejoin:round"></rect><polyline points="252.72 291.87 253.78 336.3 266.54 339.33 259.35 350.67 277.28 400.54" style="fill:#fff;stroke:#263238;stroke-linecap:round;stroke-linejoin:round"></polyline><path d="M290.77,289.3s11.83,24.56,15.2,32.64,4.75,10.62,4.75,10.62l-8.44,5.84,8.63,6.82-8.07,43.28" style="fill:#fff;stroke:#263238;stroke-linecap:round;stroke-linejoin:round"></path><path d="M257,290s17.1,45.91,18.45,60.59,4.65,81.78,4.65,81.78l22,1s-.82-67-4.2-91.92-8.19-45.73-9.07-48.24a24.55,24.55,0,0,0-3-5.34l-13.58-2Z" style="fill:#082791;stroke:#263238;stroke-linecap:round;stroke-linejoin:round"></path><line x1="298.96" y1="365.08" x2="290.57" y2="382.4" style="fill:none;stroke:#263238;stroke-linecap:round;stroke-linejoin:round"></line><line x1="295.81" y1="365.08" x2="283.75" y2="390.27" style="fill:none;stroke:#263238;stroke-linecap:round;stroke-linejoin:round"></line><path d="M264.1,269.55s.07,15.63-.25,17.35-5.33,1.1-5.43,3.33,7.5,23.29,14.9,29.81,9.68,5.62,11.88.51,2.85-15.15,3-18.37c.06-1.43.36-5,0-6.74-.52-2.45-1.18-5.95-3.25-7.37l-.79-.54.33-7.67S271.88,278.82,264.1,269.55Z" style="fill:#fff;stroke:#263238;stroke-linecap:round;stroke-linejoin:round"></path><path d="M284.15,287.53l.33-7.67s-12.6-1-20.38-10.31v.1l.52,2.4s4.9,14.41,20.32,16Z" style="fill:#263238;stroke:#263238;stroke-linecap:round;stroke-linejoin:round"></path><path d="M276.16,231.64s-14-4.32-14.61-6.33.06-6.94-1.72-6-1.54,6.87.86,8.71,15.68,4.4,16.59,6.42-.4,3.45-4.87,9.21S248.49,258,248.4,260s2.13,8,5.59,8.42a10.33,10.33,0,0,0,6.26-1.46,30.21,30.21,0,0,0,10.42,11.36c7,4.27,17.1,5.94,23.23,1.75,3.35-2.3,9.26-13.49,9.71-18.18s-2.05-10-2-12,.19-4.45.19-4.45-17.43-9.68-19.82-11.77A9.58,9.58,0,0,0,276.16,231.64Z" style="fill:#fff;stroke:#263238;stroke-linecap:round;stroke-linejoin:round"></path><path d="M273.16,245.4s5-3.2,10-.69" style="fill:none;stroke:#263238;stroke-linecap:round;stroke-linejoin:round"></path><path d="M292.81,244.94S296,243.34,299,247" style="fill:none;stroke:#263238;stroke-linecap:round;stroke-linejoin:round"></path><path d="M290.08,253.57s-.39,3.45.56,4.24,2.92,1.36,1.87,2.81-4.29,1.55-5.7-.25" style="fill:none;stroke:#263238;stroke-linecap:round;stroke-linejoin:round"></path><path d="M294.26,265.9s-4.09,2.8-10.67.28" style="fill:none;stroke:#263238;stroke-linecap:round;stroke-linejoin:round"></path><path d="M279.51,252.94c-.06,1.37-.89,2.45-1.84,2.4s-1.69-1.18-1.63-2.55.88-2.44,1.84-2.4S279.57,251.58,279.51,252.94Z" style="fill:#263238"></path><path d="M297.08,253.7c-.06,1.37-.89,2.45-1.84,2.4s-1.69-1.18-1.63-2.55.89-2.44,1.84-2.4S297.14,252.34,297.08,253.7Z" style="fill:#263238"></path><rect x="269.33" y="247.1" width="17.34" height="9.91" rx="2.62" transform="translate(11.15 -11.78) rotate(2.48)" style="fill:none;stroke:#263238;stroke-linecap:round;stroke-linejoin:round"></rect><rect x="289.87" y="247.94" width="14.86" height="9.91" rx="2.62" transform="translate(11.21 -12.61) rotate(2.48)" style="fill:none;stroke:#263238;stroke-linecap:round;stroke-linejoin:round"></rect><line x1="286.82" y1="248.72" x2="289.79" y2="248.85" style="fill:none;stroke:#263238;stroke-linecap:round;stroke-linejoin:round"></line><line x1="269.36" y1="251.19" x2="262.43" y2="250.89" style="fill:none;stroke:#263238;stroke-linecap:round;stroke-linejoin:round"></line><path d="M275.09,398.49s7.27-.32,9.85-1.47,20.76-6,21.69-5.69a70.27,70.27,0,0,1,9,4.49c1.47,1.08,4.63,9.69,5.83,13.1a1.56,1.56,0,0,1-.84,2h0a1.58,1.58,0,0,1-2-.59L316,406.13l1.89,7.86a1.67,1.67,0,0,1-1.11,2h0a1.68,1.68,0,0,1-1.82-.53l-6.16-7.61-3-3,6.3,11.7a1.54,1.54,0,0,1-1.09,2.24h0a1.55,1.55,0,0,1-1.33-.41c-1.81-1.76-7.41-7.21-7.9-8a25.76,25.76,0,0,0-3.33-3.29l6.12,11.62h0a1.36,1.36,0,0,1-.52,2l-.09,0c-2.08.08-3.13-1.4-4.62-2.86l-6.44-6.3s-9.87,2.09-12.68,1.34-9.22-5.76-9.22-5.76Z" style="fill:#fff;stroke:#263238;stroke-linecap:round;stroke-linejoin:round"></path><polygon points="275.09 398.49 274.81 409.69 270.93 407.14 275.09 398.49" style="fill:#263238;stroke:#263238;stroke-linecap:round;stroke-linejoin:round"></polygon><polyline points="315.96 406.13 313.75 401.66 305.95 395.96" style="fill:#fff;stroke:#263238;stroke-linecap:round;stroke-linejoin:round"></polyline><line x1="305.73" y1="404.86" x2="302.19" y2="401.16" style="fill:#fff;stroke:#263238;stroke-linecap:round;stroke-linejoin:round"></line><path d="M228.59,299.31s-9.76-.42-12.44,3.25-8.92,90.95-8.77,94.74,60.31,19.16,60.31,19.16l8.69-18.55-35.93-21.26,2.09-49.6" style="fill:#fff;stroke:#263238;stroke-linecap:round;stroke-linejoin:round"></path><path d="M224.46,377.15s9.42-4.68,16-.5" style="fill:none;stroke:#263238;stroke-linecap:round;stroke-linejoin:round"></path><path d="M228.18,380.1a19.29,19.29,0,0,1,9.8-2.78" style="fill:none;stroke:#263238;stroke-linecap:round;stroke-linejoin:round"></path><path d="M223.49,384.73a8.34,8.34,0,0,1,.75-1.11" style="fill:none;stroke:#263238;stroke-linecap:round;stroke-linejoin:round"></path></g><g id="freepik--device-2--inject-28"><polygon points="178.21 412.37 178.21 403.76 159.39 403.76 159.39 412.05 178.21 412.37" style="fill:#bfbfbf;stroke:#263238;stroke-linecap:round;stroke-linejoin:round"></polygon><path d="M159.39,403.76l-1.91-4.47a37.84,37.84,0,0,1,11.16.64,27,27,0,0,1,9.57,3.83Z" style="fill:#fff;stroke:#263238;stroke-linecap:round;stroke-linejoin:round"></path><path d="M157.48,399.29s-6.38.32-9.89,4.79a20.26,20.26,0,0,0-3.83,10.2l15.63-2.23v-8.29Z" style="fill:#fff;stroke:#263238;stroke-linecap:round;stroke-linejoin:round"></path><path d="M154.29,406.63V413l-4.79.32a9.87,9.87,0,0,1,1-5.11A3.06,3.06,0,0,1,154.29,406.63Z" style="fill:#fff;stroke:#263238;stroke-linecap:round;stroke-linejoin:round"></path><polygon points="158.75 431.19 148.87 431.19 142.49 420.02 154.93 416.84 158.75 431.19" style="fill:#fff;stroke:#263238;stroke-linecap:round;stroke-linejoin:round"></polygon><polygon points="201.81 419.07 195.43 431.19 158.75 431.19 153.33 420.66 201.81 419.07" style="fill:#a6a6a6;stroke:#263238;stroke-linecap:round;stroke-linejoin:round"></polygon><rect x="153.33" y="411.73" width="50.39" height="8.93" transform="translate(357.06 832.4) rotate(180)" style="fill:#bfbfbf;stroke:#263238;stroke-linecap:round;stroke-linejoin:round"></rect><polygon points="153.33 411.73 141.53 415.88 141.53 421.3 153.33 420.66 153.33 411.73" style="fill:#fff;stroke:#263238;stroke-linecap:round;stroke-linejoin:round"></polygon></g><g id="freepik--device-1--inject-28"><polygon points="284.12 425.37 348.71 424.39 355.33 423.31 422.69 423.31 420.48 427.85 282.46 427.85 284.12 425.37" style="fill:#263238;stroke:#263238;stroke-linecap:round;stroke-linejoin:round"></polygon><polygon points="436.79 408.47 353.97 408.47 365.58 325.16 448.39 325.16 436.79 408.47" style="fill:#263238;stroke:#263238;stroke-linecap:round;stroke-linejoin:round"></polygon><polygon points="440.49 408.47 357.67 408.47 369.28 325.16 452.1 325.16 440.49 408.47" style="fill:#3d3d3d;stroke:#263238;stroke-linecap:round;stroke-linejoin:round"></polygon><polygon points="415.68 382.5 389.71 382.5 394.08 351.14 420.05 351.14 415.68 382.5" style="fill:#3d3d3d;stroke:#263238;stroke-linecap:round;stroke-linejoin:round"></polygon><polygon points="394.08 351.14 369.28 325.16 452.1 325.16 420.05 351.14 394.08 351.14" style="fill:#595959;stroke:#263238;stroke-linecap:round;stroke-linejoin:round"></polygon><polygon points="389.71 382.5 359.51 408.2 440.49 408.47 415.68 382.5 389.71 382.5" style="fill:#2e2e2e;stroke:#263238;stroke-linecap:round;stroke-linejoin:round"></polygon><circle cx="408.19" cy="372.67" r="15.54" style="fill:#263238;stroke:#263238;stroke-linecap:round;stroke-linejoin:round"></circle><path d="M409.61,364.79h1a10.14,10.14,0,0,1,10.14,10.14v55a0,0,0,0,1,0,0H399.47a0,0,0,0,1,0,0v-55A10.14,10.14,0,0,1,409.61,364.79Z" style="fill:#595959;stroke:#263238;stroke-linecap:round;stroke-linejoin:round"></path><path d="M420.75,429.92V375.43a9,9,0,1,0-17.88,2.13v52.36Z" style="fill:#595959;stroke:#263238;stroke-linecap:round;stroke-linejoin:round"></path><rect x="410.53" y="402.67" width="5.53" height="14.05" rx="2.64" style="fill:#263238;stroke:#263238;stroke-linecap:round;stroke-linejoin:round"></rect><rect x="382.01" y="424.81" width="39.16" height="5.11" style="fill:#595959;stroke:#263238;stroke-linecap:round;stroke-linejoin:round"></rect></g><g id="freepik--Table--inject-28"><rect x="19.85" y="427.79" width="468.5" height="8.94" style="fill:#263238;stroke:#263238;stroke-linecap:round;stroke-linejoin:round"></rect></g></svg>